%TF.GenerationSoftware,KiCad,Pcbnew,10.0.1*%
%TF.CreationDate,2026-05-06T13:51:27+02:00*%
%TF.ProjectId,Przetwornica Boost,50727a65-7477-46f7-926e-69636120426f,rev?*%
%TF.SameCoordinates,Original*%
%TF.FileFunction,Copper,L1,Top*%
%TF.FilePolarity,Positive*%
%FSLAX46Y46*%
G04 Gerber Fmt 4.6, Leading zero omitted, Abs format (unit mm)*
G04 Created by KiCad (PCBNEW 10.0.1) date 2026-05-06 13:51:27*
%MOMM*%
%LPD*%
G01*
G04 APERTURE LIST*
G04 Aperture macros list*
%AMRoundRect*
0 Rectangle with rounded corners*
0 $1 Rounding radius*
0 $2 $3 $4 $5 $6 $7 $8 $9 X,Y pos of 4 corners*
0 Add a 4 corners polygon primitive as box body*
4,1,4,$2,$3,$4,$5,$6,$7,$8,$9,$2,$3,0*
0 Add four circle primitives for the rounded corners*
1,1,$1+$1,$2,$3*
1,1,$1+$1,$4,$5*
1,1,$1+$1,$6,$7*
1,1,$1+$1,$8,$9*
0 Add four rect primitives between the rounded corners*
20,1,$1+$1,$2,$3,$4,$5,0*
20,1,$1+$1,$4,$5,$6,$7,0*
20,1,$1+$1,$6,$7,$8,$9,0*
20,1,$1+$1,$8,$9,$2,$3,0*%
G04 Aperture macros list end*
%TA.AperFunction,ComponentPad*%
%ADD10RoundRect,0.250000X0.550000X-0.550000X0.550000X0.550000X-0.550000X0.550000X-0.550000X-0.550000X0*%
%TD*%
%TA.AperFunction,ComponentPad*%
%ADD11C,1.600000*%
%TD*%
%TA.AperFunction,SMDPad,CuDef*%
%ADD12RoundRect,0.150000X0.512500X0.150000X-0.512500X0.150000X-0.512500X-0.150000X0.512500X-0.150000X0*%
%TD*%
%TA.AperFunction,SMDPad,CuDef*%
%ADD13RoundRect,0.250000X1.950000X1.000000X-1.950000X1.000000X-1.950000X-1.000000X1.950000X-1.000000X0*%
%TD*%
%TA.AperFunction,ComponentPad*%
%ADD14R,1.050000X1.500000*%
%TD*%
%TA.AperFunction,ComponentPad*%
%ADD15O,1.050000X1.500000*%
%TD*%
%TA.AperFunction,ComponentPad*%
%ADD16RoundRect,0.250000X1.050000X1.050000X-1.050000X1.050000X-1.050000X-1.050000X1.050000X-1.050000X0*%
%TD*%
%TA.AperFunction,ComponentPad*%
%ADD17C,2.600000*%
%TD*%
%TA.AperFunction,ComponentPad*%
%ADD18C,1.400000*%
%TD*%
%TA.AperFunction,ComponentPad*%
%ADD19C,1.500000*%
%TD*%
%TA.AperFunction,ComponentPad*%
%ADD20RoundRect,0.250000X0.550000X0.550000X-0.550000X0.550000X-0.550000X-0.550000X0.550000X-0.550000X0*%
%TD*%
%TA.AperFunction,ComponentPad*%
%ADD21R,2.000000X1.905000*%
%TD*%
%TA.AperFunction,ComponentPad*%
%ADD22O,2.000000X1.905000*%
%TD*%
%TA.AperFunction,ComponentPad*%
%ADD23RoundRect,0.250001X-1.149999X-1.149999X1.149999X-1.149999X1.149999X1.149999X-1.149999X1.149999X0*%
%TD*%
%TA.AperFunction,ComponentPad*%
%ADD24C,2.800000*%
%TD*%
%TA.AperFunction,ComponentPad*%
%ADD25RoundRect,0.250001X-1.149999X1.149999X-1.149999X-1.149999X1.149999X-1.149999X1.149999X1.149999X0*%
%TD*%
%TA.AperFunction,ComponentPad*%
%ADD26R,1.800000X1.800000*%
%TD*%
%TA.AperFunction,ComponentPad*%
%ADD27C,1.800000*%
%TD*%
%TA.AperFunction,ComponentPad*%
%ADD28C,1.440000*%
%TD*%
%TA.AperFunction,ComponentPad*%
%ADD29C,2.540000*%
%TD*%
%TA.AperFunction,ViaPad*%
%ADD30C,0.600000*%
%TD*%
%TA.AperFunction,Conductor*%
%ADD31C,0.400000*%
%TD*%
%TA.AperFunction,Conductor*%
%ADD32C,0.600000*%
%TD*%
G04 APERTURE END LIST*
D10*
%TO.P,U2,1*%
%TO.N,Net-(J3-Pin_1)*%
X134890000Y-80805000D03*
D11*
%TO.P,U2,2,-_2*%
%TO.N,Net-(U2A--)*%
X137430000Y-80805000D03*
%TO.P,U2,3,+_3*%
%TO.N,Net-(U2A-+)*%
X139970000Y-80805000D03*
%TO.P,U2,4,V-_4*%
%TO.N,GND*%
X142510000Y-80805000D03*
%TO.P,U2,5*%
%TO.N,N/C*%
X142510000Y-73185000D03*
%TO.P,U2,6*%
X139970000Y-73185000D03*
%TO.P,U2,7*%
X137430000Y-73185000D03*
%TO.P,U2,8,V+_8*%
%TO.N,Net-(U2C-V+)*%
X134890000Y-73185000D03*
%TD*%
D12*
%TO.P,U1,5,VIN_5*%
%TO.N,VCC*%
X120060000Y-96917500D03*
%TO.P,U1,4,EN_4*%
%TO.N,Net-(U1-EN)*%
X120060000Y-95017500D03*
%TO.P,U1,3,FB_3*%
%TO.N,Net-(U1-FB)*%
X122335000Y-95017500D03*
%TO.P,U1,2,GND_2*%
%TO.N,GND*%
X122335000Y-95967500D03*
%TO.P,U1,1,SW_1*%
%TO.N,Net-(D1-A)*%
X122335000Y-96917500D03*
%TD*%
D13*
%TO.P,C2,1*%
%TO.N,Net-(D1-K)*%
X116250000Y-109967500D03*
%TO.P,C2,2*%
%TO.N,GND*%
X107850000Y-109967500D03*
%TD*%
D14*
%TO.P,Q2,1,E_1*%
%TO.N,Net-(D1-K)*%
X125820000Y-113382500D03*
D15*
%TO.P,Q2,2,B_2*%
%TO.N,Net-(Q2-B)*%
X127090000Y-113382500D03*
%TO.P,Q2,3,C_3*%
%TO.N,Net-(Q1-G)*%
X128360000Y-113382500D03*
%TD*%
D16*
%TO.P,D1,1,K_1*%
%TO.N,Net-(D1-K)*%
X153600000Y-86967500D03*
D17*
%TO.P,D1,2,A_2*%
%TO.N,Net-(D1-A)*%
X140900000Y-86967500D03*
%TD*%
D18*
%TO.P,R9,1*%
%TO.N,Net-(Q1-D)*%
X134100000Y-125800000D03*
%TO.P,R9,2*%
%TO.N,Net-(Q2-B)*%
X126480000Y-125800000D03*
%TD*%
%TO.P,R6,1*%
%TO.N,Net-(U2A-+)*%
X130560000Y-79467500D03*
%TO.P,R6,2*%
%TO.N,Net-(J3-Pin_1)*%
X122940000Y-79467500D03*
%TD*%
D11*
%TO.P,R7,1*%
%TO.N,Net-(D1-K)*%
X109860000Y-120482500D03*
%TO.P,R7,2*%
%TO.N,Net-(Q1-D)*%
X122560000Y-120482500D03*
%TD*%
D18*
%TO.P,R5,1*%
%TO.N,Net-(U2A--)*%
X122940000Y-75967500D03*
%TO.P,R5,2*%
%TO.N,GND*%
X130560000Y-75967500D03*
%TD*%
%TO.P,R4,1*%
%TO.N,Net-(U2A--)*%
X122940000Y-72967500D03*
%TO.P,R4,2*%
%TO.N,Net-(L1-Pad1)*%
X130560000Y-72967500D03*
%TD*%
D11*
%TO.P,C1,1*%
%TO.N,Net-(D1-K)*%
X153750000Y-91967500D03*
%TO.P,C1,2*%
%TO.N,Net-(U1-FB)*%
X153750000Y-96967500D03*
%TD*%
%TO.P,R2,1*%
%TO.N,Net-(U2C-V+)*%
X123400000Y-86967500D03*
%TO.P,R2,2*%
%TO.N,Net-(L1-Pad1)*%
X136100000Y-86967500D03*
%TD*%
%TO.P,R8,1*%
%TO.N,Net-(Q1-D)*%
X122500000Y-124982500D03*
%TO.P,R8,2*%
%TO.N,Net-(D1-K)*%
X109800000Y-124982500D03*
%TD*%
D19*
%TO.P,SW2,1,1_1*%
%TO.N,Net-(U2C-V+)*%
X108750000Y-86467500D03*
%TO.P,SW2,2,2_2*%
%TO.N,unconnected-(SW2-Pad2)*%
X110750000Y-86467500D03*
%TO.P,SW2,3,3_3*%
%TO.N,VCC*%
X112750000Y-86467500D03*
%TO.P,SW2,4,4_4*%
%TO.N,Net-(L1-Pad1)*%
X116750000Y-86467500D03*
%TD*%
D11*
%TO.P,C4,1*%
%TO.N,Net-(D1-K)*%
X118675000Y-102825000D03*
%TO.P,C4,2*%
%TO.N,GND*%
X123675000Y-102825000D03*
%TD*%
D18*
%TO.P,R1,1*%
%TO.N,VCC*%
X107440000Y-92967500D03*
%TO.P,R1,2*%
%TO.N,Net-(U1-EN)*%
X115060000Y-92967500D03*
%TD*%
D20*
%TO.P,C3,1*%
%TO.N,Net-(U1-EN)*%
X112265113Y-99282500D03*
D11*
%TO.P,C3,2*%
%TO.N,GND*%
X109765113Y-99282500D03*
%TD*%
D21*
%TO.P,Q1,1,G_1*%
%TO.N,Net-(Q1-G)*%
X152560000Y-115532500D03*
D22*
%TO.P,Q1,2,D_2*%
%TO.N,Net-(Q1-D)*%
X152560000Y-118072500D03*
%TO.P,Q1,3,S_3*%
%TO.N,Net-(J2-Pin_1)*%
X152560000Y-120612500D03*
%TD*%
D18*
%TO.P,R11,1*%
%TO.N,Net-(Q1-G)*%
X126440000Y-119467500D03*
%TO.P,R11,2*%
%TO.N,Net-(D2-A)*%
X134060000Y-119467500D03*
%TD*%
D23*
%TO.P,J1,1,Pin_1_1*%
%TO.N,GND*%
X109750000Y-76967500D03*
D24*
%TO.P,J1,2,Pin_2_2*%
%TO.N,VCC*%
X114750000Y-76967500D03*
%TD*%
D25*
%TO.P,J3,1,Pin_1_1*%
%TO.N,Net-(J3-Pin_1)*%
X150250000Y-75467500D03*
D24*
%TO.P,J3,2,Pin_2_2*%
%TO.N,GND*%
X150250000Y-80467500D03*
%TD*%
D18*
%TO.P,R10,1*%
%TO.N,Net-(Q2-B)*%
X126440000Y-122467500D03*
%TO.P,R10,2*%
%TO.N,GND*%
X134060000Y-122467500D03*
%TD*%
D26*
%TO.P,D2,1,K_1*%
%TO.N,GND*%
X140560000Y-111900000D03*
D27*
%TO.P,D2,2,A_2*%
%TO.N,Net-(D2-A)*%
X140560000Y-114440000D03*
%TD*%
D18*
%TO.P,R3,1*%
%TO.N,Net-(U2C-V+)*%
X122940000Y-82967500D03*
%TO.P,R3,2*%
%TO.N,Net-(U2A-+)*%
X130560000Y-82967500D03*
%TD*%
D23*
%TO.P,J2,1,Pin_1_1*%
%TO.N,Net-(J2-Pin_1)*%
X140760000Y-122782500D03*
D24*
%TO.P,J2,2,Pin_2_2*%
%TO.N,GND*%
X145760000Y-122782500D03*
%TD*%
D28*
%TO.P,RV1,1,1_1*%
%TO.N,GND*%
X153660000Y-106682500D03*
%TO.P,RV1,2,2_2*%
%TO.N,Net-(U1-FB)*%
X153660000Y-104142500D03*
%TO.P,RV1,3,3_3*%
%TO.N,Net-(D1-K)*%
X153660000Y-101602500D03*
%TD*%
D29*
%TO.P,L1,2,2_2*%
%TO.N,Net-(D1-A)*%
X138250000Y-105717500D03*
%TO.P,L1,1,1_1*%
%TO.N,Net-(L1-Pad1)*%
X138250000Y-93217500D03*
%TD*%
D30*
%TO.N,Net-(Q1-G)*%
X138200000Y-116700000D03*
%TD*%
%TO.N,Net-(D1-A)*%
D31*
X122335000Y-96917500D02*
X129450000Y-96917500D01*
X129450000Y-96917500D02*
X138250000Y-105717500D01*
%TO.N,Net-(U1-FB)*%
X153750000Y-96967500D02*
X135467500Y-96967500D01*
X135467500Y-96967500D02*
X133517500Y-95017500D01*
X133517500Y-95017500D02*
X122335000Y-95017500D01*
%TO.N,GND*%
D32*
X142510000Y-80805000D02*
X137672500Y-75967500D01*
X137672500Y-75967500D02*
X130560000Y-75967500D01*
%TO.N,VCC*%
D31*
X120060000Y-96917500D02*
X117717500Y-96917500D01*
X107400000Y-95200000D02*
X107440000Y-95160000D01*
X116000000Y-95200000D02*
X107400000Y-95200000D01*
X117717500Y-96917500D02*
X116000000Y-95200000D01*
X107440000Y-95160000D02*
X107440000Y-92967500D01*
%TO.N,Net-(U2A--)*%
X134100000Y-77500000D02*
X135200000Y-78600000D01*
X124472500Y-77500000D02*
X134100000Y-77500000D01*
X122940000Y-75967500D02*
X124472500Y-77500000D01*
X135200000Y-78600000D02*
X135225000Y-78600000D01*
X135225000Y-78600000D02*
X137430000Y-80805000D01*
%TO.N,Net-(J3-Pin_1)*%
X134205000Y-80805000D02*
X131500000Y-78100000D01*
X134890000Y-80805000D02*
X134205000Y-80805000D01*
X131500000Y-78100000D02*
X124307500Y-78100000D01*
X124307500Y-78100000D02*
X122940000Y-79467500D01*
%TO.N,Net-(U1-EN)*%
X120060000Y-95017500D02*
X120060000Y-93060000D01*
X120060000Y-93060000D02*
X119967500Y-92967500D01*
X119967500Y-92967500D02*
X115060000Y-92967500D01*
%TO.N,Net-(D1-K)*%
X116250000Y-109967500D02*
X118675000Y-107542500D01*
X118675000Y-107542500D02*
X118675000Y-102825000D01*
X116250000Y-109967500D02*
X116250000Y-112250000D01*
X116250000Y-112250000D02*
X109860000Y-118640000D01*
X109860000Y-118640000D02*
X109860000Y-120482500D01*
%TO.N,Net-(Q1-G)*%
X136700000Y-116700000D02*
X133382500Y-113382500D01*
X133382500Y-113382500D02*
X128360000Y-113382500D01*
X138200000Y-116700000D02*
X136700000Y-116700000D01*
%TO.N,Net-(U2C-V+)*%
X122940000Y-82967500D02*
X112250000Y-82967500D01*
X112250000Y-82967500D02*
X108750000Y-86467500D01*
%TD*%
%TA.AperFunction,Conductor*%
%TO.N,GND*%
G36*
X159442539Y-70520185D02*
G01*
X159488294Y-70572989D01*
X159499500Y-70624500D01*
X159499500Y-129375500D01*
X159479815Y-129442539D01*
X159427011Y-129488294D01*
X159375500Y-129499500D01*
X100624500Y-129499500D01*
X100557461Y-129479815D01*
X100511706Y-129427011D01*
X100500500Y-129375500D01*
X100500500Y-124880148D01*
X108499500Y-124880148D01*
X108499500Y-125084851D01*
X108531522Y-125287034D01*
X108594781Y-125481723D01*
X108687715Y-125664113D01*
X108808028Y-125829713D01*
X108952786Y-125974471D01*
X109099576Y-126081118D01*
X109118390Y-126094787D01*
X109234607Y-126154003D01*
X109300776Y-126187718D01*
X109300778Y-126187718D01*
X109300781Y-126187720D01*
X109405137Y-126221627D01*
X109495465Y-126250977D01*
X109557687Y-126260832D01*
X109697648Y-126283000D01*
X109697649Y-126283000D01*
X109902351Y-126283000D01*
X109902352Y-126283000D01*
X110104534Y-126250977D01*
X110299219Y-126187720D01*
X110481610Y-126094787D01*
X110574590Y-126027232D01*
X110647213Y-125974471D01*
X110647215Y-125974468D01*
X110647219Y-125974466D01*
X110791966Y-125829719D01*
X110791968Y-125829715D01*
X110791971Y-125829713D01*
X110844732Y-125757090D01*
X110912287Y-125664110D01*
X111005220Y-125481719D01*
X111068477Y-125287034D01*
X111100500Y-125084852D01*
X111100500Y-124880148D01*
X121199500Y-124880148D01*
X121199500Y-125084851D01*
X121231522Y-125287034D01*
X121294781Y-125481723D01*
X121387715Y-125664113D01*
X121508028Y-125829713D01*
X121652786Y-125974471D01*
X121799576Y-126081118D01*
X121818390Y-126094787D01*
X121934607Y-126154003D01*
X122000776Y-126187718D01*
X122000778Y-126187718D01*
X122000781Y-126187720D01*
X122105137Y-126221627D01*
X122195465Y-126250977D01*
X122257687Y-126260832D01*
X122397648Y-126283000D01*
X122397649Y-126283000D01*
X122602351Y-126283000D01*
X122602352Y-126283000D01*
X122804534Y-126250977D01*
X122999219Y-126187720D01*
X123181610Y-126094787D01*
X123274590Y-126027232D01*
X123347213Y-125974471D01*
X123347215Y-125974468D01*
X123347219Y-125974466D01*
X123491966Y-125829719D01*
X123491968Y-125829715D01*
X123491971Y-125829713D01*
X123582206Y-125705513D01*
X125279500Y-125705513D01*
X125279500Y-125894486D01*
X125309059Y-126081118D01*
X125367454Y-126260836D01*
X125453240Y-126429199D01*
X125564310Y-126582073D01*
X125697927Y-126715690D01*
X125850801Y-126826760D01*
X125930347Y-126867290D01*
X126019163Y-126912545D01*
X126019165Y-126912545D01*
X126019168Y-126912547D01*
X126115497Y-126943846D01*
X126198881Y-126970940D01*
X126385514Y-127000500D01*
X126385519Y-127000500D01*
X126574486Y-127000500D01*
X126761118Y-126970940D01*
X126940832Y-126912547D01*
X127109199Y-126826760D01*
X127262073Y-126715690D01*
X127395690Y-126582073D01*
X127506760Y-126429199D01*
X127592547Y-126260832D01*
X127650940Y-126081118D01*
X127667832Y-125974466D01*
X127680500Y-125894486D01*
X127680500Y-125705513D01*
X132899500Y-125705513D01*
X132899500Y-125894486D01*
X132929059Y-126081118D01*
X132987454Y-126260836D01*
X133073240Y-126429199D01*
X133184310Y-126582073D01*
X133317927Y-126715690D01*
X133470801Y-126826760D01*
X133550347Y-126867290D01*
X133639163Y-126912545D01*
X133639165Y-126912545D01*
X133639168Y-126912547D01*
X133735497Y-126943846D01*
X133818881Y-126970940D01*
X134005514Y-127000500D01*
X134005519Y-127000500D01*
X134194486Y-127000500D01*
X134381118Y-126970940D01*
X134560832Y-126912547D01*
X134729199Y-126826760D01*
X134882073Y-126715690D01*
X135015690Y-126582073D01*
X135126760Y-126429199D01*
X135212547Y-126260832D01*
X135270940Y-126081118D01*
X135287832Y-125974466D01*
X135300500Y-125894486D01*
X135300500Y-125705513D01*
X135270940Y-125518881D01*
X135212545Y-125339163D01*
X135126759Y-125170800D01*
X135015690Y-125017927D01*
X134882073Y-124884310D01*
X134729199Y-124773240D01*
X134560836Y-124687454D01*
X134381118Y-124629059D01*
X134194486Y-124599500D01*
X134194481Y-124599500D01*
X134005519Y-124599500D01*
X134005514Y-124599500D01*
X133818881Y-124629059D01*
X133639163Y-124687454D01*
X133470800Y-124773240D01*
X133383579Y-124836610D01*
X133317927Y-124884310D01*
X133317925Y-124884312D01*
X133317924Y-124884312D01*
X133184312Y-125017924D01*
X133184312Y-125017925D01*
X133184310Y-125017927D01*
X133136610Y-125083579D01*
X133073240Y-125170800D01*
X132987454Y-125339163D01*
X132929059Y-125518881D01*
X132899500Y-125705513D01*
X127680500Y-125705513D01*
X127650940Y-125518881D01*
X127592545Y-125339163D01*
X127506759Y-125170800D01*
X127395690Y-125017927D01*
X127262073Y-124884310D01*
X127109199Y-124773240D01*
X126940836Y-124687454D01*
X126761118Y-124629059D01*
X126574486Y-124599500D01*
X126574481Y-124599500D01*
X126385519Y-124599500D01*
X126385514Y-124599500D01*
X126198881Y-124629059D01*
X126019163Y-124687454D01*
X125850800Y-124773240D01*
X125763579Y-124836610D01*
X125697927Y-124884310D01*
X125697925Y-124884312D01*
X125697924Y-124884312D01*
X125564312Y-125017924D01*
X125564312Y-125017925D01*
X125564310Y-125017927D01*
X125516610Y-125083579D01*
X125453240Y-125170800D01*
X125367454Y-125339163D01*
X125309059Y-125518881D01*
X125279500Y-125705513D01*
X123582206Y-125705513D01*
X123612284Y-125664114D01*
X123612285Y-125664113D01*
X123612287Y-125664110D01*
X123705220Y-125481719D01*
X123768477Y-125287034D01*
X123800500Y-125084852D01*
X123800500Y-124880148D01*
X123768477Y-124677966D01*
X123766700Y-124672498D01*
X123738441Y-124585526D01*
X123705220Y-124483281D01*
X123705218Y-124483278D01*
X123705218Y-124483276D01*
X123663375Y-124401155D01*
X123612287Y-124300890D01*
X123604556Y-124290249D01*
X123491971Y-124135286D01*
X123347213Y-123990528D01*
X123181613Y-123870215D01*
X123181612Y-123870214D01*
X123181610Y-123870213D01*
X123122983Y-123840341D01*
X122999223Y-123777281D01*
X122804534Y-123714022D01*
X122629995Y-123686378D01*
X122602352Y-123682000D01*
X122397648Y-123682000D01*
X122373329Y-123685851D01*
X122195465Y-123714022D01*
X122000776Y-123777281D01*
X121818386Y-123870215D01*
X121652786Y-123990528D01*
X121508028Y-124135286D01*
X121387715Y-124300886D01*
X121294781Y-124483276D01*
X121231522Y-124677965D01*
X121199500Y-124880148D01*
X111100500Y-124880148D01*
X111068477Y-124677966D01*
X111066700Y-124672498D01*
X111038441Y-124585526D01*
X111005220Y-124483281D01*
X111005218Y-124483278D01*
X111005218Y-124483276D01*
X110963375Y-124401155D01*
X110912287Y-124300890D01*
X110904556Y-124290249D01*
X110791971Y-124135286D01*
X110647213Y-123990528D01*
X110481613Y-123870215D01*
X110481612Y-123870214D01*
X110481610Y-123870213D01*
X110422983Y-123840341D01*
X110299223Y-123777281D01*
X110104534Y-123714022D01*
X109929995Y-123686378D01*
X109902352Y-123682000D01*
X109697648Y-123682000D01*
X109673329Y-123685851D01*
X109495465Y-123714022D01*
X109300776Y-123777281D01*
X109118386Y-123870215D01*
X108952786Y-123990528D01*
X108808028Y-124135286D01*
X108687715Y-124300886D01*
X108594781Y-124483276D01*
X108531522Y-124677965D01*
X108499500Y-124880148D01*
X100500500Y-124880148D01*
X100500500Y-122373013D01*
X125239500Y-122373013D01*
X125239500Y-122561986D01*
X125269059Y-122748618D01*
X125327454Y-122928336D01*
X125410025Y-123090390D01*
X125413240Y-123096699D01*
X125524310Y-123249573D01*
X125657927Y-123383190D01*
X125810801Y-123494260D01*
X125890347Y-123534790D01*
X125979163Y-123580045D01*
X125979165Y-123580045D01*
X125979168Y-123580047D01*
X126075497Y-123611346D01*
X126158881Y-123638440D01*
X126345514Y-123668000D01*
X126345519Y-123668000D01*
X126534486Y-123668000D01*
X126721118Y-123638440D01*
X126763565Y-123624648D01*
X126900832Y-123580047D01*
X127069199Y-123494260D01*
X127095182Y-123475382D01*
X133405669Y-123475382D01*
X133405670Y-123475383D01*
X133431059Y-123493829D01*
X133599362Y-123579585D01*
X133778997Y-123637951D01*
X133965553Y-123667500D01*
X134154447Y-123667500D01*
X134341002Y-123637951D01*
X134520637Y-123579585D01*
X134688937Y-123493831D01*
X134714328Y-123475383D01*
X134714328Y-123475382D01*
X134060001Y-122821054D01*
X134060000Y-122821054D01*
X133405669Y-123475382D01*
X127095182Y-123475382D01*
X127222073Y-123383190D01*
X127355690Y-123249573D01*
X127466760Y-123096699D01*
X127552547Y-122928332D01*
X127610940Y-122748618D01*
X127625298Y-122657966D01*
X127640500Y-122561986D01*
X127640500Y-122373052D01*
X132860000Y-122373052D01*
X132860000Y-122561947D01*
X132889548Y-122748502D01*
X132947914Y-122928137D01*
X133033666Y-123096433D01*
X133052116Y-123121828D01*
X133706446Y-122467500D01*
X133706446Y-122467499D01*
X133660369Y-122421422D01*
X133710000Y-122421422D01*
X133710000Y-122513578D01*
X133733852Y-122602595D01*
X133779930Y-122682405D01*
X133845095Y-122747570D01*
X133924905Y-122793648D01*
X134013922Y-122817500D01*
X134106078Y-122817500D01*
X134195095Y-122793648D01*
X134274905Y-122747570D01*
X134340070Y-122682405D01*
X134386148Y-122602595D01*
X134410000Y-122513578D01*
X134410000Y-122467499D01*
X134413554Y-122467499D01*
X134413554Y-122467500D01*
X135067882Y-123121828D01*
X135067883Y-123121828D01*
X135086331Y-123096437D01*
X135172085Y-122928137D01*
X135230451Y-122748502D01*
X135260000Y-122561947D01*
X135260000Y-122373052D01*
X135230451Y-122186497D01*
X135172085Y-122006862D01*
X135086329Y-121838559D01*
X135067883Y-121813170D01*
X135067882Y-121813169D01*
X134413554Y-122467499D01*
X134410000Y-122467499D01*
X134410000Y-122421422D01*
X134386148Y-122332405D01*
X134340070Y-122252595D01*
X134274905Y-122187430D01*
X134195095Y-122141352D01*
X134106078Y-122117500D01*
X134013922Y-122117500D01*
X133924905Y-122141352D01*
X133845095Y-122187430D01*
X133779930Y-122252595D01*
X133733852Y-122332405D01*
X133710000Y-122421422D01*
X133660369Y-122421422D01*
X133052116Y-121813169D01*
X133052116Y-121813170D01*
X133033669Y-121838560D01*
X132947914Y-122006862D01*
X132889548Y-122186497D01*
X132860000Y-122373052D01*
X127640500Y-122373052D01*
X127640500Y-122373013D01*
X127610940Y-122186381D01*
X127571663Y-122065500D01*
X127552547Y-122006668D01*
X127552545Y-122006665D01*
X127552545Y-122006663D01*
X127475379Y-121855217D01*
X127466760Y-121838301D01*
X127355690Y-121685427D01*
X127222073Y-121551810D01*
X127095179Y-121459616D01*
X133405669Y-121459616D01*
X134060000Y-122113946D01*
X134060001Y-122113946D01*
X134591461Y-121582484D01*
X138859500Y-121582484D01*
X138859500Y-123982515D01*
X138870000Y-124085295D01*
X138870001Y-124085296D01*
X138925186Y-124251835D01*
X138925187Y-124251837D01*
X139017286Y-124401151D01*
X139017289Y-124401155D01*
X139141344Y-124525210D01*
X139141348Y-124525213D01*
X139290662Y-124617312D01*
X139290664Y-124617313D01*
X139290666Y-124617314D01*
X139457203Y-124672499D01*
X139559992Y-124683000D01*
X139559997Y-124683000D01*
X141960003Y-124683000D01*
X141960008Y-124683000D01*
X142062797Y-124672499D01*
X142229334Y-124617314D01*
X142378655Y-124525211D01*
X142502711Y-124401155D01*
X142594814Y-124251834D01*
X142649999Y-124085297D01*
X142660500Y-123982508D01*
X142660500Y-122657966D01*
X143860000Y-122657966D01*
X143860000Y-122907033D01*
X143892508Y-123153963D01*
X143956973Y-123394549D01*
X144052283Y-123624648D01*
X144052288Y-123624659D01*
X144176813Y-123840341D01*
X144176819Y-123840349D01*
X144251400Y-123937545D01*
X145158958Y-123029987D01*
X145183978Y-123090390D01*
X145255112Y-123196851D01*
X145345649Y-123287388D01*
X145452110Y-123358522D01*
X145512511Y-123383541D01*
X144604953Y-124291098D01*
X144702150Y-124365680D01*
X144702158Y-124365686D01*
X144917840Y-124490211D01*
X144917851Y-124490216D01*
X145147950Y-124585526D01*
X145388536Y-124649991D01*
X145635466Y-124682500D01*
X145884534Y-124682500D01*
X146131463Y-124649991D01*
X146372049Y-124585526D01*
X146602148Y-124490216D01*
X146602159Y-124490211D01*
X146817855Y-124365678D01*
X146915045Y-124291100D01*
X146915045Y-124291097D01*
X146007488Y-123383541D01*
X146067890Y-123358522D01*
X146174351Y-123287388D01*
X146264888Y-123196851D01*
X146336022Y-123090390D01*
X146361041Y-123029988D01*
X147268597Y-123937545D01*
X147268600Y-123937545D01*
X147343178Y-123840355D01*
X147467711Y-123624659D01*
X147467716Y-123624648D01*
X147563026Y-123394549D01*
X147627491Y-123153963D01*
X147660000Y-122907033D01*
X147660000Y-122657966D01*
X147627491Y-122411036D01*
X147563026Y-122170450D01*
X147467716Y-121940351D01*
X147467711Y-121940340D01*
X147343186Y-121724658D01*
X147343180Y-121724650D01*
X147268598Y-121627453D01*
X146361041Y-122535010D01*
X146336022Y-122474610D01*
X146264888Y-122368149D01*
X146174351Y-122277612D01*
X146067890Y-122206478D01*
X146007487Y-122181457D01*
X146915045Y-121273900D01*
X146817849Y-121199319D01*
X146817841Y-121199313D01*
X146602159Y-121074788D01*
X146602148Y-121074783D01*
X146372049Y-120979473D01*
X146131463Y-120915008D01*
X145884534Y-120882500D01*
X145635466Y-120882500D01*
X145388536Y-120915008D01*
X145147950Y-120979473D01*
X144917851Y-121074783D01*
X144917847Y-121074785D01*
X144702143Y-121199323D01*
X144604953Y-121273899D01*
X144604953Y-121273900D01*
X145512511Y-122181458D01*
X145452110Y-122206478D01*
X145345649Y-122277612D01*
X145255112Y-122368149D01*
X145183978Y-122474610D01*
X145158958Y-122535011D01*
X144251400Y-121627453D01*
X144251399Y-121627453D01*
X144176823Y-121724643D01*
X144052285Y-121940347D01*
X144052283Y-121940351D01*
X143956973Y-122170450D01*
X143892508Y-122411036D01*
X143860000Y-122657966D01*
X142660500Y-122657966D01*
X142660500Y-121582492D01*
X142649999Y-121479703D01*
X142594814Y-121313166D01*
X142584872Y-121297048D01*
X142502713Y-121163848D01*
X142502710Y-121163844D01*
X142378655Y-121039789D01*
X142378651Y-121039786D01*
X142229337Y-120947687D01*
X142229335Y-120947686D01*
X142146065Y-120920093D01*
X142062797Y-120892501D01*
X142062795Y-120892500D01*
X141960015Y-120882000D01*
X141960008Y-120882000D01*
X139559992Y-120882000D01*
X139559984Y-120882000D01*
X139457204Y-120892500D01*
X139457203Y-120892501D01*
X139290664Y-120947686D01*
X139290662Y-120947687D01*
X139141348Y-121039786D01*
X139141344Y-121039789D01*
X139017289Y-121163844D01*
X139017286Y-121163848D01*
X138925187Y-121313162D01*
X138925186Y-121313164D01*
X138870001Y-121479703D01*
X138870000Y-121479704D01*
X138859500Y-121582484D01*
X134591461Y-121582484D01*
X134682291Y-121491654D01*
X134714328Y-121459616D01*
X134688933Y-121441166D01*
X134520637Y-121355414D01*
X134341002Y-121297048D01*
X134154447Y-121267500D01*
X133965553Y-121267500D01*
X133778997Y-121297048D01*
X133599362Y-121355414D01*
X133431060Y-121441169D01*
X133405670Y-121459616D01*
X133405669Y-121459616D01*
X127095179Y-121459616D01*
X127069199Y-121440740D01*
X126900836Y-121354954D01*
X126721118Y-121296559D01*
X126534486Y-121267000D01*
X126534481Y-121267000D01*
X126345519Y-121267000D01*
X126345514Y-121267000D01*
X126158881Y-121296559D01*
X125979163Y-121354954D01*
X125810800Y-121440740D01*
X125764381Y-121474466D01*
X125657927Y-121551810D01*
X125657925Y-121551812D01*
X125657924Y-121551812D01*
X125524312Y-121685424D01*
X125524312Y-121685425D01*
X125524310Y-121685427D01*
X125498622Y-121720783D01*
X125413240Y-121838300D01*
X125327454Y-122006663D01*
X125269059Y-122186381D01*
X125239500Y-122373013D01*
X100500500Y-122373013D01*
X100500500Y-120380148D01*
X108559500Y-120380148D01*
X108559500Y-120584851D01*
X108591522Y-120787034D01*
X108654781Y-120981723D01*
X108702201Y-121074788D01*
X108747577Y-121163844D01*
X108747715Y-121164113D01*
X108868028Y-121329713D01*
X109012786Y-121474471D01*
X109161456Y-121582484D01*
X109178390Y-121594787D01*
X109242501Y-121627453D01*
X109360776Y-121687718D01*
X109360778Y-121687718D01*
X109360781Y-121687720D01*
X109462538Y-121720783D01*
X109555465Y-121750977D01*
X109656557Y-121766988D01*
X109757648Y-121783000D01*
X109757649Y-121783000D01*
X109962351Y-121783000D01*
X109962352Y-121783000D01*
X110164534Y-121750977D01*
X110359219Y-121687720D01*
X110541610Y-121594787D01*
X110683562Y-121491654D01*
X110707213Y-121474471D01*
X110707215Y-121474468D01*
X110707219Y-121474466D01*
X110851966Y-121329719D01*
X110851968Y-121329715D01*
X110851971Y-121329713D01*
X110946706Y-121199319D01*
X110972287Y-121164110D01*
X111065220Y-120981719D01*
X111128477Y-120787034D01*
X111160500Y-120584852D01*
X111160500Y-120380148D01*
X121259500Y-120380148D01*
X121259500Y-120584851D01*
X121291522Y-120787034D01*
X121354781Y-120981723D01*
X121402201Y-121074788D01*
X121447577Y-121163844D01*
X121447715Y-121164113D01*
X121568028Y-121329713D01*
X121712786Y-121474471D01*
X121861456Y-121582484D01*
X121878390Y-121594787D01*
X121942501Y-121627453D01*
X122060776Y-121687718D01*
X122060778Y-121687718D01*
X122060781Y-121687720D01*
X122162538Y-121720783D01*
X122255465Y-121750977D01*
X122356557Y-121766988D01*
X122457648Y-121783000D01*
X122457649Y-121783000D01*
X122662351Y-121783000D01*
X122662352Y-121783000D01*
X122864534Y-121750977D01*
X123059219Y-121687720D01*
X123241610Y-121594787D01*
X123383562Y-121491654D01*
X123407213Y-121474471D01*
X123407215Y-121474468D01*
X123407219Y-121474466D01*
X123551966Y-121329719D01*
X123551968Y-121329715D01*
X123551971Y-121329713D01*
X123646706Y-121199319D01*
X123672287Y-121164110D01*
X123765220Y-120981719D01*
X123828477Y-120787034D01*
X123860500Y-120584852D01*
X123860500Y-120380148D01*
X123828477Y-120177966D01*
X123765220Y-119983281D01*
X123765218Y-119983278D01*
X123765218Y-119983276D01*
X123731503Y-119917107D01*
X123672287Y-119800890D01*
X123664556Y-119790249D01*
X123551971Y-119635286D01*
X123407217Y-119490532D01*
X123407212Y-119490528D01*
X123376868Y-119468481D01*
X123376845Y-119468466D01*
X123245464Y-119373013D01*
X125239500Y-119373013D01*
X125239500Y-119561986D01*
X125269059Y-119748618D01*
X125327454Y-119928336D01*
X125391862Y-120054742D01*
X125413240Y-120096699D01*
X125524310Y-120249573D01*
X125657927Y-120383190D01*
X125810801Y-120494260D01*
X125890347Y-120534790D01*
X125979163Y-120580045D01*
X125979165Y-120580045D01*
X125979168Y-120580047D01*
X126075497Y-120611346D01*
X126158881Y-120638440D01*
X126345514Y-120668000D01*
X126345519Y-120668000D01*
X126534486Y-120668000D01*
X126721118Y-120638440D01*
X126900832Y-120580047D01*
X127069199Y-120494260D01*
X127222073Y-120383190D01*
X127355690Y-120249573D01*
X127466760Y-120096699D01*
X127552547Y-119928332D01*
X127610940Y-119748618D01*
X127624036Y-119665932D01*
X127640500Y-119561986D01*
X127640500Y-119373013D01*
X132859500Y-119373013D01*
X132859500Y-119561986D01*
X132889059Y-119748618D01*
X132947454Y-119928336D01*
X133011862Y-120054742D01*
X133033240Y-120096699D01*
X133144310Y-120249573D01*
X133277927Y-120383190D01*
X133430801Y-120494260D01*
X133510347Y-120534790D01*
X133599163Y-120580045D01*
X133599165Y-120580045D01*
X133599168Y-120580047D01*
X133695497Y-120611346D01*
X133778881Y-120638440D01*
X133965514Y-120668000D01*
X133965519Y-120668000D01*
X134154486Y-120668000D01*
X134341118Y-120638440D01*
X134520832Y-120580047D01*
X134689199Y-120494260D01*
X134842073Y-120383190D01*
X134975690Y-120249573D01*
X135086760Y-120096699D01*
X135172547Y-119928332D01*
X135230940Y-119748618D01*
X135244036Y-119665932D01*
X135260500Y-119561986D01*
X135260500Y-119373013D01*
X135230940Y-119186381D01*
X135176576Y-119019068D01*
X135172547Y-119006668D01*
X135172545Y-119006665D01*
X135172545Y-119006663D01*
X135086759Y-118838300D01*
X134975690Y-118685427D01*
X134842073Y-118551810D01*
X134689199Y-118440740D01*
X134679266Y-118435679D01*
X134520836Y-118354954D01*
X134341118Y-118296559D01*
X134154486Y-118267000D01*
X134154481Y-118267000D01*
X133965519Y-118267000D01*
X133965514Y-118267000D01*
X133778881Y-118296559D01*
X133599163Y-118354954D01*
X133430800Y-118440740D01*
X133343579Y-118504110D01*
X133277927Y-118551810D01*
X133277925Y-118551812D01*
X133277924Y-118551812D01*
X133144312Y-118685424D01*
X133144312Y-118685425D01*
X133144310Y-118685427D01*
X133096610Y-118751079D01*
X133033240Y-118838300D01*
X132947454Y-119006663D01*
X132889059Y-119186381D01*
X132859500Y-119373013D01*
X127640500Y-119373013D01*
X127610940Y-119186381D01*
X127556576Y-119019068D01*
X127552547Y-119006668D01*
X127552545Y-119006665D01*
X127552545Y-119006663D01*
X127466759Y-118838300D01*
X127355690Y-118685427D01*
X127222073Y-118551810D01*
X127069199Y-118440740D01*
X127059266Y-118435679D01*
X126900836Y-118354954D01*
X126721118Y-118296559D01*
X126534486Y-118267000D01*
X126534481Y-118267000D01*
X126345519Y-118267000D01*
X126345514Y-118267000D01*
X126158881Y-118296559D01*
X125979163Y-118354954D01*
X125810800Y-118440740D01*
X125723579Y-118504110D01*
X125657927Y-118551810D01*
X125657925Y-118551812D01*
X125657924Y-118551812D01*
X125524312Y-118685424D01*
X125524312Y-118685425D01*
X125524310Y-118685427D01*
X125476610Y-118751079D01*
X125413240Y-118838300D01*
X125327454Y-119006663D01*
X125269059Y-119186381D01*
X125239500Y-119373013D01*
X123245464Y-119373013D01*
X123241609Y-119370212D01*
X123059223Y-119277281D01*
X122864534Y-119214022D01*
X122689995Y-119186378D01*
X122662352Y-119182000D01*
X122457648Y-119182000D01*
X122433329Y-119185851D01*
X122255465Y-119214022D01*
X122060776Y-119277281D01*
X121878386Y-119370215D01*
X121712786Y-119490528D01*
X121568028Y-119635286D01*
X121447715Y-119800886D01*
X121354781Y-119983276D01*
X121291522Y-120177965D01*
X121259500Y-120380148D01*
X111160500Y-120380148D01*
X111128477Y-120177966D01*
X111065220Y-119983281D01*
X111065218Y-119983278D01*
X111065218Y-119983276D01*
X111031503Y-119917107D01*
X110972287Y-119800890D01*
X110964556Y-119790249D01*
X110851971Y-119635286D01*
X110707217Y-119490532D01*
X110707212Y-119490528D01*
X110611615Y-119421073D01*
X110568949Y-119365743D01*
X110560500Y-119320755D01*
X110560500Y-118981519D01*
X110580185Y-118914480D01*
X110596819Y-118893838D01*
X116794112Y-112696545D01*
X116794114Y-112696543D01*
X116868888Y-112584635D01*
X124794500Y-112584635D01*
X124794500Y-114180370D01*
X124794501Y-114180376D01*
X124800908Y-114239983D01*
X124851202Y-114374828D01*
X124851206Y-114374835D01*
X124937452Y-114490044D01*
X124937455Y-114490047D01*
X125052664Y-114576293D01*
X125052671Y-114576297D01*
X125187517Y-114626591D01*
X125187516Y-114626591D01*
X125194444Y-114627335D01*
X125247127Y-114633000D01*
X126392872Y-114632999D01*
X126452483Y-114626591D01*
X126587331Y-114576296D01*
X126588430Y-114575472D01*
X126589717Y-114574992D01*
X126595112Y-114572047D01*
X126595535Y-114572822D01*
X126653887Y-114551052D01*
X126710198Y-114560173D01*
X126790873Y-114593591D01*
X126956777Y-114626591D01*
X126988992Y-114632999D01*
X126988996Y-114633000D01*
X126988997Y-114633000D01*
X127191004Y-114633000D01*
X127191005Y-114632999D01*
X127389127Y-114593591D01*
X127575756Y-114516286D01*
X127656110Y-114462594D01*
X127722786Y-114441717D01*
X127790166Y-114460201D01*
X127793865Y-114462578D01*
X127874244Y-114516286D01*
X127874245Y-114516286D01*
X127874246Y-114516287D01*
X127914962Y-114533152D01*
X128060873Y-114593591D01*
X128226777Y-114626591D01*
X128258992Y-114632999D01*
X128258996Y-114633000D01*
X128258997Y-114633000D01*
X128461004Y-114633000D01*
X128461005Y-114632999D01*
X128659127Y-114593591D01*
X128845756Y-114516286D01*
X129013718Y-114404058D01*
X129156558Y-114261218D01*
X129238816Y-114138108D01*
X129292427Y-114093304D01*
X129341918Y-114083000D01*
X133040981Y-114083000D01*
X133108020Y-114102685D01*
X133128662Y-114119319D01*
X136155886Y-117146542D01*
X136219632Y-117210288D01*
X136253459Y-117244115D01*
X136368182Y-117320771D01*
X136368189Y-117320775D01*
X136439952Y-117350500D01*
X136495671Y-117373580D01*
X136522591Y-117378934D01*
X136620073Y-117398325D01*
X136631006Y-117400500D01*
X136631007Y-117400500D01*
X137774684Y-117400500D01*
X137822136Y-117409939D01*
X137966498Y-117469735D01*
X137966503Y-117469737D01*
X138121153Y-117500499D01*
X138121156Y-117500500D01*
X138121158Y-117500500D01*
X138278844Y-117500500D01*
X138278845Y-117500499D01*
X138433497Y-117469737D01*
X138579179Y-117409394D01*
X138710289Y-117321789D01*
X138821789Y-117210289D01*
X138909394Y-117079179D01*
X138969737Y-116933497D01*
X139000500Y-116778842D01*
X139000500Y-116621158D01*
X139000500Y-116621155D01*
X139000499Y-116621153D01*
X138982939Y-116532873D01*
X138969737Y-116466503D01*
X138969735Y-116466498D01*
X138909397Y-116320827D01*
X138909390Y-116320814D01*
X138821789Y-116189711D01*
X138821786Y-116189707D01*
X138710292Y-116078213D01*
X138710288Y-116078210D01*
X138579185Y-115990609D01*
X138579172Y-115990602D01*
X138433501Y-115930264D01*
X138433489Y-115930261D01*
X138278845Y-115899500D01*
X138278842Y-115899500D01*
X138121158Y-115899500D01*
X138121155Y-115899500D01*
X137966510Y-115930261D01*
X137966498Y-115930264D01*
X137822136Y-115990061D01*
X137774684Y-115999500D01*
X137041518Y-115999500D01*
X136974479Y-115979815D01*
X136953837Y-115963181D01*
X135403244Y-114412587D01*
X135320435Y-114329778D01*
X139159500Y-114329778D01*
X139159500Y-114550222D01*
X139172611Y-114632999D01*
X139193985Y-114767952D01*
X139262103Y-114977603D01*
X139262104Y-114977606D01*
X139362187Y-115174025D01*
X139491752Y-115352358D01*
X139491756Y-115352363D01*
X139647636Y-115508243D01*
X139647641Y-115508247D01*
X139803192Y-115621260D01*
X139825978Y-115637815D01*
X139954375Y-115703237D01*
X140022393Y-115737895D01*
X140022396Y-115737896D01*
X140127221Y-115771955D01*
X140232049Y-115806015D01*
X140449778Y-115840500D01*
X140449779Y-115840500D01*
X140670221Y-115840500D01*
X140670222Y-115840500D01*
X140887951Y-115806015D01*
X141097606Y-115737895D01*
X141294022Y-115637815D01*
X141472365Y-115508242D01*
X141628242Y-115352365D01*
X141757815Y-115174022D01*
X141857895Y-114977606D01*
X141926015Y-114767951D01*
X141960500Y-114550222D01*
X141960500Y-114532135D01*
X151059500Y-114532135D01*
X151059500Y-116532870D01*
X151059501Y-116532876D01*
X151065908Y-116592483D01*
X151116202Y-116727328D01*
X151116206Y-116727335D01*
X151202452Y-116842544D01*
X151202455Y-116842547D01*
X151317664Y-116928793D01*
X151317669Y-116928796D01*
X151345539Y-116939190D01*
X151401473Y-116981061D01*
X151425891Y-117046524D01*
X151411040Y-117114798D01*
X151402526Y-117128256D01*
X151372212Y-117169980D01*
X151269783Y-117310961D01*
X151165950Y-117514744D01*
X151095278Y-117732250D01*
X151095278Y-117732253D01*
X151059500Y-117958146D01*
X151059500Y-118186853D01*
X151095278Y-118412746D01*
X151095278Y-118412749D01*
X151165950Y-118630255D01*
X151165952Y-118630258D01*
X151269783Y-118834038D01*
X151404214Y-119019066D01*
X151565934Y-119180786D01*
X151611681Y-119214023D01*
X151650438Y-119242182D01*
X151693103Y-119297513D01*
X151699082Y-119367126D01*
X151666476Y-119428921D01*
X151650438Y-119442818D01*
X151565932Y-119504215D01*
X151404216Y-119665931D01*
X151404216Y-119665932D01*
X151404214Y-119665934D01*
X151346480Y-119745396D01*
X151269783Y-119850961D01*
X151165950Y-120054744D01*
X151095278Y-120272250D01*
X151095278Y-120272253D01*
X151059500Y-120498146D01*
X151059500Y-120726853D01*
X151095278Y-120952746D01*
X151095278Y-120952749D01*
X151165950Y-121170255D01*
X151238765Y-121313162D01*
X151269783Y-121374038D01*
X151404214Y-121559066D01*
X151565934Y-121720786D01*
X151750962Y-121855217D01*
X151918039Y-121940347D01*
X151954744Y-121959049D01*
X152172251Y-122029721D01*
X152172252Y-122029721D01*
X152172255Y-122029722D01*
X152398146Y-122065500D01*
X152398147Y-122065500D01*
X152721853Y-122065500D01*
X152721854Y-122065500D01*
X152947745Y-122029722D01*
X152947748Y-122029721D01*
X152947749Y-122029721D01*
X153165255Y-121959049D01*
X153165255Y-121959048D01*
X153165258Y-121959048D01*
X153369038Y-121855217D01*
X153554066Y-121720786D01*
X153715786Y-121559066D01*
X153850217Y-121374038D01*
X153954048Y-121170258D01*
X154024722Y-120952745D01*
X154060500Y-120726854D01*
X154060500Y-120498146D01*
X154024722Y-120272255D01*
X154024721Y-120272251D01*
X154024721Y-120272250D01*
X153954049Y-120054744D01*
X153850216Y-119850961D01*
X153813837Y-119800890D01*
X153715786Y-119665934D01*
X153554066Y-119504214D01*
X153469559Y-119442816D01*
X153426896Y-119387488D01*
X153420917Y-119317875D01*
X153453523Y-119256080D01*
X153469556Y-119242185D01*
X153554066Y-119180786D01*
X153715786Y-119019066D01*
X153850217Y-118834038D01*
X153954048Y-118630258D01*
X154015626Y-118440740D01*
X154024721Y-118412749D01*
X154024721Y-118412748D01*
X154024722Y-118412745D01*
X154060500Y-118186854D01*
X154060500Y-117958146D01*
X154024722Y-117732255D01*
X154024721Y-117732251D01*
X154024721Y-117732250D01*
X153954049Y-117514744D01*
X153900372Y-117409397D01*
X153850217Y-117310962D01*
X153717472Y-117128255D01*
X153693994Y-117062453D01*
X153709819Y-116994399D01*
X153759925Y-116945704D01*
X153774455Y-116939192D01*
X153802331Y-116928796D01*
X153917546Y-116842546D01*
X154003796Y-116727331D01*
X154054091Y-116592483D01*
X154060500Y-116532873D01*
X154060499Y-114532128D01*
X154054091Y-114472517D01*
X154050390Y-114462595D01*
X154003797Y-114337671D01*
X154003793Y-114337664D01*
X153917547Y-114222455D01*
X153917544Y-114222452D01*
X153802335Y-114136206D01*
X153802328Y-114136202D01*
X153667482Y-114085908D01*
X153667483Y-114085908D01*
X153607883Y-114079501D01*
X153607881Y-114079500D01*
X153607873Y-114079500D01*
X153607864Y-114079500D01*
X151512129Y-114079500D01*
X151512123Y-114079501D01*
X151452516Y-114085908D01*
X151317671Y-114136202D01*
X151317664Y-114136206D01*
X151202455Y-114222452D01*
X151202452Y-114222455D01*
X151116206Y-114337664D01*
X151116202Y-114337671D01*
X151065908Y-114472517D01*
X151061203Y-114516286D01*
X151059501Y-114532123D01*
X151059500Y-114532135D01*
X141960500Y-114532135D01*
X141960500Y-114329778D01*
X141926015Y-114112049D01*
X141857895Y-113902394D01*
X141857895Y-113902393D01*
X141823237Y-113834375D01*
X141757815Y-113705978D01*
X141741260Y-113683192D01*
X141628247Y-113527641D01*
X141628243Y-113527636D01*
X141577683Y-113477076D01*
X141544198Y-113415753D01*
X141549182Y-113346061D01*
X141591054Y-113290128D01*
X141622031Y-113273213D01*
X141702086Y-113243354D01*
X141702093Y-113243350D01*
X141817187Y-113157190D01*
X141817190Y-113157187D01*
X141903350Y-113042093D01*
X141903354Y-113042086D01*
X141953596Y-112907379D01*
X141953598Y-112907372D01*
X141959999Y-112847844D01*
X141960000Y-112847827D01*
X141960000Y-112150000D01*
X140935278Y-112150000D01*
X140979333Y-112073694D01*
X141010000Y-111959244D01*
X141010000Y-111840756D01*
X140979333Y-111726306D01*
X140935278Y-111650000D01*
X141960000Y-111650000D01*
X141960000Y-110952172D01*
X141959999Y-110952155D01*
X141953598Y-110892627D01*
X141953596Y-110892620D01*
X141903354Y-110757913D01*
X141903350Y-110757906D01*
X141817190Y-110642812D01*
X141817187Y-110642809D01*
X141702093Y-110556649D01*
X141702086Y-110556645D01*
X141567379Y-110506403D01*
X141567372Y-110506401D01*
X141507844Y-110500000D01*
X140810000Y-110500000D01*
X140810000Y-111524722D01*
X140733694Y-111480667D01*
X140619244Y-111450000D01*
X140500756Y-111450000D01*
X140386306Y-111480667D01*
X140310000Y-111524722D01*
X140310000Y-110500000D01*
X139612155Y-110500000D01*
X139552627Y-110506401D01*
X139552620Y-110506403D01*
X139417913Y-110556645D01*
X139417906Y-110556649D01*
X139302812Y-110642809D01*
X139302809Y-110642812D01*
X139216649Y-110757906D01*
X139216645Y-110757913D01*
X139166403Y-110892620D01*
X139166401Y-110892627D01*
X139160000Y-110952155D01*
X139160000Y-111650000D01*
X140184722Y-111650000D01*
X140140667Y-111726306D01*
X140110000Y-111840756D01*
X140110000Y-111959244D01*
X140140667Y-112073694D01*
X140184722Y-112150000D01*
X139160000Y-112150000D01*
X139160000Y-112847844D01*
X139166401Y-112907372D01*
X139166403Y-112907379D01*
X139216645Y-113042086D01*
X139216649Y-113042093D01*
X139302809Y-113157187D01*
X139302812Y-113157190D01*
X139417906Y-113243350D01*
X139417913Y-113243354D01*
X139497968Y-113273213D01*
X139553902Y-113315084D01*
X139578319Y-113380549D01*
X139563467Y-113448822D01*
X139542317Y-113477075D01*
X139491756Y-113527636D01*
X139491752Y-113527641D01*
X139362187Y-113705974D01*
X139262104Y-113902393D01*
X139262103Y-113902396D01*
X139193985Y-114112047D01*
X139159500Y-114329778D01*
X135320435Y-114329778D01*
X133829046Y-112838388D01*
X133829045Y-112838387D01*
X133714307Y-112761722D01*
X133586832Y-112708921D01*
X133586822Y-112708918D01*
X133451496Y-112682000D01*
X133451494Y-112682000D01*
X133451493Y-112682000D01*
X129341918Y-112682000D01*
X129274879Y-112662315D01*
X129238816Y-112626891D01*
X129156558Y-112503782D01*
X129156556Y-112503779D01*
X129013718Y-112360941D01*
X128845762Y-112248717D01*
X128845752Y-112248712D01*
X128659127Y-112171409D01*
X128659119Y-112171407D01*
X128461007Y-112132000D01*
X128461003Y-112132000D01*
X128258997Y-112132000D01*
X128258992Y-112132000D01*
X128060880Y-112171407D01*
X128060872Y-112171409D01*
X127874244Y-112248713D01*
X127793891Y-112302404D01*
X127727213Y-112323282D01*
X127659833Y-112304797D01*
X127656109Y-112302404D01*
X127575755Y-112248713D01*
X127389127Y-112171409D01*
X127389119Y-112171407D01*
X127191007Y-112132000D01*
X127191003Y-112132000D01*
X126988997Y-112132000D01*
X126988992Y-112132000D01*
X126790880Y-112171407D01*
X126790868Y-112171410D01*
X126710198Y-112204825D01*
X126640729Y-112212294D01*
X126595342Y-112192536D01*
X126595114Y-112192954D01*
X126590447Y-112190405D01*
X126588432Y-112189528D01*
X126587331Y-112188704D01*
X126587330Y-112188703D01*
X126587328Y-112188702D01*
X126452482Y-112138408D01*
X126452483Y-112138408D01*
X126392883Y-112132001D01*
X126392881Y-112132000D01*
X126392873Y-112132000D01*
X126392864Y-112132000D01*
X125247129Y-112132000D01*
X125247123Y-112132001D01*
X125187516Y-112138408D01*
X125052671Y-112188702D01*
X125052664Y-112188706D01*
X124937455Y-112274952D01*
X124937452Y-112274955D01*
X124851206Y-112390164D01*
X124851202Y-112390171D01*
X124800908Y-112525017D01*
X124794501Y-112584616D01*
X124794500Y-112584635D01*
X116868888Y-112584635D01*
X116870775Y-112581811D01*
X116923580Y-112454328D01*
X116942156Y-112360941D01*
X116950500Y-112318996D01*
X116950500Y-111841999D01*
X116970185Y-111774960D01*
X117022989Y-111729205D01*
X117074500Y-111717999D01*
X118250002Y-111717999D01*
X118250008Y-111717999D01*
X118352797Y-111707499D01*
X118519334Y-111652314D01*
X118668656Y-111560212D01*
X118792712Y-111436156D01*
X118884814Y-111286834D01*
X118939999Y-111120297D01*
X118950500Y-111017509D01*
X118950499Y-108917492D01*
X118939999Y-108814703D01*
X118884814Y-108648166D01*
X118812366Y-108530708D01*
X118793926Y-108463316D01*
X118814849Y-108396652D01*
X118830214Y-108377942D01*
X119219114Y-107989043D01*
X119295775Y-107874311D01*
X119348580Y-107746828D01*
X119375500Y-107611494D01*
X119375500Y-107473506D01*
X119375500Y-103986744D01*
X119375985Y-103985091D01*
X119375544Y-103983424D01*
X119385795Y-103951681D01*
X119395185Y-103919705D01*
X119396656Y-103918051D01*
X119397017Y-103916936D01*
X119404700Y-103909015D01*
X119420835Y-103890891D01*
X119423663Y-103888569D01*
X119522219Y-103816966D01*
X119666966Y-103672219D01*
X119666968Y-103672215D01*
X119666971Y-103672213D01*
X119719732Y-103599590D01*
X119787287Y-103506610D01*
X119880220Y-103324219D01*
X119943477Y-103129534D01*
X119975500Y-102927352D01*
X119975500Y-102722682D01*
X122375000Y-102722682D01*
X122375000Y-102927317D01*
X122407009Y-103129417D01*
X122470244Y-103324031D01*
X122563141Y-103506350D01*
X122563147Y-103506359D01*
X122595523Y-103550921D01*
X122595524Y-103550922D01*
X123275000Y-102871446D01*
X123275000Y-102877661D01*
X123302259Y-102979394D01*
X123354920Y-103070606D01*
X123429394Y-103145080D01*
X123520606Y-103197741D01*
X123622339Y-103225000D01*
X123628553Y-103225000D01*
X122949076Y-103904474D01*
X122993650Y-103936859D01*
X123175968Y-104029755D01*
X123370582Y-104092990D01*
X123572683Y-104125000D01*
X123777317Y-104125000D01*
X123979417Y-104092990D01*
X124174031Y-104029755D01*
X124356349Y-103936859D01*
X124400921Y-103904474D01*
X123721447Y-103225000D01*
X123727661Y-103225000D01*
X123829394Y-103197741D01*
X123920606Y-103145080D01*
X123995080Y-103070606D01*
X124047741Y-102979394D01*
X124075000Y-102877661D01*
X124075000Y-102871447D01*
X124754474Y-103550921D01*
X124786859Y-103506349D01*
X124879755Y-103324031D01*
X124942990Y-103129417D01*
X124975000Y-102927317D01*
X124975000Y-102722682D01*
X124942990Y-102520582D01*
X124879755Y-102325968D01*
X124786859Y-102143650D01*
X124754474Y-102099077D01*
X124754474Y-102099076D01*
X124075000Y-102778551D01*
X124075000Y-102772339D01*
X124047741Y-102670606D01*
X123995080Y-102579394D01*
X123920606Y-102504920D01*
X123829394Y-102452259D01*
X123727661Y-102425000D01*
X123721446Y-102425000D01*
X124400922Y-101745524D01*
X124400921Y-101745523D01*
X124356359Y-101713147D01*
X124356350Y-101713141D01*
X124174031Y-101620244D01*
X123979417Y-101557009D01*
X123777317Y-101525000D01*
X123572683Y-101525000D01*
X123370582Y-101557009D01*
X123175968Y-101620244D01*
X122993644Y-101713143D01*
X122949077Y-101745523D01*
X122949077Y-101745524D01*
X123628554Y-102425000D01*
X123622339Y-102425000D01*
X123520606Y-102452259D01*
X123429394Y-102504920D01*
X123354920Y-102579394D01*
X123302259Y-102670606D01*
X123275000Y-102772339D01*
X123275000Y-102778553D01*
X122595524Y-102099077D01*
X122595523Y-102099077D01*
X122563143Y-102143644D01*
X122470244Y-102325968D01*
X122407009Y-102520582D01*
X122375000Y-102722682D01*
X119975500Y-102722682D01*
X119975500Y-102722648D01*
X119963418Y-102646364D01*
X119943477Y-102520465D01*
X119903556Y-102397602D01*
X119880220Y-102325781D01*
X119880218Y-102325778D01*
X119880218Y-102325776D01*
X119846503Y-102259607D01*
X119787287Y-102143390D01*
X119755092Y-102099077D01*
X119666971Y-101977786D01*
X119522213Y-101833028D01*
X119356613Y-101712715D01*
X119356612Y-101712714D01*
X119356610Y-101712713D01*
X119299653Y-101683691D01*
X119174223Y-101619781D01*
X118979534Y-101556522D01*
X118804995Y-101528878D01*
X118777352Y-101524500D01*
X118572648Y-101524500D01*
X118548329Y-101528351D01*
X118370465Y-101556522D01*
X118175776Y-101619781D01*
X117993386Y-101712715D01*
X117827786Y-101833028D01*
X117683028Y-101977786D01*
X117562715Y-102143386D01*
X117469781Y-102325776D01*
X117406522Y-102520465D01*
X117374500Y-102722648D01*
X117374500Y-102927351D01*
X117406522Y-103129534D01*
X117469781Y-103324223D01*
X117533691Y-103449653D01*
X117562585Y-103506359D01*
X117562715Y-103506613D01*
X117683028Y-103672213D01*
X117827784Y-103816969D01*
X117923385Y-103886426D01*
X117966051Y-103941755D01*
X117974500Y-103986744D01*
X117974500Y-107200980D01*
X117954815Y-107268019D01*
X117938181Y-107288661D01*
X117046161Y-108180681D01*
X116984838Y-108214166D01*
X116958480Y-108217000D01*
X114249998Y-108217000D01*
X114249981Y-108217001D01*
X114147203Y-108227500D01*
X114147200Y-108227501D01*
X113980668Y-108282685D01*
X113980663Y-108282687D01*
X113831342Y-108374789D01*
X113707289Y-108498842D01*
X113615187Y-108648163D01*
X113615185Y-108648168D01*
X113615115Y-108648380D01*
X113560001Y-108814703D01*
X113560001Y-108814704D01*
X113560000Y-108814704D01*
X113549500Y-108917483D01*
X113549500Y-111017501D01*
X113549501Y-111017518D01*
X113560000Y-111120296D01*
X113560001Y-111120299D01*
X113615115Y-111286619D01*
X113615186Y-111286834D01*
X113707288Y-111436156D01*
X113831344Y-111560212D01*
X113980666Y-111652314D01*
X114147203Y-111707499D01*
X114249991Y-111718000D01*
X115425500Y-111717999D01*
X115434185Y-111720549D01*
X115443147Y-111719261D01*
X115467187Y-111730239D01*
X115492539Y-111737684D01*
X115498466Y-111744524D01*
X115506703Y-111748286D01*
X115520990Y-111770518D01*
X115538294Y-111790487D01*
X115540581Y-111801002D01*
X115544477Y-111807064D01*
X115549500Y-111841999D01*
X115549500Y-111908480D01*
X115529815Y-111975519D01*
X115513181Y-111996161D01*
X109315888Y-118193453D01*
X109315887Y-118193454D01*
X109239222Y-118308192D01*
X109186421Y-118435667D01*
X109186418Y-118435679D01*
X109163319Y-118551807D01*
X109163318Y-118551812D01*
X109159500Y-118571002D01*
X109159500Y-119320755D01*
X109139815Y-119387794D01*
X109108385Y-119421073D01*
X109012787Y-119490528D01*
X109012782Y-119490532D01*
X108868028Y-119635286D01*
X108747715Y-119800886D01*
X108654781Y-119983276D01*
X108591522Y-120177965D01*
X108559500Y-120380148D01*
X100500500Y-120380148D01*
X100500500Y-111017486D01*
X105150001Y-111017486D01*
X105160494Y-111120197D01*
X105215641Y-111286619D01*
X105215643Y-111286624D01*
X105307684Y-111435845D01*
X105431654Y-111559815D01*
X105580875Y-111651856D01*
X105580880Y-111651858D01*
X105747302Y-111707005D01*
X105747309Y-111707006D01*
X105850019Y-111717499D01*
X107599999Y-111717499D01*
X108100000Y-111717499D01*
X109849972Y-111717499D01*
X109849986Y-111717498D01*
X109952697Y-111707005D01*
X110119119Y-111651858D01*
X110119124Y-111651856D01*
X110268345Y-111559815D01*
X110392315Y-111435845D01*
X110484356Y-111286624D01*
X110484358Y-111286619D01*
X110539505Y-111120197D01*
X110539506Y-111120190D01*
X110549999Y-111017486D01*
X110550000Y-111017473D01*
X110550000Y-110217500D01*
X108100000Y-110217500D01*
X108100000Y-111717499D01*
X107599999Y-111717499D01*
X107600000Y-111717498D01*
X107600000Y-110217500D01*
X105150001Y-110217500D01*
X105150001Y-111017486D01*
X100500500Y-111017486D01*
X100500500Y-108917513D01*
X105150000Y-108917513D01*
X105150000Y-109717500D01*
X107600000Y-109717500D01*
X108100000Y-109717500D01*
X110549999Y-109717500D01*
X110549999Y-108917528D01*
X110549998Y-108917513D01*
X110539505Y-108814802D01*
X110484358Y-108648380D01*
X110484356Y-108648375D01*
X110392315Y-108499154D01*
X110268345Y-108375184D01*
X110119124Y-108283143D01*
X110119119Y-108283141D01*
X109952697Y-108227994D01*
X109952690Y-108227993D01*
X109849986Y-108217500D01*
X108100000Y-108217500D01*
X108100000Y-109717500D01*
X107600000Y-109717500D01*
X107600000Y-108217500D01*
X105850028Y-108217500D01*
X105850012Y-108217501D01*
X105747302Y-108227994D01*
X105580880Y-108283141D01*
X105580875Y-108283143D01*
X105431654Y-108375184D01*
X105307684Y-108499154D01*
X105215643Y-108648375D01*
X105215641Y-108648380D01*
X105160494Y-108814802D01*
X105160493Y-108814809D01*
X105150000Y-108917513D01*
X100500500Y-108917513D01*
X100500500Y-99180182D01*
X108465113Y-99180182D01*
X108465113Y-99384817D01*
X108497122Y-99586917D01*
X108560357Y-99781531D01*
X108653254Y-99963850D01*
X108653260Y-99963859D01*
X108685636Y-100008421D01*
X108685637Y-100008422D01*
X109365113Y-99328946D01*
X109365113Y-99335161D01*
X109392372Y-99436894D01*
X109445033Y-99528106D01*
X109519507Y-99602580D01*
X109610719Y-99655241D01*
X109712452Y-99682500D01*
X109718666Y-99682500D01*
X109039189Y-100361974D01*
X109083763Y-100394359D01*
X109266081Y-100487255D01*
X109460695Y-100550490D01*
X109662796Y-100582500D01*
X109867430Y-100582500D01*
X110069530Y-100550490D01*
X110264144Y-100487255D01*
X110446462Y-100394359D01*
X110491034Y-100361974D01*
X109811560Y-99682500D01*
X109817774Y-99682500D01*
X109919507Y-99655241D01*
X110010719Y-99602580D01*
X110085193Y-99528106D01*
X110137854Y-99436894D01*
X110165113Y-99335161D01*
X110165113Y-99328948D01*
X110844586Y-100008421D01*
X110882393Y-100005446D01*
X110950771Y-100019810D01*
X111000528Y-100068861D01*
X111009827Y-100090056D01*
X111030299Y-100151834D01*
X111122401Y-100301156D01*
X111246457Y-100425212D01*
X111395779Y-100517314D01*
X111562316Y-100572499D01*
X111665104Y-100583000D01*
X112865121Y-100582999D01*
X112967910Y-100572499D01*
X113134447Y-100517314D01*
X113283769Y-100425212D01*
X113407825Y-100301156D01*
X113499927Y-100151834D01*
X113555112Y-99985297D01*
X113565613Y-99882509D01*
X113565612Y-98682492D01*
X113555112Y-98579703D01*
X113499927Y-98413166D01*
X113407825Y-98263844D01*
X113283769Y-98139788D01*
X113134447Y-98047686D01*
X112967910Y-97992501D01*
X112967908Y-97992500D01*
X112865123Y-97982000D01*
X111665111Y-97982000D01*
X111665094Y-97982001D01*
X111562316Y-97992500D01*
X111562313Y-97992501D01*
X111395781Y-98047685D01*
X111395776Y-98047687D01*
X111246455Y-98139789D01*
X111122402Y-98263842D01*
X111030300Y-98413163D01*
X111030298Y-98413168D01*
X111009830Y-98474938D01*
X110970057Y-98532383D01*
X110905541Y-98559206D01*
X110882396Y-98559552D01*
X110844587Y-98556576D01*
X110165113Y-99236051D01*
X110165113Y-99229839D01*
X110137854Y-99128106D01*
X110085193Y-99036894D01*
X110010719Y-98962420D01*
X109919507Y-98909759D01*
X109817774Y-98882500D01*
X109811559Y-98882500D01*
X110491035Y-98203024D01*
X110491034Y-98203023D01*
X110446472Y-98170647D01*
X110446463Y-98170641D01*
X110264144Y-98077744D01*
X110069530Y-98014509D01*
X109867430Y-97982500D01*
X109662796Y-97982500D01*
X109460695Y-98014509D01*
X109266081Y-98077744D01*
X109083757Y-98170643D01*
X109039190Y-98203023D01*
X109039190Y-98203024D01*
X109718667Y-98882500D01*
X109712452Y-98882500D01*
X109610719Y-98909759D01*
X109519507Y-98962420D01*
X109445033Y-99036894D01*
X109392372Y-99128106D01*
X109365113Y-99229839D01*
X109365113Y-99236053D01*
X108685637Y-98556577D01*
X108685636Y-98556577D01*
X108653256Y-98601144D01*
X108560357Y-98783468D01*
X108497122Y-98978082D01*
X108465113Y-99180182D01*
X100500500Y-99180182D01*
X100500500Y-92873013D01*
X106239500Y-92873013D01*
X106239500Y-93061986D01*
X106269059Y-93248618D01*
X106327454Y-93428336D01*
X106396400Y-93563648D01*
X106413240Y-93596699D01*
X106524310Y-93749573D01*
X106657927Y-93883190D01*
X106657928Y-93883191D01*
X106657927Y-93883191D01*
X106678442Y-93898095D01*
X106688383Y-93905318D01*
X106731050Y-93960647D01*
X106739500Y-94005637D01*
X106739500Y-94939427D01*
X106730062Y-94986877D01*
X106726421Y-94995666D01*
X106726419Y-94995673D01*
X106699500Y-95131003D01*
X106699500Y-95131006D01*
X106699500Y-95268994D01*
X106699500Y-95268996D01*
X106699499Y-95268996D01*
X106726418Y-95404322D01*
X106726421Y-95404332D01*
X106779222Y-95531807D01*
X106855887Y-95646545D01*
X106953454Y-95744112D01*
X107068192Y-95820777D01*
X107195667Y-95873578D01*
X107195672Y-95873580D01*
X107195676Y-95873580D01*
X107195677Y-95873581D01*
X107331003Y-95900500D01*
X107331006Y-95900500D01*
X107331007Y-95900500D01*
X115658481Y-95900500D01*
X115725520Y-95920185D01*
X115746162Y-95936819D01*
X117270953Y-97461611D01*
X117270954Y-97461612D01*
X117385692Y-97538277D01*
X117506390Y-97588271D01*
X117513172Y-97591080D01*
X117513176Y-97591080D01*
X117513177Y-97591081D01*
X117648503Y-97618000D01*
X117648506Y-97618000D01*
X117648507Y-97618000D01*
X119166531Y-97618000D01*
X119229651Y-97635267D01*
X119287102Y-97669244D01*
X119328724Y-97681336D01*
X119444926Y-97715097D01*
X119444929Y-97715097D01*
X119444931Y-97715098D01*
X119481806Y-97718000D01*
X119481814Y-97718000D01*
X120638186Y-97718000D01*
X120638194Y-97718000D01*
X120675069Y-97715098D01*
X120675071Y-97715097D01*
X120675073Y-97715097D01*
X120769424Y-97687685D01*
X120832898Y-97669244D01*
X120974365Y-97585581D01*
X121090581Y-97469365D01*
X121090767Y-97469049D01*
X121090977Y-97468853D01*
X121095361Y-97463202D01*
X121096272Y-97463909D01*
X121141836Y-97421366D01*
X121210577Y-97408862D01*
X121275167Y-97435506D01*
X121299355Y-97463421D01*
X121299639Y-97463202D01*
X121303679Y-97468411D01*
X121304232Y-97469048D01*
X121304419Y-97469365D01*
X121304421Y-97469367D01*
X121304423Y-97469370D01*
X121420629Y-97585576D01*
X121420633Y-97585579D01*
X121420635Y-97585581D01*
X121562102Y-97669244D01*
X121603724Y-97681336D01*
X121719926Y-97715097D01*
X121719929Y-97715097D01*
X121719931Y-97715098D01*
X121756806Y-97718000D01*
X121756814Y-97718000D01*
X122913186Y-97718000D01*
X122913194Y-97718000D01*
X122950069Y-97715098D01*
X122950071Y-97715097D01*
X122950073Y-97715097D01*
X123044424Y-97687685D01*
X123107898Y-97669244D01*
X123165348Y-97635267D01*
X123228469Y-97618000D01*
X129108481Y-97618000D01*
X129175520Y-97637685D01*
X129196162Y-97654319D01*
X136546174Y-105004330D01*
X136579659Y-105065653D01*
X136574675Y-105135345D01*
X136573056Y-105139458D01*
X136569869Y-105147150D01*
X136569864Y-105147167D01*
X136509793Y-105371353D01*
X136479500Y-105601447D01*
X136479500Y-105833552D01*
X136509794Y-106063648D01*
X136569862Y-106287828D01*
X136658677Y-106502245D01*
X136658685Y-106502262D01*
X136774720Y-106703243D01*
X136774721Y-106703245D01*
X136916009Y-106887375D01*
X136916015Y-106887382D01*
X137080117Y-107051484D01*
X137080124Y-107051490D01*
X137264254Y-107192778D01*
X137264256Y-107192779D01*
X137465237Y-107308814D01*
X137465240Y-107308815D01*
X137465248Y-107308820D01*
X137679670Y-107397637D01*
X137903851Y-107457706D01*
X138133955Y-107488000D01*
X138133962Y-107488000D01*
X138366038Y-107488000D01*
X138366045Y-107488000D01*
X138596149Y-107457706D01*
X138820330Y-107397637D01*
X139034752Y-107308820D01*
X139235748Y-107192776D01*
X139419877Y-107051489D01*
X139583989Y-106887377D01*
X139725276Y-106703248D01*
X139841320Y-106502252D01*
X139930137Y-106287830D01*
X139990206Y-106063649D01*
X140020500Y-105833545D01*
X140020500Y-105601455D01*
X139990206Y-105371351D01*
X139930137Y-105147170D01*
X139841320Y-104932748D01*
X139841314Y-104932737D01*
X139725279Y-104731756D01*
X139725278Y-104731754D01*
X139583990Y-104547624D01*
X139583984Y-104547617D01*
X139419882Y-104383515D01*
X139419875Y-104383509D01*
X139235745Y-104242221D01*
X139235743Y-104242220D01*
X139034762Y-104126185D01*
X139034754Y-104126181D01*
X139034752Y-104126180D01*
X138828039Y-104040556D01*
X138820328Y-104037362D01*
X138678203Y-103999280D01*
X138596149Y-103977294D01*
X138567386Y-103973507D01*
X138366052Y-103947000D01*
X138366045Y-103947000D01*
X138133955Y-103947000D01*
X138133947Y-103947000D01*
X137903853Y-103977293D01*
X137756621Y-104016744D01*
X137679670Y-104037363D01*
X137679668Y-104037363D01*
X137679667Y-104037364D01*
X137679650Y-104037369D01*
X137671958Y-104040556D01*
X137602489Y-104048022D01*
X137540011Y-104016744D01*
X137536830Y-104013674D01*
X135112411Y-101589254D01*
X135029602Y-101506445D01*
X152439500Y-101506445D01*
X152439500Y-101698555D01*
X152441743Y-101712715D01*
X152469553Y-101888302D01*
X152528916Y-102071006D01*
X152616135Y-102242181D01*
X152729055Y-102397602D01*
X152864898Y-102533445D01*
X153020319Y-102646365D01*
X153170032Y-102722648D01*
X153191493Y-102733583D01*
X153256081Y-102754569D01*
X153313756Y-102794006D01*
X153340955Y-102858365D01*
X153329041Y-102927211D01*
X153281797Y-102978687D01*
X153256081Y-102990431D01*
X153191493Y-103011416D01*
X153020318Y-103098635D01*
X152977951Y-103129417D01*
X152864898Y-103211555D01*
X152864896Y-103211557D01*
X152864895Y-103211557D01*
X152729057Y-103347395D01*
X152729057Y-103347396D01*
X152729055Y-103347398D01*
X152680560Y-103414145D01*
X152616135Y-103502818D01*
X152528916Y-103673993D01*
X152469553Y-103856697D01*
X152440433Y-104040556D01*
X152439500Y-104046445D01*
X152439500Y-104238555D01*
X152440081Y-104242221D01*
X152469553Y-104428302D01*
X152528916Y-104611006D01*
X152528918Y-104611009D01*
X152616135Y-104782181D01*
X152729055Y-104937602D01*
X152864898Y-105073445D01*
X153020319Y-105186365D01*
X153191491Y-105273582D01*
X153191495Y-105273584D01*
X153256890Y-105294832D01*
X153314566Y-105334269D01*
X153341765Y-105398627D01*
X153329851Y-105467474D01*
X153282607Y-105518950D01*
X153256893Y-105530694D01*
X153191677Y-105551884D01*
X153020578Y-105639064D01*
X152991352Y-105660298D01*
X152991351Y-105660298D01*
X153613554Y-106282500D01*
X153607339Y-106282500D01*
X153505606Y-106309759D01*
X153414394Y-106362420D01*
X153339920Y-106436894D01*
X153287259Y-106528106D01*
X153260000Y-106629839D01*
X153260000Y-106636053D01*
X152637798Y-106013851D01*
X152637798Y-106013852D01*
X152616564Y-106043078D01*
X152529383Y-106214178D01*
X152470040Y-106396815D01*
X152440000Y-106586484D01*
X152440000Y-106778515D01*
X152470040Y-106968184D01*
X152529383Y-107150821D01*
X152616561Y-107321915D01*
X152637798Y-107351146D01*
X153260000Y-106728945D01*
X153260000Y-106735161D01*
X153287259Y-106836894D01*
X153339920Y-106928106D01*
X153414394Y-107002580D01*
X153505606Y-107055241D01*
X153607339Y-107082500D01*
X153613554Y-107082500D01*
X152991351Y-107704700D01*
X152991352Y-107704701D01*
X153020577Y-107725934D01*
X153191678Y-107813116D01*
X153374315Y-107872459D01*
X153563985Y-107902500D01*
X153756015Y-107902500D01*
X153945684Y-107872459D01*
X154128321Y-107813116D01*
X154299419Y-107725936D01*
X154328646Y-107704701D01*
X154328646Y-107704700D01*
X153706447Y-107082500D01*
X153712661Y-107082500D01*
X153814394Y-107055241D01*
X153905606Y-107002580D01*
X153980080Y-106928106D01*
X154032741Y-106836894D01*
X154060000Y-106735161D01*
X154060000Y-106728946D01*
X154682200Y-107351146D01*
X154682201Y-107351146D01*
X154703436Y-107321919D01*
X154790616Y-107150821D01*
X154849959Y-106968184D01*
X154880000Y-106778515D01*
X154880000Y-106586484D01*
X154849959Y-106396815D01*
X154790616Y-106214178D01*
X154703434Y-106043077D01*
X154682201Y-106013852D01*
X154682200Y-106013851D01*
X154060000Y-106636052D01*
X154060000Y-106629839D01*
X154032741Y-106528106D01*
X153980080Y-106436894D01*
X153905606Y-106362420D01*
X153814394Y-106309759D01*
X153712661Y-106282500D01*
X153706447Y-106282500D01*
X154328646Y-105660298D01*
X154299415Y-105639061D01*
X154128321Y-105551883D01*
X154063107Y-105530694D01*
X154005432Y-105491256D01*
X153978234Y-105426897D01*
X153990149Y-105358051D01*
X154037394Y-105306575D01*
X154063109Y-105294832D01*
X154128504Y-105273584D01*
X154128506Y-105273582D01*
X154128509Y-105273582D01*
X154299681Y-105186365D01*
X154455102Y-105073445D01*
X154590945Y-104937602D01*
X154703865Y-104782181D01*
X154791082Y-104611009D01*
X154850447Y-104428301D01*
X154880500Y-104238555D01*
X154880500Y-104046445D01*
X154850447Y-103856699D01*
X154791082Y-103673991D01*
X154703865Y-103502819D01*
X154590945Y-103347398D01*
X154455102Y-103211555D01*
X154299681Y-103098635D01*
X154128504Y-103011415D01*
X154063919Y-102990431D01*
X154006243Y-102950994D01*
X153979044Y-102886636D01*
X153990958Y-102817789D01*
X154038202Y-102766313D01*
X154063919Y-102754569D01*
X154128504Y-102733584D01*
X154128506Y-102733582D01*
X154128509Y-102733582D01*
X154299681Y-102646365D01*
X154455102Y-102533445D01*
X154590945Y-102397602D01*
X154703865Y-102242181D01*
X154791082Y-102071009D01*
X154850447Y-101888301D01*
X154880500Y-101698555D01*
X154880500Y-101506445D01*
X154850447Y-101316699D01*
X154791082Y-101133991D01*
X154703865Y-100962819D01*
X154590945Y-100807398D01*
X154455102Y-100671555D01*
X154299681Y-100558635D01*
X154283696Y-100550490D01*
X154128506Y-100471416D01*
X153945802Y-100412053D01*
X153834086Y-100394359D01*
X153756055Y-100382000D01*
X153563945Y-100382000D01*
X153500696Y-100392017D01*
X153374197Y-100412053D01*
X153191493Y-100471416D01*
X153020318Y-100558635D01*
X152986783Y-100583000D01*
X152864898Y-100671555D01*
X152864896Y-100671557D01*
X152864895Y-100671557D01*
X152729057Y-100807395D01*
X152729057Y-100807396D01*
X152729055Y-100807398D01*
X152680560Y-100874145D01*
X152616135Y-100962818D01*
X152528916Y-101133993D01*
X152469553Y-101316697D01*
X152469553Y-101316699D01*
X152439500Y-101506445D01*
X135029602Y-101506445D01*
X129896546Y-96373388D01*
X129896545Y-96373387D01*
X129781807Y-96296722D01*
X129654332Y-96243921D01*
X129654322Y-96243918D01*
X129518996Y-96217000D01*
X129518994Y-96217000D01*
X129518993Y-96217000D01*
X123228469Y-96217000D01*
X123165348Y-96199732D01*
X123107896Y-96165755D01*
X123107893Y-96165754D01*
X122950073Y-96119902D01*
X122950067Y-96119901D01*
X122913201Y-96117000D01*
X122913194Y-96117000D01*
X121756806Y-96117000D01*
X121756798Y-96117000D01*
X121719932Y-96119901D01*
X121719926Y-96119902D01*
X121562106Y-96165754D01*
X121562103Y-96165755D01*
X121503806Y-96200232D01*
X121440685Y-96217500D01*
X121175204Y-96217500D01*
X121150940Y-96243748D01*
X121090979Y-96279614D01*
X121021145Y-96277369D01*
X120981487Y-96252968D01*
X120980531Y-96254202D01*
X120974362Y-96249417D01*
X120891194Y-96200232D01*
X120832898Y-96165756D01*
X120832897Y-96165755D01*
X120832896Y-96165755D01*
X120832893Y-96165754D01*
X120675073Y-96119902D01*
X120675067Y-96119901D01*
X120638201Y-96117000D01*
X120638194Y-96117000D01*
X119481806Y-96117000D01*
X119481798Y-96117000D01*
X119444932Y-96119901D01*
X119444926Y-96119902D01*
X119287106Y-96165754D01*
X119287103Y-96165755D01*
X119229652Y-96199732D01*
X119166531Y-96217000D01*
X118059019Y-96217000D01*
X117991980Y-96197315D01*
X117971338Y-96180681D01*
X116446546Y-94655888D01*
X116446545Y-94655887D01*
X116331807Y-94579222D01*
X116204332Y-94526421D01*
X116204322Y-94526418D01*
X116068996Y-94499500D01*
X116068994Y-94499500D01*
X116068993Y-94499500D01*
X108264500Y-94499500D01*
X108197461Y-94479815D01*
X108151706Y-94427011D01*
X108140500Y-94375500D01*
X108140500Y-94005637D01*
X108160185Y-93938598D01*
X108191615Y-93905318D01*
X108222073Y-93883190D01*
X108355690Y-93749573D01*
X108466760Y-93596699D01*
X108552547Y-93428332D01*
X108610940Y-93248618D01*
X108622961Y-93172720D01*
X108640500Y-93061986D01*
X108640500Y-92873013D01*
X113859500Y-92873013D01*
X113859500Y-93061986D01*
X113889059Y-93248618D01*
X113947454Y-93428336D01*
X114016400Y-93563648D01*
X114033240Y-93596699D01*
X114144310Y-93749573D01*
X114277927Y-93883190D01*
X114430801Y-93994260D01*
X114453130Y-94005637D01*
X114599163Y-94080045D01*
X114599165Y-94080045D01*
X114599168Y-94080047D01*
X114695497Y-94111346D01*
X114778881Y-94138440D01*
X114965514Y-94168000D01*
X114965519Y-94168000D01*
X115154486Y-94168000D01*
X115341118Y-94138440D01*
X115520832Y-94080047D01*
X115689199Y-93994260D01*
X115842073Y-93883190D01*
X115975690Y-93749573D01*
X115997821Y-93719113D01*
X116053152Y-93676448D01*
X116098138Y-93668000D01*
X119235500Y-93668000D01*
X119302539Y-93687685D01*
X119348294Y-93740489D01*
X119359500Y-93792000D01*
X119359500Y-94152973D01*
X119339815Y-94220012D01*
X119293068Y-94260518D01*
X119293817Y-94261785D01*
X119145637Y-94349417D01*
X119145629Y-94349423D01*
X119029423Y-94465629D01*
X119029417Y-94465637D01*
X118945755Y-94607103D01*
X118945754Y-94607106D01*
X118899902Y-94764926D01*
X118899901Y-94764932D01*
X118897000Y-94801798D01*
X118897000Y-95233201D01*
X118899901Y-95270067D01*
X118899902Y-95270073D01*
X118945754Y-95427893D01*
X118945755Y-95427896D01*
X119029417Y-95569362D01*
X119029423Y-95569370D01*
X119145629Y-95685576D01*
X119145633Y-95685579D01*
X119145635Y-95685581D01*
X119287102Y-95769244D01*
X119328724Y-95781336D01*
X119444926Y-95815097D01*
X119444929Y-95815097D01*
X119444931Y-95815098D01*
X119481806Y-95818000D01*
X119481814Y-95818000D01*
X120638186Y-95818000D01*
X120638194Y-95818000D01*
X120675069Y-95815098D01*
X120675071Y-95815097D01*
X120675073Y-95815097D01*
X120716691Y-95803005D01*
X120832898Y-95769244D01*
X120974365Y-95685581D01*
X120974370Y-95685575D01*
X120980531Y-95680798D01*
X120981839Y-95682484D01*
X121033509Y-95654261D01*
X121103201Y-95659235D01*
X121150941Y-95691252D01*
X121175204Y-95717500D01*
X121440685Y-95717500D01*
X121503806Y-95734768D01*
X121562102Y-95769244D01*
X121603724Y-95781336D01*
X121719926Y-95815097D01*
X121719929Y-95815097D01*
X121719931Y-95815098D01*
X121756806Y-95818000D01*
X121756814Y-95818000D01*
X122913186Y-95818000D01*
X122913194Y-95818000D01*
X122950069Y-95815098D01*
X122950071Y-95815097D01*
X122950073Y-95815097D01*
X122991691Y-95803005D01*
X123107898Y-95769244D01*
X123165348Y-95735267D01*
X123228469Y-95718000D01*
X133175981Y-95718000D01*
X133243020Y-95737685D01*
X133263662Y-95754319D01*
X134923386Y-97414042D01*
X134972546Y-97463202D01*
X135020959Y-97511615D01*
X135135682Y-97588271D01*
X135135689Y-97588275D01*
X135207452Y-97618000D01*
X135263171Y-97641080D01*
X135290091Y-97646434D01*
X135387573Y-97665825D01*
X135398506Y-97668000D01*
X135398507Y-97668000D01*
X152588256Y-97668000D01*
X152655295Y-97687685D01*
X152688575Y-97719116D01*
X152758030Y-97814715D01*
X152902786Y-97959471D01*
X153057749Y-98072056D01*
X153068390Y-98079787D01*
X153184607Y-98139003D01*
X153250776Y-98172718D01*
X153250778Y-98172718D01*
X153250781Y-98172720D01*
X153344044Y-98203023D01*
X153445465Y-98235977D01*
X153546557Y-98251988D01*
X153647648Y-98268000D01*
X153647649Y-98268000D01*
X153852351Y-98268000D01*
X153852352Y-98268000D01*
X154054534Y-98235977D01*
X154249219Y-98172720D01*
X154431610Y-98079787D01*
X154551750Y-97992501D01*
X154597213Y-97959471D01*
X154597215Y-97959468D01*
X154597219Y-97959466D01*
X154741966Y-97814719D01*
X154741968Y-97814715D01*
X154741971Y-97814713D01*
X154812236Y-97718000D01*
X154862287Y-97649110D01*
X154955220Y-97466719D01*
X155018477Y-97272034D01*
X155050500Y-97069852D01*
X155050500Y-96865148D01*
X155018477Y-96662966D01*
X154955220Y-96468281D01*
X154955218Y-96468278D01*
X154955218Y-96468276D01*
X154921503Y-96402107D01*
X154862287Y-96285890D01*
X154838368Y-96252968D01*
X154741971Y-96120286D01*
X154597213Y-95975528D01*
X154431613Y-95855215D01*
X154431612Y-95855214D01*
X154431610Y-95855213D01*
X154364022Y-95820775D01*
X154249223Y-95762281D01*
X154054534Y-95699022D01*
X153879995Y-95671378D01*
X153852352Y-95667000D01*
X153647648Y-95667000D01*
X153623329Y-95670851D01*
X153445465Y-95699022D01*
X153250776Y-95762281D01*
X153068386Y-95855215D01*
X152902786Y-95975528D01*
X152758030Y-96120284D01*
X152688575Y-96215884D01*
X152633245Y-96258551D01*
X152588256Y-96267000D01*
X135809018Y-96267000D01*
X135741979Y-96247315D01*
X135721337Y-96230681D01*
X133964046Y-94473388D01*
X133964045Y-94473387D01*
X133849307Y-94396722D01*
X133721832Y-94343921D01*
X133721822Y-94343918D01*
X133586496Y-94317000D01*
X133586494Y-94317000D01*
X133586493Y-94317000D01*
X123228469Y-94317000D01*
X123165348Y-94299732D01*
X123107896Y-94265755D01*
X123107893Y-94265754D01*
X122950073Y-94219902D01*
X122950067Y-94219901D01*
X122913201Y-94217000D01*
X122913194Y-94217000D01*
X121756806Y-94217000D01*
X121756798Y-94217000D01*
X121719932Y-94219901D01*
X121719926Y-94219902D01*
X121562106Y-94265754D01*
X121562103Y-94265755D01*
X121420637Y-94349417D01*
X121420629Y-94349423D01*
X121304423Y-94465629D01*
X121304414Y-94465640D01*
X121304229Y-94465955D01*
X121304019Y-94466150D01*
X121299639Y-94471798D01*
X121298727Y-94471091D01*
X121253157Y-94513636D01*
X121184415Y-94526137D01*
X121119827Y-94499488D01*
X121095643Y-94471578D01*
X121095361Y-94471798D01*
X121091323Y-94466592D01*
X121090771Y-94465955D01*
X121090585Y-94465640D01*
X121090576Y-94465629D01*
X120974370Y-94349423D01*
X120974362Y-94349417D01*
X120899856Y-94305354D01*
X120832898Y-94265756D01*
X120832897Y-94265755D01*
X120826183Y-94261785D01*
X120827194Y-94260074D01*
X120781532Y-94222064D01*
X120760524Y-94155427D01*
X120760500Y-94152973D01*
X120760500Y-93103156D01*
X120760500Y-93101447D01*
X136479500Y-93101447D01*
X136479500Y-93333552D01*
X136509794Y-93563648D01*
X136569862Y-93787828D01*
X136658677Y-94002245D01*
X136658685Y-94002262D01*
X136774720Y-94203243D01*
X136774721Y-94203245D01*
X136916009Y-94387375D01*
X136916015Y-94387382D01*
X137080117Y-94551484D01*
X137080124Y-94551490D01*
X137264254Y-94692778D01*
X137264256Y-94692779D01*
X137465237Y-94808814D01*
X137465240Y-94808815D01*
X137465248Y-94808820D01*
X137679670Y-94897637D01*
X137903851Y-94957706D01*
X138133955Y-94988000D01*
X138133962Y-94988000D01*
X138366038Y-94988000D01*
X138366045Y-94988000D01*
X138596149Y-94957706D01*
X138820330Y-94897637D01*
X139034752Y-94808820D01*
X139235748Y-94692776D01*
X139419877Y-94551489D01*
X139583989Y-94387377D01*
X139725276Y-94203248D01*
X139841320Y-94002252D01*
X139930137Y-93787830D01*
X139990206Y-93563649D01*
X140020500Y-93333545D01*
X140020500Y-93101455D01*
X139990206Y-92871351D01*
X139930137Y-92647170D01*
X139841320Y-92432748D01*
X139841314Y-92432737D01*
X139725279Y-92231756D01*
X139725278Y-92231754D01*
X139583990Y-92047624D01*
X139583984Y-92047617D01*
X139419882Y-91883515D01*
X139419875Y-91883509D01*
X139395946Y-91865148D01*
X152449500Y-91865148D01*
X152449500Y-92069851D01*
X152481522Y-92272034D01*
X152544781Y-92466723D01*
X152608691Y-92592153D01*
X152619545Y-92613454D01*
X152637715Y-92649113D01*
X152758028Y-92814713D01*
X152902786Y-92959471D01*
X153043882Y-93061981D01*
X153068390Y-93079787D01*
X153184607Y-93139003D01*
X153250776Y-93172718D01*
X153250778Y-93172718D01*
X153250781Y-93172720D01*
X153355137Y-93206627D01*
X153445465Y-93235977D01*
X153525277Y-93248618D01*
X153647648Y-93268000D01*
X153647649Y-93268000D01*
X153852351Y-93268000D01*
X153852352Y-93268000D01*
X154054534Y-93235977D01*
X154249219Y-93172720D01*
X154431610Y-93079787D01*
X154524590Y-93012232D01*
X154597213Y-92959471D01*
X154597215Y-92959468D01*
X154597219Y-92959466D01*
X154741966Y-92814719D01*
X154741968Y-92814715D01*
X154741971Y-92814713D01*
X154804833Y-92728189D01*
X154862287Y-92649110D01*
X154955220Y-92466719D01*
X155018477Y-92272034D01*
X155050500Y-92069852D01*
X155050500Y-91865148D01*
X155034955Y-91767000D01*
X155018477Y-91662965D01*
X154977666Y-91537362D01*
X154955220Y-91468281D01*
X154955218Y-91468278D01*
X154955218Y-91468276D01*
X154921503Y-91402107D01*
X154862287Y-91285890D01*
X154854556Y-91275249D01*
X154741971Y-91120286D01*
X154597213Y-90975528D01*
X154431613Y-90855215D01*
X154431612Y-90855214D01*
X154431610Y-90855213D01*
X154374653Y-90826191D01*
X154249223Y-90762281D01*
X154054534Y-90699022D01*
X153879995Y-90671378D01*
X153852352Y-90667000D01*
X153647648Y-90667000D01*
X153623329Y-90670851D01*
X153445465Y-90699022D01*
X153250776Y-90762281D01*
X153068386Y-90855215D01*
X152902786Y-90975528D01*
X152758028Y-91120286D01*
X152637715Y-91285886D01*
X152544781Y-91468276D01*
X152481522Y-91662965D01*
X152449500Y-91865148D01*
X139395946Y-91865148D01*
X139235745Y-91742221D01*
X139235743Y-91742220D01*
X139034762Y-91626185D01*
X139034754Y-91626181D01*
X139034752Y-91626180D01*
X138820330Y-91537363D01*
X138820331Y-91537363D01*
X138820328Y-91537362D01*
X138678203Y-91499280D01*
X138596149Y-91477294D01*
X138567386Y-91473507D01*
X138366052Y-91447000D01*
X138366045Y-91447000D01*
X138133955Y-91447000D01*
X138133947Y-91447000D01*
X137903851Y-91477294D01*
X137679671Y-91537362D01*
X137465254Y-91626177D01*
X137465237Y-91626185D01*
X137264256Y-91742220D01*
X137264254Y-91742221D01*
X137080124Y-91883509D01*
X137080117Y-91883515D01*
X136916015Y-92047617D01*
X136916009Y-92047624D01*
X136774721Y-92231754D01*
X136774720Y-92231756D01*
X136658685Y-92432737D01*
X136658677Y-92432754D01*
X136569862Y-92647171D01*
X136509794Y-92871351D01*
X136479500Y-93101447D01*
X120760500Y-93101447D01*
X120760500Y-92991007D01*
X120742100Y-92898507D01*
X120733580Y-92855672D01*
X120680775Y-92728189D01*
X120604114Y-92613457D01*
X120604112Y-92613454D01*
X120414045Y-92423387D01*
X120299307Y-92346722D01*
X120171832Y-92293921D01*
X120171822Y-92293918D01*
X120036496Y-92267000D01*
X120036494Y-92267000D01*
X120036493Y-92267000D01*
X116098138Y-92267000D01*
X116031099Y-92247315D01*
X115997821Y-92215887D01*
X115975690Y-92185427D01*
X115842075Y-92051812D01*
X115842073Y-92051810D01*
X115689199Y-91940740D01*
X115520836Y-91854954D01*
X115341118Y-91796559D01*
X115154486Y-91767000D01*
X115154481Y-91767000D01*
X114965519Y-91767000D01*
X114965514Y-91767000D01*
X114778881Y-91796559D01*
X114599163Y-91854954D01*
X114430800Y-91940740D01*
X114343579Y-92004110D01*
X114277927Y-92051810D01*
X114277925Y-92051812D01*
X114277924Y-92051812D01*
X114144312Y-92185424D01*
X114144312Y-92185425D01*
X114144310Y-92185427D01*
X114110653Y-92231752D01*
X114033240Y-92338300D01*
X113947454Y-92506663D01*
X113889059Y-92686381D01*
X113859500Y-92873013D01*
X108640500Y-92873013D01*
X108610940Y-92686381D01*
X108552545Y-92506663D01*
X108471052Y-92346725D01*
X108466760Y-92338301D01*
X108355690Y-92185427D01*
X108222073Y-92051810D01*
X108069199Y-91940740D01*
X107900836Y-91854954D01*
X107721118Y-91796559D01*
X107534486Y-91767000D01*
X107534481Y-91767000D01*
X107345519Y-91767000D01*
X107345514Y-91767000D01*
X107158881Y-91796559D01*
X106979163Y-91854954D01*
X106810800Y-91940740D01*
X106723579Y-92004110D01*
X106657927Y-92051810D01*
X106657925Y-92051812D01*
X106657924Y-92051812D01*
X106524312Y-92185424D01*
X106524312Y-92185425D01*
X106524310Y-92185427D01*
X106490653Y-92231752D01*
X106413240Y-92338300D01*
X106327454Y-92506663D01*
X106269059Y-92686381D01*
X106239500Y-92873013D01*
X100500500Y-92873013D01*
X100500500Y-86369077D01*
X107499500Y-86369077D01*
X107499500Y-86565922D01*
X107530290Y-86760326D01*
X107591117Y-86947529D01*
X107680476Y-87122905D01*
X107796172Y-87282146D01*
X107935354Y-87421328D01*
X108094595Y-87537024D01*
X108115142Y-87547493D01*
X108269970Y-87626382D01*
X108269972Y-87626382D01*
X108269975Y-87626384D01*
X108370317Y-87658987D01*
X108457173Y-87687209D01*
X108651578Y-87718000D01*
X108651583Y-87718000D01*
X108848422Y-87718000D01*
X109042826Y-87687209D01*
X109230025Y-87626384D01*
X109405405Y-87537024D01*
X109564646Y-87421328D01*
X109662319Y-87323655D01*
X109723642Y-87290170D01*
X109793334Y-87295154D01*
X109837681Y-87323655D01*
X109935354Y-87421328D01*
X110094595Y-87537024D01*
X110115142Y-87547493D01*
X110269970Y-87626382D01*
X110269972Y-87626382D01*
X110269975Y-87626384D01*
X110370317Y-87658987D01*
X110457173Y-87687209D01*
X110651578Y-87718000D01*
X110651583Y-87718000D01*
X110848422Y-87718000D01*
X111042826Y-87687209D01*
X111230025Y-87626384D01*
X111405405Y-87537024D01*
X111564646Y-87421328D01*
X111662319Y-87323655D01*
X111723642Y-87290170D01*
X111793334Y-87295154D01*
X111837681Y-87323655D01*
X111935354Y-87421328D01*
X112094595Y-87537024D01*
X112115142Y-87547493D01*
X112269970Y-87626382D01*
X112269972Y-87626382D01*
X112269975Y-87626384D01*
X112370317Y-87658987D01*
X112457173Y-87687209D01*
X112651578Y-87718000D01*
X112651583Y-87718000D01*
X112848422Y-87718000D01*
X113042826Y-87687209D01*
X113230025Y-87626384D01*
X113405405Y-87537024D01*
X113564646Y-87421328D01*
X113703828Y-87282146D01*
X113819524Y-87122905D01*
X113908884Y-86947525D01*
X113969709Y-86760326D01*
X114000500Y-86565922D01*
X114000500Y-86369077D01*
X115499500Y-86369077D01*
X115499500Y-86565922D01*
X115530290Y-86760326D01*
X115591117Y-86947529D01*
X115680476Y-87122905D01*
X115796172Y-87282146D01*
X115935354Y-87421328D01*
X116094595Y-87537024D01*
X116115142Y-87547493D01*
X116269970Y-87626382D01*
X116269972Y-87626382D01*
X116269975Y-87626384D01*
X116370317Y-87658987D01*
X116457173Y-87687209D01*
X116651578Y-87718000D01*
X116651583Y-87718000D01*
X116848422Y-87718000D01*
X117042826Y-87687209D01*
X117230025Y-87626384D01*
X117405405Y-87537024D01*
X117564646Y-87421328D01*
X117703828Y-87282146D01*
X117819524Y-87122905D01*
X117908884Y-86947525D01*
X117935650Y-86865148D01*
X122099500Y-86865148D01*
X122099500Y-87069851D01*
X122131522Y-87272034D01*
X122194781Y-87466723D01*
X122230602Y-87537024D01*
X122276132Y-87626382D01*
X122287715Y-87649113D01*
X122408028Y-87814713D01*
X122552786Y-87959471D01*
X122701480Y-88067501D01*
X122718390Y-88079787D01*
X122834607Y-88139003D01*
X122900776Y-88172718D01*
X122900778Y-88172718D01*
X122900781Y-88172720D01*
X123005137Y-88206627D01*
X123095465Y-88235977D01*
X123196557Y-88251988D01*
X123297648Y-88268000D01*
X123297649Y-88268000D01*
X123502351Y-88268000D01*
X123502352Y-88268000D01*
X123704534Y-88235977D01*
X123899219Y-88172720D01*
X124081610Y-88079787D01*
X124174590Y-88012232D01*
X124247213Y-87959471D01*
X124247215Y-87959468D01*
X124247219Y-87959466D01*
X124391966Y-87814719D01*
X124391968Y-87814715D01*
X124391971Y-87814713D01*
X124462236Y-87718000D01*
X124512287Y-87649110D01*
X124605220Y-87466719D01*
X124668477Y-87272034D01*
X124700500Y-87069852D01*
X124700500Y-86865148D01*
X134799500Y-86865148D01*
X134799500Y-87069851D01*
X134831522Y-87272034D01*
X134894781Y-87466723D01*
X134930602Y-87537024D01*
X134976132Y-87626382D01*
X134987715Y-87649113D01*
X135108028Y-87814713D01*
X135252786Y-87959471D01*
X135401480Y-88067501D01*
X135418390Y-88079787D01*
X135534607Y-88139003D01*
X135600776Y-88172718D01*
X135600778Y-88172718D01*
X135600781Y-88172720D01*
X135705137Y-88206627D01*
X135795465Y-88235977D01*
X135896557Y-88251988D01*
X135997648Y-88268000D01*
X135997649Y-88268000D01*
X136202351Y-88268000D01*
X136202352Y-88268000D01*
X136404534Y-88235977D01*
X136599219Y-88172720D01*
X136781610Y-88079787D01*
X136874590Y-88012232D01*
X136947213Y-87959471D01*
X136947215Y-87959468D01*
X136947219Y-87959466D01*
X137091966Y-87814719D01*
X137091968Y-87814715D01*
X137091971Y-87814713D01*
X137162236Y-87718000D01*
X137212287Y-87649110D01*
X137305220Y-87466719D01*
X137368477Y-87272034D01*
X137400500Y-87069852D01*
X137400500Y-86865148D01*
X137398021Y-86849495D01*
X139099500Y-86849495D01*
X139099500Y-87085504D01*
X139099501Y-87085520D01*
X139130306Y-87319510D01*
X139191394Y-87547493D01*
X139281714Y-87765545D01*
X139281719Y-87765556D01*
X139310104Y-87814719D01*
X139399727Y-87969950D01*
X139399729Y-87969953D01*
X139399730Y-87969954D01*
X139543406Y-88157197D01*
X139543412Y-88157204D01*
X139710295Y-88324087D01*
X139710302Y-88324093D01*
X139726909Y-88336836D01*
X139897550Y-88467773D01*
X140028918Y-88543618D01*
X140101943Y-88585780D01*
X140101948Y-88585782D01*
X140101951Y-88585784D01*
X140320007Y-88676106D01*
X140547986Y-88737193D01*
X140781989Y-88768000D01*
X140781996Y-88768000D01*
X141018004Y-88768000D01*
X141018011Y-88768000D01*
X141252014Y-88737193D01*
X141479993Y-88676106D01*
X141698049Y-88585784D01*
X141902450Y-88467773D01*
X142089699Y-88324092D01*
X142256592Y-88157199D01*
X142400273Y-87969950D01*
X142518284Y-87765549D01*
X142608606Y-87547493D01*
X142669693Y-87319514D01*
X142700500Y-87085511D01*
X142700500Y-86849489D01*
X142669693Y-86615486D01*
X142608606Y-86387507D01*
X142518284Y-86169451D01*
X142518282Y-86169448D01*
X142518280Y-86169443D01*
X142413217Y-85987470D01*
X142400273Y-85965050D01*
X142325414Y-85867492D01*
X142325407Y-85867483D01*
X151799500Y-85867483D01*
X151799500Y-88067501D01*
X151799501Y-88067518D01*
X151810000Y-88170296D01*
X151810001Y-88170299D01*
X151860962Y-88324087D01*
X151865186Y-88336834D01*
X151957288Y-88486156D01*
X152081344Y-88610212D01*
X152230666Y-88702314D01*
X152397203Y-88757499D01*
X152499991Y-88768000D01*
X154700008Y-88767999D01*
X154802797Y-88757499D01*
X154969334Y-88702314D01*
X155118656Y-88610212D01*
X155242712Y-88486156D01*
X155334814Y-88336834D01*
X155389999Y-88170297D01*
X155400500Y-88067509D01*
X155400499Y-85867492D01*
X155389999Y-85764703D01*
X155334814Y-85598166D01*
X155242712Y-85448844D01*
X155118656Y-85324788D01*
X154979686Y-85239071D01*
X154969336Y-85232687D01*
X154969331Y-85232685D01*
X154954830Y-85227880D01*
X154802797Y-85177501D01*
X154802795Y-85177500D01*
X154700010Y-85167000D01*
X152499998Y-85167000D01*
X152499981Y-85167001D01*
X152397203Y-85177500D01*
X152397200Y-85177501D01*
X152230668Y-85232685D01*
X152230663Y-85232687D01*
X152081342Y-85324789D01*
X151957289Y-85448842D01*
X151865187Y-85598163D01*
X151865185Y-85598168D01*
X151849723Y-85644830D01*
X151810001Y-85764703D01*
X151810001Y-85764704D01*
X151810000Y-85764704D01*
X151799500Y-85867483D01*
X142325407Y-85867483D01*
X142256593Y-85777802D01*
X142256587Y-85777795D01*
X142089704Y-85610912D01*
X142089697Y-85610906D01*
X141902454Y-85467230D01*
X141902453Y-85467229D01*
X141902450Y-85467227D01*
X141782504Y-85397976D01*
X141698056Y-85349219D01*
X141698045Y-85349214D01*
X141479993Y-85258894D01*
X141369125Y-85229187D01*
X141252014Y-85197807D01*
X141252013Y-85197806D01*
X141252010Y-85197806D01*
X141018020Y-85167001D01*
X141018017Y-85167000D01*
X141018011Y-85167000D01*
X140781989Y-85167000D01*
X140781983Y-85167000D01*
X140781979Y-85167001D01*
X140547989Y-85197806D01*
X140320006Y-85258894D01*
X140101954Y-85349214D01*
X140101943Y-85349219D01*
X139897545Y-85467230D01*
X139710302Y-85610906D01*
X139710295Y-85610912D01*
X139543412Y-85777795D01*
X139543406Y-85777802D01*
X139399730Y-85965045D01*
X139281719Y-86169443D01*
X139281714Y-86169454D01*
X139191394Y-86387506D01*
X139130306Y-86615489D01*
X139099501Y-86849479D01*
X139099500Y-86849495D01*
X137398021Y-86849495D01*
X137368477Y-86662966D01*
X137305220Y-86468281D01*
X137305218Y-86468278D01*
X137305218Y-86468276D01*
X137271503Y-86402107D01*
X137212287Y-86285890D01*
X137131485Y-86174674D01*
X137091971Y-86120286D01*
X136947213Y-85975528D01*
X136781613Y-85855215D01*
X136781612Y-85855214D01*
X136781610Y-85855213D01*
X136724653Y-85826191D01*
X136599223Y-85762281D01*
X136404534Y-85699022D01*
X136229995Y-85671378D01*
X136202352Y-85667000D01*
X135997648Y-85667000D01*
X135973329Y-85670851D01*
X135795465Y-85699022D01*
X135600776Y-85762281D01*
X135418386Y-85855215D01*
X135252786Y-85975528D01*
X135108028Y-86120286D01*
X134987715Y-86285886D01*
X134894781Y-86468276D01*
X134831522Y-86662965D01*
X134799500Y-86865148D01*
X124700500Y-86865148D01*
X124668477Y-86662966D01*
X124605220Y-86468281D01*
X124605218Y-86468278D01*
X124605218Y-86468276D01*
X124571503Y-86402107D01*
X124512287Y-86285890D01*
X124431485Y-86174674D01*
X124391971Y-86120286D01*
X124247213Y-85975528D01*
X124081613Y-85855215D01*
X124081612Y-85855214D01*
X124081610Y-85855213D01*
X124024653Y-85826191D01*
X123899223Y-85762281D01*
X123704534Y-85699022D01*
X123529995Y-85671378D01*
X123502352Y-85667000D01*
X123297648Y-85667000D01*
X123273329Y-85670851D01*
X123095465Y-85699022D01*
X122900776Y-85762281D01*
X122718386Y-85855215D01*
X122552786Y-85975528D01*
X122408028Y-86120286D01*
X122287715Y-86285886D01*
X122194781Y-86468276D01*
X122131522Y-86662965D01*
X122099500Y-86865148D01*
X117935650Y-86865148D01*
X117969709Y-86760326D01*
X117992649Y-86615489D01*
X118000500Y-86565922D01*
X118000500Y-86369077D01*
X117969709Y-86174673D01*
X117908882Y-85987470D01*
X117847744Y-85867481D01*
X117819524Y-85812095D01*
X117703828Y-85652854D01*
X117564646Y-85513672D01*
X117405405Y-85397976D01*
X117230029Y-85308617D01*
X117042826Y-85247790D01*
X116848422Y-85217000D01*
X116848417Y-85217000D01*
X116651583Y-85217000D01*
X116651578Y-85217000D01*
X116457173Y-85247790D01*
X116269970Y-85308617D01*
X116094594Y-85397976D01*
X116003741Y-85463985D01*
X115935354Y-85513672D01*
X115935352Y-85513674D01*
X115935351Y-85513674D01*
X115796174Y-85652851D01*
X115796174Y-85652852D01*
X115796172Y-85652854D01*
X115762629Y-85699022D01*
X115680476Y-85812094D01*
X115591117Y-85987470D01*
X115530290Y-86174673D01*
X115499500Y-86369077D01*
X114000500Y-86369077D01*
X113969709Y-86174673D01*
X113908882Y-85987470D01*
X113847744Y-85867481D01*
X113819524Y-85812095D01*
X113703828Y-85652854D01*
X113564646Y-85513672D01*
X113405405Y-85397976D01*
X113230029Y-85308617D01*
X113042826Y-85247790D01*
X112848422Y-85217000D01*
X112848417Y-85217000D01*
X112651583Y-85217000D01*
X112651578Y-85217000D01*
X112457173Y-85247790D01*
X112269970Y-85308617D01*
X112094594Y-85397976D01*
X112003741Y-85463985D01*
X111935354Y-85513672D01*
X111935352Y-85513674D01*
X111935351Y-85513674D01*
X111837681Y-85611345D01*
X111776358Y-85644830D01*
X111706666Y-85639846D01*
X111662319Y-85611345D01*
X111564648Y-85513674D01*
X111564646Y-85513672D01*
X111405405Y-85397976D01*
X111309713Y-85349219D01*
X111230027Y-85308617D01*
X111230026Y-85308616D01*
X111230025Y-85308616D01*
X111173031Y-85290097D01*
X111115356Y-85250660D01*
X111088158Y-85186302D01*
X111100073Y-85117455D01*
X111123666Y-85084489D01*
X112503837Y-83704319D01*
X112565160Y-83670834D01*
X112591518Y-83668000D01*
X121901862Y-83668000D01*
X121968901Y-83687685D01*
X122002179Y-83719113D01*
X122024310Y-83749573D01*
X122157927Y-83883190D01*
X122310801Y-83994260D01*
X122390347Y-84034790D01*
X122479163Y-84080045D01*
X122479165Y-84080045D01*
X122479168Y-84080047D01*
X122575497Y-84111346D01*
X122658881Y-84138440D01*
X122845514Y-84168000D01*
X122845519Y-84168000D01*
X123034486Y-84168000D01*
X123221118Y-84138440D01*
X123400832Y-84080047D01*
X123569199Y-83994260D01*
X123722073Y-83883190D01*
X123855690Y-83749573D01*
X123966760Y-83596699D01*
X124052547Y-83428332D01*
X124110940Y-83248618D01*
X124140500Y-83061986D01*
X124140500Y-82873013D01*
X129359500Y-82873013D01*
X129359500Y-83061986D01*
X129389059Y-83248618D01*
X129447454Y-83428336D01*
X129533240Y-83596699D01*
X129644310Y-83749573D01*
X129777927Y-83883190D01*
X129930801Y-83994260D01*
X130010347Y-84034790D01*
X130099163Y-84080045D01*
X130099165Y-84080045D01*
X130099168Y-84080047D01*
X130195497Y-84111346D01*
X130278881Y-84138440D01*
X130465514Y-84168000D01*
X130465519Y-84168000D01*
X130654486Y-84168000D01*
X130841118Y-84138440D01*
X131020832Y-84080047D01*
X131189199Y-83994260D01*
X131342073Y-83883190D01*
X131475690Y-83749573D01*
X131586760Y-83596699D01*
X131672547Y-83428332D01*
X131730940Y-83248618D01*
X131760500Y-83061986D01*
X131760500Y-82873013D01*
X131730940Y-82686381D01*
X131672545Y-82506663D01*
X131627290Y-82417847D01*
X131586760Y-82338301D01*
X131475690Y-82185427D01*
X131342073Y-82051810D01*
X131189199Y-81940740D01*
X131142330Y-81916859D01*
X131020836Y-81854954D01*
X130841118Y-81796559D01*
X130654486Y-81767000D01*
X130654481Y-81767000D01*
X130465519Y-81767000D01*
X130465514Y-81767000D01*
X130278881Y-81796559D01*
X130099163Y-81854954D01*
X129930800Y-81940740D01*
X129882136Y-81976097D01*
X129777927Y-82051810D01*
X129777925Y-82051812D01*
X129777924Y-82051812D01*
X129644312Y-82185424D01*
X129644312Y-82185425D01*
X129644310Y-82185427D01*
X129596610Y-82251079D01*
X129533240Y-82338300D01*
X129447454Y-82506663D01*
X129389059Y-82686381D01*
X129359500Y-82873013D01*
X124140500Y-82873013D01*
X124110940Y-82686381D01*
X124052545Y-82506663D01*
X124007290Y-82417847D01*
X123966760Y-82338301D01*
X123855690Y-82185427D01*
X123722073Y-82051810D01*
X123569199Y-81940740D01*
X123522330Y-81916859D01*
X123400836Y-81854954D01*
X123221118Y-81796559D01*
X123034486Y-81767000D01*
X123034481Y-81767000D01*
X122845519Y-81767000D01*
X122845514Y-81767000D01*
X122658881Y-81796559D01*
X122479163Y-81854954D01*
X122310800Y-81940740D01*
X122262136Y-81976097D01*
X122157927Y-82051810D01*
X122157925Y-82051812D01*
X122157924Y-82051812D01*
X122024309Y-82185427D01*
X122002179Y-82215887D01*
X121946848Y-82258552D01*
X121901862Y-82267000D01*
X112181003Y-82267000D01*
X112072590Y-82288565D01*
X112072589Y-82288565D01*
X112056379Y-82291789D01*
X112045669Y-82293920D01*
X112014397Y-82306874D01*
X111918188Y-82346725D01*
X111918188Y-82346726D01*
X111803456Y-82423386D01*
X111803453Y-82423389D01*
X109032446Y-85194395D01*
X108971123Y-85227880D01*
X108925367Y-85229187D01*
X108848422Y-85217000D01*
X108848417Y-85217000D01*
X108651583Y-85217000D01*
X108651578Y-85217000D01*
X108457173Y-85247790D01*
X108269970Y-85308617D01*
X108094594Y-85397976D01*
X108003741Y-85463985D01*
X107935354Y-85513672D01*
X107935352Y-85513674D01*
X107935351Y-85513674D01*
X107796174Y-85652851D01*
X107796174Y-85652852D01*
X107796172Y-85652854D01*
X107762629Y-85699022D01*
X107680476Y-85812094D01*
X107591117Y-85987470D01*
X107530290Y-86174673D01*
X107499500Y-86369077D01*
X100500500Y-86369077D01*
X100500500Y-75767514D01*
X107850000Y-75767514D01*
X107850000Y-76717500D01*
X109149999Y-76717500D01*
X109124979Y-76777902D01*
X109100000Y-76903481D01*
X109100000Y-77031519D01*
X109124979Y-77157098D01*
X109149999Y-77217500D01*
X107850000Y-77217500D01*
X107850000Y-78167485D01*
X107860493Y-78270189D01*
X107860494Y-78270196D01*
X107915641Y-78436618D01*
X107915643Y-78436623D01*
X108007684Y-78585844D01*
X108131655Y-78709815D01*
X108280876Y-78801856D01*
X108280881Y-78801858D01*
X108447303Y-78857005D01*
X108447310Y-78857006D01*
X108550014Y-78867499D01*
X108550027Y-78867500D01*
X109500000Y-78867500D01*
X109500000Y-77567501D01*
X109560402Y-77592521D01*
X109685981Y-77617500D01*
X109814019Y-77617500D01*
X109939598Y-77592521D01*
X110000000Y-77567501D01*
X110000000Y-78867500D01*
X110949973Y-78867500D01*
X110949985Y-78867499D01*
X111052689Y-78857006D01*
X111052696Y-78857005D01*
X111219118Y-78801858D01*
X111219123Y-78801856D01*
X111368344Y-78709815D01*
X111492315Y-78585844D01*
X111584356Y-78436623D01*
X111584358Y-78436618D01*
X111639505Y-78270196D01*
X111639506Y-78270189D01*
X111649999Y-78167485D01*
X111650000Y-78167472D01*
X111650000Y-77217500D01*
X110350001Y-77217500D01*
X110375021Y-77157098D01*
X110400000Y-77031519D01*
X110400000Y-76903481D01*
X110387958Y-76842941D01*
X112849500Y-76842941D01*
X112849500Y-77092058D01*
X112849501Y-77092075D01*
X112882017Y-77339061D01*
X112946498Y-77579707D01*
X113041830Y-77809861D01*
X113041837Y-77809876D01*
X113166400Y-78025626D01*
X113318060Y-78223274D01*
X113318066Y-78223281D01*
X113494218Y-78399433D01*
X113494225Y-78399439D01*
X113691873Y-78551099D01*
X113907623Y-78675662D01*
X113907638Y-78675669D01*
X113990075Y-78709815D01*
X114137793Y-78771002D01*
X114378435Y-78835482D01*
X114625435Y-78868000D01*
X114625442Y-78868000D01*
X114874558Y-78868000D01*
X114874565Y-78868000D01*
X115121565Y-78835482D01*
X115362207Y-78771002D01*
X115592373Y-78675664D01*
X115808127Y-78551099D01*
X116005776Y-78399438D01*
X116181938Y-78223276D01*
X116333599Y-78025627D01*
X116458164Y-77809873D01*
X116553502Y-77579707D01*
X116617982Y-77339065D01*
X116650500Y-77092065D01*
X116650500Y-76842935D01*
X116617982Y-76595935D01*
X116553502Y-76355293D01*
X116491764Y-76206245D01*
X116458169Y-76125138D01*
X116458162Y-76125123D01*
X116345593Y-75930147D01*
X116345592Y-75930146D01*
X116333598Y-75909371D01*
X116305700Y-75873013D01*
X121739500Y-75873013D01*
X121739500Y-76061986D01*
X121769059Y-76248618D01*
X121827454Y-76428336D01*
X121844919Y-76462612D01*
X121913240Y-76596699D01*
X122024310Y-76749573D01*
X122157927Y-76883190D01*
X122310801Y-76994260D01*
X122383926Y-77031519D01*
X122479163Y-77080045D01*
X122479165Y-77080045D01*
X122479168Y-77080047D01*
X122575497Y-77111346D01*
X122658881Y-77138440D01*
X122845514Y-77168000D01*
X122845519Y-77168000D01*
X123034480Y-77168000D01*
X123034481Y-77168000D01*
X123071666Y-77162110D01*
X123140958Y-77171064D01*
X123178745Y-77196902D01*
X123611661Y-77629818D01*
X123645146Y-77691141D01*
X123640162Y-77760833D01*
X123611661Y-77805180D01*
X123178745Y-78238096D01*
X123117422Y-78271581D01*
X123071668Y-78272889D01*
X123034483Y-78267000D01*
X123034481Y-78267000D01*
X122845519Y-78267000D01*
X122845514Y-78267000D01*
X122658881Y-78296559D01*
X122479163Y-78354954D01*
X122310800Y-78440740D01*
X122223579Y-78504110D01*
X122157927Y-78551810D01*
X122157925Y-78551812D01*
X122157924Y-78551812D01*
X122024312Y-78685424D01*
X122024312Y-78685425D01*
X122024310Y-78685427D01*
X122006591Y-78709815D01*
X121913240Y-78838300D01*
X121827454Y-79006663D01*
X121769059Y-79186381D01*
X121739500Y-79373013D01*
X121739500Y-79561986D01*
X121769059Y-79748618D01*
X121827454Y-79928336D01*
X121844919Y-79962612D01*
X121913240Y-80096699D01*
X122024310Y-80249573D01*
X122157927Y-80383190D01*
X122310801Y-80494260D01*
X122323209Y-80500582D01*
X122479163Y-80580045D01*
X122479165Y-80580045D01*
X122479168Y-80580047D01*
X122575497Y-80611346D01*
X122658881Y-80638440D01*
X122845514Y-80668000D01*
X122845519Y-80668000D01*
X123034486Y-80668000D01*
X123221118Y-80638440D01*
X123400832Y-80580047D01*
X123569199Y-80494260D01*
X123722073Y-80383190D01*
X123855690Y-80249573D01*
X123966760Y-80096699D01*
X124052547Y-79928332D01*
X124110940Y-79748618D01*
X124119794Y-79692715D01*
X124140500Y-79561986D01*
X124140500Y-79373020D01*
X124134610Y-79335833D01*
X124143564Y-79266540D01*
X124169402Y-79228754D01*
X124561338Y-78836819D01*
X124622661Y-78803334D01*
X124649019Y-78800500D01*
X129350151Y-78800500D01*
X129417190Y-78820185D01*
X129462945Y-78872989D01*
X129472889Y-78942147D01*
X129460636Y-78980795D01*
X129447454Y-79006664D01*
X129389059Y-79186381D01*
X129359500Y-79373013D01*
X129359500Y-79561986D01*
X129389059Y-79748618D01*
X129447454Y-79928336D01*
X129464919Y-79962612D01*
X129533240Y-80096699D01*
X129644310Y-80249573D01*
X129777927Y-80383190D01*
X129930801Y-80494260D01*
X129943209Y-80500582D01*
X130099163Y-80580045D01*
X130099165Y-80580045D01*
X130099168Y-80580047D01*
X130195497Y-80611346D01*
X130278881Y-80638440D01*
X130465514Y-80668000D01*
X130465519Y-80668000D01*
X130654486Y-80668000D01*
X130841118Y-80638440D01*
X131020832Y-80580047D01*
X131189199Y-80494260D01*
X131342073Y-80383190D01*
X131475690Y-80249573D01*
X131586760Y-80096699D01*
X131672547Y-79928332D01*
X131730940Y-79748618D01*
X131739726Y-79693147D01*
X131751256Y-79620350D01*
X131781185Y-79557215D01*
X131840497Y-79520284D01*
X131910359Y-79521282D01*
X131961410Y-79552067D01*
X133553181Y-81143838D01*
X133586666Y-81205161D01*
X133589500Y-81231518D01*
X133589500Y-81405000D01*
X133589501Y-81405019D01*
X133600000Y-81507796D01*
X133600001Y-81507799D01*
X133616818Y-81558548D01*
X133655186Y-81674334D01*
X133747288Y-81823656D01*
X133871344Y-81947712D01*
X134020666Y-82039814D01*
X134187203Y-82094999D01*
X134289991Y-82105500D01*
X135490008Y-82105499D01*
X135592797Y-82094999D01*
X135759334Y-82039814D01*
X135908656Y-81947712D01*
X136032712Y-81823656D01*
X136124814Y-81674334D01*
X136151955Y-81592427D01*
X136191726Y-81534984D01*
X136256242Y-81508161D01*
X136325018Y-81520476D01*
X136369977Y-81558547D01*
X136416475Y-81622545D01*
X136438034Y-81652219D01*
X136582786Y-81796971D01*
X136703226Y-81884474D01*
X136748390Y-81917287D01*
X136863811Y-81976097D01*
X136930776Y-82010218D01*
X136930778Y-82010218D01*
X136930781Y-82010220D01*
X137021856Y-82039812D01*
X137125465Y-82073477D01*
X137226557Y-82089488D01*
X137327648Y-82105500D01*
X137327649Y-82105500D01*
X137532351Y-82105500D01*
X137532352Y-82105500D01*
X137734534Y-82073477D01*
X137929219Y-82010220D01*
X138111610Y-81917287D01*
X138240482Y-81823657D01*
X138277213Y-81796971D01*
X138277215Y-81796968D01*
X138277219Y-81796966D01*
X138421966Y-81652219D01*
X138421968Y-81652215D01*
X138421971Y-81652213D01*
X138542284Y-81486614D01*
X138542286Y-81486611D01*
X138542287Y-81486610D01*
X138589516Y-81393917D01*
X138637489Y-81343123D01*
X138705310Y-81326328D01*
X138771445Y-81348865D01*
X138810483Y-81393917D01*
X138854348Y-81480006D01*
X138857715Y-81486614D01*
X138978028Y-81652213D01*
X139122786Y-81796971D01*
X139243226Y-81884474D01*
X139288390Y-81917287D01*
X139403811Y-81976097D01*
X139470776Y-82010218D01*
X139470778Y-82010218D01*
X139470781Y-82010220D01*
X139561856Y-82039812D01*
X139665465Y-82073477D01*
X139766557Y-82089488D01*
X139867648Y-82105500D01*
X139867649Y-82105500D01*
X140072351Y-82105500D01*
X140072352Y-82105500D01*
X140274534Y-82073477D01*
X140469219Y-82010220D01*
X140651610Y-81917287D01*
X140780482Y-81823657D01*
X140817213Y-81796971D01*
X140817215Y-81796968D01*
X140817219Y-81796966D01*
X140961966Y-81652219D01*
X140961968Y-81652215D01*
X140961971Y-81652213D01*
X141054142Y-81525349D01*
X141082287Y-81486610D01*
X141129795Y-81393369D01*
X141177769Y-81342573D01*
X141245590Y-81325778D01*
X141311725Y-81348315D01*
X141350765Y-81393369D01*
X141398141Y-81486350D01*
X141398147Y-81486359D01*
X141430523Y-81530921D01*
X141430524Y-81530922D01*
X142110000Y-80851446D01*
X142110000Y-80857661D01*
X142137259Y-80959394D01*
X142189920Y-81050606D01*
X142264394Y-81125080D01*
X142355606Y-81177741D01*
X142457339Y-81205000D01*
X142463553Y-81205000D01*
X141784076Y-81884474D01*
X141828650Y-81916859D01*
X142010968Y-82009755D01*
X142205582Y-82072990D01*
X142407683Y-82105000D01*
X142612317Y-82105000D01*
X142814417Y-82072990D01*
X143009031Y-82009755D01*
X143191349Y-81916859D01*
X143235922Y-81884474D01*
X142556447Y-81205000D01*
X142562661Y-81205000D01*
X142664394Y-81177741D01*
X142755606Y-81125080D01*
X142830080Y-81050606D01*
X142882741Y-80959394D01*
X142910000Y-80857661D01*
X142910000Y-80851448D01*
X143589474Y-81530922D01*
X143589474Y-81530921D01*
X143621859Y-81486349D01*
X143714755Y-81304031D01*
X143777990Y-81109417D01*
X143810000Y-80907317D01*
X143810000Y-80702682D01*
X143777990Y-80500582D01*
X143737909Y-80377227D01*
X143726777Y-80342966D01*
X148350000Y-80342966D01*
X148350000Y-80592033D01*
X148382508Y-80838963D01*
X148446973Y-81079549D01*
X148542283Y-81309648D01*
X148542288Y-81309659D01*
X148666813Y-81525341D01*
X148666819Y-81525349D01*
X148741400Y-81622545D01*
X149648958Y-80714987D01*
X149673978Y-80775390D01*
X149745112Y-80881851D01*
X149835649Y-80972388D01*
X149942110Y-81043522D01*
X150002511Y-81068541D01*
X149094953Y-81976098D01*
X149192150Y-82050680D01*
X149192158Y-82050686D01*
X149407840Y-82175211D01*
X149407851Y-82175216D01*
X149637950Y-82270526D01*
X149878536Y-82334991D01*
X150125466Y-82367500D01*
X150374534Y-82367500D01*
X150621463Y-82334991D01*
X150862049Y-82270526D01*
X151092148Y-82175216D01*
X151092159Y-82175211D01*
X151307855Y-82050678D01*
X151405045Y-81976100D01*
X151405045Y-81976097D01*
X150497488Y-81068541D01*
X150557890Y-81043522D01*
X150664351Y-80972388D01*
X150754888Y-80881851D01*
X150826022Y-80775390D01*
X150851041Y-80714988D01*
X151758597Y-81622545D01*
X151758600Y-81622545D01*
X151833178Y-81525355D01*
X151957711Y-81309659D01*
X151957716Y-81309648D01*
X152053026Y-81079549D01*
X152117491Y-80838963D01*
X152150000Y-80592033D01*
X152150000Y-80342966D01*
X152117491Y-80096036D01*
X152053026Y-79855450D01*
X151957716Y-79625351D01*
X151957711Y-79625340D01*
X151833186Y-79409658D01*
X151833180Y-79409650D01*
X151758598Y-79312453D01*
X150851041Y-80220010D01*
X150826022Y-80159610D01*
X150754888Y-80053149D01*
X150664351Y-79962612D01*
X150557890Y-79891478D01*
X150497487Y-79866457D01*
X151405045Y-78958900D01*
X151307849Y-78884319D01*
X151307841Y-78884313D01*
X151092159Y-78759788D01*
X151092148Y-78759783D01*
X150862049Y-78664473D01*
X150621463Y-78600008D01*
X150374534Y-78567500D01*
X150125466Y-78567500D01*
X149878536Y-78600008D01*
X149637950Y-78664473D01*
X149407851Y-78759783D01*
X149407847Y-78759785D01*
X149192143Y-78884323D01*
X149094953Y-78958899D01*
X149094953Y-78958900D01*
X150002511Y-79866458D01*
X149942110Y-79891478D01*
X149835649Y-79962612D01*
X149745112Y-80053149D01*
X149673978Y-80159610D01*
X149648958Y-80220011D01*
X148741400Y-79312453D01*
X148741399Y-79312453D01*
X148666823Y-79409643D01*
X148542285Y-79625347D01*
X148542283Y-79625351D01*
X148446973Y-79855450D01*
X148382508Y-80096036D01*
X148350000Y-80342966D01*
X143726777Y-80342966D01*
X143714755Y-80305968D01*
X143621859Y-80123650D01*
X143589474Y-80079077D01*
X143589474Y-80079076D01*
X142910000Y-80758551D01*
X142910000Y-80752339D01*
X142882741Y-80650606D01*
X142830080Y-80559394D01*
X142755606Y-80484920D01*
X142664394Y-80432259D01*
X142562661Y-80405000D01*
X142556446Y-80405000D01*
X143235922Y-79725524D01*
X143235921Y-79725523D01*
X143191359Y-79693147D01*
X143191350Y-79693141D01*
X143009031Y-79600244D01*
X142814417Y-79537009D01*
X142612317Y-79505000D01*
X142407683Y-79505000D01*
X142205582Y-79537009D01*
X142010968Y-79600244D01*
X141828644Y-79693143D01*
X141784077Y-79725523D01*
X141784077Y-79725524D01*
X142463554Y-80405000D01*
X142457339Y-80405000D01*
X142355606Y-80432259D01*
X142264394Y-80484920D01*
X142189920Y-80559394D01*
X142137259Y-80650606D01*
X142110000Y-80752339D01*
X142110000Y-80758553D01*
X141430524Y-80079077D01*
X141430523Y-80079077D01*
X141398143Y-80123644D01*
X141350765Y-80216630D01*
X141302790Y-80267426D01*
X141234969Y-80284221D01*
X141168834Y-80261683D01*
X141129795Y-80216630D01*
X141082284Y-80123385D01*
X140961971Y-79957786D01*
X140817213Y-79813028D01*
X140651613Y-79692715D01*
X140651612Y-79692714D01*
X140651610Y-79692713D01*
X140594653Y-79663691D01*
X140469223Y-79599781D01*
X140274534Y-79536522D01*
X140099995Y-79508878D01*
X140072352Y-79504500D01*
X139867648Y-79504500D01*
X139843329Y-79508351D01*
X139665465Y-79536522D01*
X139470776Y-79599781D01*
X139288386Y-79692715D01*
X139122786Y-79813028D01*
X138978028Y-79957786D01*
X138857715Y-80123386D01*
X138810485Y-80216080D01*
X138762510Y-80266876D01*
X138694689Y-80283671D01*
X138628554Y-80261134D01*
X138589515Y-80216080D01*
X138588883Y-80214840D01*
X138542287Y-80123390D01*
X138510092Y-80079077D01*
X138421971Y-79957786D01*
X138277213Y-79813028D01*
X138111613Y-79692715D01*
X138111612Y-79692714D01*
X138111610Y-79692713D01*
X138054653Y-79663691D01*
X137929223Y-79599781D01*
X137734534Y-79536522D01*
X137559995Y-79508878D01*
X137532352Y-79504500D01*
X137327648Y-79504500D01*
X137210929Y-79522986D01*
X137141636Y-79514031D01*
X137103851Y-79488194D01*
X136710191Y-79094534D01*
X135671546Y-78055888D01*
X135671545Y-78055887D01*
X135649954Y-78041461D01*
X135606352Y-78012327D01*
X135587566Y-77996909D01*
X134546546Y-76955888D01*
X134546545Y-76955887D01*
X134431807Y-76879222D01*
X134304332Y-76826421D01*
X134304322Y-76826418D01*
X134168996Y-76799500D01*
X134168994Y-76799500D01*
X134168993Y-76799500D01*
X131682162Y-76799500D01*
X131615123Y-76779815D01*
X131569368Y-76727011D01*
X131559424Y-76657853D01*
X131581844Y-76602614D01*
X131586331Y-76596437D01*
X131672085Y-76428137D01*
X131730451Y-76248502D01*
X131760000Y-76061947D01*
X131760000Y-75873052D01*
X131730451Y-75686497D01*
X131672085Y-75506862D01*
X131586329Y-75338559D01*
X131567883Y-75313170D01*
X131567882Y-75313169D01*
X130910000Y-75971051D01*
X130910000Y-75921422D01*
X130886148Y-75832405D01*
X130840070Y-75752595D01*
X130774905Y-75687430D01*
X130695095Y-75641352D01*
X130606078Y-75617500D01*
X130513922Y-75617500D01*
X130424905Y-75641352D01*
X130345095Y-75687430D01*
X130279930Y-75752595D01*
X130233852Y-75832405D01*
X130210000Y-75921422D01*
X130210000Y-75971053D01*
X129552116Y-75313169D01*
X129552116Y-75313170D01*
X129533669Y-75338560D01*
X129447914Y-75506862D01*
X129389548Y-75686497D01*
X129360000Y-75873052D01*
X129360000Y-76061947D01*
X129389548Y-76248502D01*
X129447914Y-76428137D01*
X129533668Y-76596437D01*
X129538156Y-76602614D01*
X129561636Y-76668420D01*
X129545811Y-76736474D01*
X129495706Y-76785169D01*
X129437838Y-76799500D01*
X124814019Y-76799500D01*
X124746980Y-76779815D01*
X124726338Y-76763181D01*
X124169402Y-76206245D01*
X124135917Y-76144922D01*
X124134610Y-76099165D01*
X124136839Y-76085096D01*
X124140500Y-76061981D01*
X124140500Y-75873019D01*
X124140500Y-75873013D01*
X124110940Y-75686381D01*
X124083846Y-75602997D01*
X124052547Y-75506668D01*
X124052545Y-75506665D01*
X124052545Y-75506663D01*
X123972290Y-75349155D01*
X123966760Y-75338301D01*
X123855690Y-75185427D01*
X123722073Y-75051810D01*
X123595179Y-74959616D01*
X129905669Y-74959616D01*
X130560000Y-75613946D01*
X130560001Y-75613946D01*
X131214328Y-74959616D01*
X131188933Y-74941166D01*
X131020637Y-74855414D01*
X130841002Y-74797048D01*
X130654447Y-74767500D01*
X130465553Y-74767500D01*
X130278997Y-74797048D01*
X130099362Y-74855414D01*
X129931060Y-74941169D01*
X129905670Y-74959616D01*
X129905669Y-74959616D01*
X123595179Y-74959616D01*
X123569199Y-74940740D01*
X123400836Y-74854954D01*
X123221118Y-74796559D01*
X123034486Y-74767000D01*
X123034481Y-74767000D01*
X122845519Y-74767000D01*
X122845514Y-74767000D01*
X122658881Y-74796559D01*
X122479163Y-74854954D01*
X122310800Y-74940740D01*
X122223579Y-75004110D01*
X122157927Y-75051810D01*
X122157925Y-75051812D01*
X122157924Y-75051812D01*
X122024312Y-75185424D01*
X122024312Y-75185425D01*
X122024310Y-75185427D01*
X121995425Y-75225184D01*
X121913240Y-75338300D01*
X121827454Y-75506663D01*
X121769059Y-75686381D01*
X121739500Y-75873013D01*
X116305700Y-75873013D01*
X116181939Y-75711725D01*
X116181933Y-75711718D01*
X116005781Y-75535566D01*
X116005774Y-75535560D01*
X115808126Y-75383900D01*
X115592376Y-75259337D01*
X115592361Y-75259330D01*
X115362207Y-75163998D01*
X115121561Y-75099517D01*
X114874575Y-75067001D01*
X114874570Y-75067000D01*
X114874565Y-75067000D01*
X114625435Y-75067000D01*
X114625429Y-75067000D01*
X114625424Y-75067001D01*
X114378438Y-75099517D01*
X114137792Y-75163998D01*
X113907638Y-75259330D01*
X113907623Y-75259337D01*
X113691873Y-75383900D01*
X113494225Y-75535560D01*
X113494218Y-75535566D01*
X113318066Y-75711718D01*
X113318060Y-75711725D01*
X113166400Y-75909373D01*
X113041837Y-76125123D01*
X113041830Y-76125138D01*
X112946498Y-76355292D01*
X112882017Y-76595938D01*
X112849501Y-76842924D01*
X112849500Y-76842941D01*
X110387958Y-76842941D01*
X110375021Y-76777902D01*
X110350001Y-76717500D01*
X111650000Y-76717500D01*
X111650000Y-75767527D01*
X111649999Y-75767514D01*
X111639506Y-75664810D01*
X111639505Y-75664803D01*
X111584358Y-75498381D01*
X111584356Y-75498376D01*
X111492315Y-75349155D01*
X111368344Y-75225184D01*
X111219123Y-75133143D01*
X111219118Y-75133141D01*
X111052696Y-75077994D01*
X111052689Y-75077993D01*
X110949985Y-75067500D01*
X110000000Y-75067500D01*
X110000000Y-76367498D01*
X109939598Y-76342479D01*
X109814019Y-76317500D01*
X109685981Y-76317500D01*
X109560402Y-76342479D01*
X109500000Y-76367498D01*
X109500000Y-75067500D01*
X108550014Y-75067500D01*
X108447310Y-75077993D01*
X108447303Y-75077994D01*
X108280881Y-75133141D01*
X108280876Y-75133143D01*
X108131655Y-75225184D01*
X108007684Y-75349155D01*
X107915643Y-75498376D01*
X107915641Y-75498381D01*
X107860494Y-75664803D01*
X107860493Y-75664810D01*
X107850000Y-75767514D01*
X100500500Y-75767514D01*
X100500500Y-72873013D01*
X121739500Y-72873013D01*
X121739500Y-73061986D01*
X121769059Y-73248618D01*
X121827454Y-73428336D01*
X121903458Y-73577500D01*
X121913240Y-73596699D01*
X122024310Y-73749573D01*
X122157927Y-73883190D01*
X122310801Y-73994260D01*
X122385288Y-74032213D01*
X122479163Y-74080045D01*
X122479165Y-74080045D01*
X122479168Y-74080047D01*
X122575497Y-74111346D01*
X122658881Y-74138440D01*
X122845514Y-74168000D01*
X122845519Y-74168000D01*
X123034486Y-74168000D01*
X123221118Y-74138440D01*
X123400832Y-74080047D01*
X123569199Y-73994260D01*
X123722073Y-73883190D01*
X123855690Y-73749573D01*
X123966760Y-73596699D01*
X124052547Y-73428332D01*
X124110940Y-73248618D01*
X124140499Y-73061990D01*
X124140500Y-73061986D01*
X124140500Y-72873013D01*
X129359500Y-72873013D01*
X129359500Y-73061986D01*
X129389059Y-73248618D01*
X129447454Y-73428336D01*
X129523458Y-73577500D01*
X129533240Y-73596699D01*
X129644310Y-73749573D01*
X129777927Y-73883190D01*
X129930801Y-73994260D01*
X130005288Y-74032213D01*
X130099163Y-74080045D01*
X130099165Y-74080045D01*
X130099168Y-74080047D01*
X130195497Y-74111346D01*
X130278881Y-74138440D01*
X130465514Y-74168000D01*
X130465519Y-74168000D01*
X130654486Y-74168000D01*
X130841118Y-74138440D01*
X131020832Y-74080047D01*
X131189199Y-73994260D01*
X131342073Y-73883190D01*
X131475690Y-73749573D01*
X131586760Y-73596699D01*
X131672547Y-73428332D01*
X131730940Y-73248618D01*
X131757227Y-73082648D01*
X133589500Y-73082648D01*
X133589500Y-73287351D01*
X133621522Y-73489534D01*
X133684781Y-73684223D01*
X133748691Y-73809653D01*
X133768661Y-73848845D01*
X133777715Y-73866613D01*
X133898028Y-74032213D01*
X134042786Y-74176971D01*
X134167369Y-74267484D01*
X134208390Y-74297287D01*
X134324607Y-74356503D01*
X134390776Y-74390218D01*
X134390778Y-74390218D01*
X134390781Y-74390220D01*
X134495137Y-74424127D01*
X134585465Y-74453477D01*
X134686557Y-74469488D01*
X134787648Y-74485500D01*
X134787649Y-74485500D01*
X134992351Y-74485500D01*
X134992352Y-74485500D01*
X135194534Y-74453477D01*
X135389219Y-74390220D01*
X135571610Y-74297287D01*
X135664590Y-74229732D01*
X135737213Y-74176971D01*
X135737215Y-74176968D01*
X135737219Y-74176966D01*
X135881966Y-74032219D01*
X135881968Y-74032215D01*
X135881971Y-74032213D01*
X136002284Y-73866614D01*
X136002285Y-73866613D01*
X136002287Y-73866610D01*
X136049516Y-73773917D01*
X136097489Y-73723123D01*
X136165310Y-73706328D01*
X136231445Y-73728865D01*
X136270485Y-73773919D01*
X136317715Y-73866614D01*
X136438028Y-74032213D01*
X136582786Y-74176971D01*
X136707369Y-74267484D01*
X136748390Y-74297287D01*
X136864607Y-74356503D01*
X136930776Y-74390218D01*
X136930778Y-74390218D01*
X136930781Y-74390220D01*
X137035137Y-74424127D01*
X137125465Y-74453477D01*
X137226557Y-74469488D01*
X137327648Y-74485500D01*
X137327649Y-74485500D01*
X137532351Y-74485500D01*
X137532352Y-74485500D01*
X137734534Y-74453477D01*
X137929219Y-74390220D01*
X138111610Y-74297287D01*
X138204590Y-74229732D01*
X138277213Y-74176971D01*
X138277215Y-74176968D01*
X138277219Y-74176966D01*
X138421966Y-74032219D01*
X138421968Y-74032215D01*
X138421971Y-74032213D01*
X138542284Y-73866614D01*
X138542285Y-73866613D01*
X138542287Y-73866610D01*
X138589516Y-73773917D01*
X138637489Y-73723123D01*
X138705310Y-73706328D01*
X138771445Y-73728865D01*
X138810485Y-73773919D01*
X138857715Y-73866614D01*
X138978028Y-74032213D01*
X139122786Y-74176971D01*
X139247369Y-74267484D01*
X139288390Y-74297287D01*
X139404607Y-74356503D01*
X139470776Y-74390218D01*
X139470778Y-74390218D01*
X139470781Y-74390220D01*
X139575137Y-74424127D01*
X139665465Y-74453477D01*
X139766557Y-74469488D01*
X139867648Y-74485500D01*
X139867649Y-74485500D01*
X140072351Y-74485500D01*
X140072352Y-74485500D01*
X140274534Y-74453477D01*
X140469219Y-74390220D01*
X140651610Y-74297287D01*
X140744590Y-74229732D01*
X140817213Y-74176971D01*
X140817215Y-74176968D01*
X140817219Y-74176966D01*
X140961966Y-74032219D01*
X140961968Y-74032215D01*
X140961971Y-74032213D01*
X141082284Y-73866614D01*
X141082285Y-73866613D01*
X141082287Y-73866610D01*
X141129516Y-73773917D01*
X141177489Y-73723123D01*
X141245310Y-73706328D01*
X141311445Y-73728865D01*
X141350485Y-73773919D01*
X141397715Y-73866614D01*
X141518028Y-74032213D01*
X141662786Y-74176971D01*
X141787369Y-74267484D01*
X141828390Y-74297287D01*
X141944607Y-74356503D01*
X142010776Y-74390218D01*
X142010778Y-74390218D01*
X142010781Y-74390220D01*
X142115137Y-74424127D01*
X142205465Y-74453477D01*
X142306557Y-74469488D01*
X142407648Y-74485500D01*
X142407649Y-74485500D01*
X142612351Y-74485500D01*
X142612352Y-74485500D01*
X142814534Y-74453477D01*
X143009219Y-74390220D01*
X143191610Y-74297287D01*
X143232630Y-74267484D01*
X148349500Y-74267484D01*
X148349500Y-76667515D01*
X148360000Y-76770295D01*
X148360001Y-76770296D01*
X148415186Y-76936835D01*
X148415187Y-76936837D01*
X148507286Y-77086151D01*
X148507289Y-77086155D01*
X148631344Y-77210210D01*
X148631348Y-77210213D01*
X148780662Y-77302312D01*
X148780664Y-77302313D01*
X148780666Y-77302314D01*
X148947203Y-77357499D01*
X149049992Y-77368000D01*
X149049997Y-77368000D01*
X151450003Y-77368000D01*
X151450008Y-77368000D01*
X151552797Y-77357499D01*
X151719334Y-77302314D01*
X151868655Y-77210211D01*
X151992711Y-77086155D01*
X152084814Y-76936834D01*
X152139999Y-76770297D01*
X152150500Y-76667508D01*
X152150500Y-74267492D01*
X152139999Y-74164703D01*
X152084814Y-73998166D01*
X152082404Y-73994259D01*
X151992713Y-73848848D01*
X151992710Y-73848844D01*
X151868655Y-73724789D01*
X151868651Y-73724786D01*
X151719337Y-73632687D01*
X151719335Y-73632686D01*
X151636065Y-73605093D01*
X151552797Y-73577501D01*
X151552795Y-73577500D01*
X151450015Y-73567000D01*
X151450008Y-73567000D01*
X149049992Y-73567000D01*
X149049984Y-73567000D01*
X148947204Y-73577500D01*
X148947203Y-73577501D01*
X148780664Y-73632686D01*
X148780662Y-73632687D01*
X148631348Y-73724786D01*
X148631344Y-73724789D01*
X148507289Y-73848844D01*
X148507286Y-73848848D01*
X148415187Y-73998162D01*
X148415186Y-73998164D01*
X148360001Y-74164703D01*
X148360000Y-74164704D01*
X148349500Y-74267484D01*
X143232630Y-74267484D01*
X143284590Y-74229732D01*
X143357213Y-74176971D01*
X143357215Y-74176968D01*
X143357219Y-74176966D01*
X143501966Y-74032219D01*
X143501968Y-74032215D01*
X143501971Y-74032213D01*
X143554732Y-73959590D01*
X143622287Y-73866610D01*
X143715220Y-73684219D01*
X143778477Y-73489534D01*
X143810500Y-73287352D01*
X143810500Y-73082648D01*
X143778477Y-72880466D01*
X143776057Y-72873019D01*
X143715218Y-72685776D01*
X143669515Y-72596080D01*
X143622287Y-72503390D01*
X143614556Y-72492749D01*
X143501971Y-72337786D01*
X143357213Y-72193028D01*
X143191613Y-72072715D01*
X143191612Y-72072714D01*
X143191610Y-72072713D01*
X143134653Y-72043691D01*
X143009223Y-71979781D01*
X142814534Y-71916522D01*
X142639995Y-71888878D01*
X142612352Y-71884500D01*
X142407648Y-71884500D01*
X142383329Y-71888351D01*
X142205465Y-71916522D01*
X142010776Y-71979781D01*
X141828386Y-72072715D01*
X141662786Y-72193028D01*
X141518028Y-72337786D01*
X141397715Y-72503386D01*
X141350485Y-72596080D01*
X141302510Y-72646876D01*
X141234689Y-72663671D01*
X141168554Y-72641134D01*
X141129515Y-72596080D01*
X141128883Y-72594840D01*
X141082287Y-72503390D01*
X141074556Y-72492749D01*
X140961971Y-72337786D01*
X140817213Y-72193028D01*
X140651613Y-72072715D01*
X140651612Y-72072714D01*
X140651610Y-72072713D01*
X140594653Y-72043691D01*
X140469223Y-71979781D01*
X140274534Y-71916522D01*
X140099995Y-71888878D01*
X140072352Y-71884500D01*
X139867648Y-71884500D01*
X139843329Y-71888351D01*
X139665465Y-71916522D01*
X139470776Y-71979781D01*
X139288386Y-72072715D01*
X139122786Y-72193028D01*
X138978028Y-72337786D01*
X138857715Y-72503386D01*
X138810485Y-72596080D01*
X138762510Y-72646876D01*
X138694689Y-72663671D01*
X138628554Y-72641134D01*
X138589515Y-72596080D01*
X138588883Y-72594840D01*
X138542287Y-72503390D01*
X138534556Y-72492749D01*
X138421971Y-72337786D01*
X138277213Y-72193028D01*
X138111613Y-72072715D01*
X138111612Y-72072714D01*
X138111610Y-72072713D01*
X138054653Y-72043691D01*
X137929223Y-71979781D01*
X137734534Y-71916522D01*
X137559995Y-71888878D01*
X137532352Y-71884500D01*
X137327648Y-71884500D01*
X137303329Y-71888351D01*
X137125465Y-71916522D01*
X136930776Y-71979781D01*
X136748386Y-72072715D01*
X136582786Y-72193028D01*
X136438028Y-72337786D01*
X136317715Y-72503386D01*
X136270485Y-72596080D01*
X136222510Y-72646876D01*
X136154689Y-72663671D01*
X136088554Y-72641134D01*
X136049515Y-72596080D01*
X136048883Y-72594840D01*
X136002287Y-72503390D01*
X135994556Y-72492749D01*
X135881971Y-72337786D01*
X135737213Y-72193028D01*
X135571613Y-72072715D01*
X135571612Y-72072714D01*
X135571610Y-72072713D01*
X135514653Y-72043691D01*
X135389223Y-71979781D01*
X135194534Y-71916522D01*
X135019995Y-71888878D01*
X134992352Y-71884500D01*
X134787648Y-71884500D01*
X134763329Y-71888351D01*
X134585465Y-71916522D01*
X134390776Y-71979781D01*
X134208386Y-72072715D01*
X134042786Y-72193028D01*
X133898028Y-72337786D01*
X133777715Y-72503386D01*
X133684781Y-72685776D01*
X133621522Y-72880465D01*
X133589500Y-73082648D01*
X131757227Y-73082648D01*
X131760499Y-73061990D01*
X131760500Y-73061988D01*
X131760500Y-72873013D01*
X131730940Y-72686381D01*
X131672545Y-72506663D01*
X131586759Y-72338300D01*
X131586382Y-72337781D01*
X131475690Y-72185427D01*
X131342073Y-72051810D01*
X131189199Y-71940740D01*
X131020836Y-71854954D01*
X130841118Y-71796559D01*
X130654486Y-71767000D01*
X130654481Y-71767000D01*
X130465519Y-71767000D01*
X130465514Y-71767000D01*
X130278881Y-71796559D01*
X130099163Y-71854954D01*
X129930800Y-71940740D01*
X129877067Y-71979780D01*
X129777927Y-72051810D01*
X129777925Y-72051812D01*
X129777924Y-72051812D01*
X129644312Y-72185424D01*
X129644312Y-72185425D01*
X129644310Y-72185427D01*
X129596610Y-72251079D01*
X129533240Y-72338300D01*
X129447454Y-72506663D01*
X129389059Y-72686381D01*
X129359500Y-72873013D01*
X124140500Y-72873013D01*
X124110940Y-72686381D01*
X124052545Y-72506663D01*
X123966759Y-72338300D01*
X123966382Y-72337781D01*
X123855690Y-72185427D01*
X123722073Y-72051810D01*
X123569199Y-71940740D01*
X123400836Y-71854954D01*
X123221118Y-71796559D01*
X123034486Y-71767000D01*
X123034481Y-71767000D01*
X122845519Y-71767000D01*
X122845514Y-71767000D01*
X122658881Y-71796559D01*
X122479163Y-71854954D01*
X122310800Y-71940740D01*
X122257067Y-71979780D01*
X122157927Y-72051810D01*
X122157925Y-72051812D01*
X122157924Y-72051812D01*
X122024312Y-72185424D01*
X122024312Y-72185425D01*
X122024310Y-72185427D01*
X121976610Y-72251079D01*
X121913240Y-72338300D01*
X121827454Y-72506663D01*
X121769059Y-72686381D01*
X121739500Y-72873013D01*
X100500500Y-72873013D01*
X100500500Y-70624500D01*
X100520185Y-70557461D01*
X100572989Y-70511706D01*
X100624500Y-70500500D01*
X159375500Y-70500500D01*
X159442539Y-70520185D01*
G37*
%TD.AperFunction*%
%TD*%
M02*
