%TF.GenerationSoftware,KiCad,Pcbnew,10.0.1*%
%TF.CreationDate,2026-05-06T13:51:27+02:00*%
%TF.ProjectId,Przetwornica Boost,50727a65-7477-46f7-926e-69636120426f,rev?*%
%TF.SameCoordinates,Original*%
%TF.FileFunction,Soldermask,Bot*%
%TF.FilePolarity,Negative*%
%FSLAX46Y46*%
G04 Gerber Fmt 4.6, Leading zero omitted, Abs format (unit mm)*
G04 Created by KiCad (PCBNEW 10.0.1) date 2026-05-06 13:51:27*
%MOMM*%
%LPD*%
G01*
G04 APERTURE LIST*
G04 APERTURE END LIST*
G36*
X126683199Y-125130142D02*
G01*
X126809978Y-125182655D01*
X126924075Y-125258893D01*
X127021107Y-125355925D01*
X127097345Y-125470022D01*
X127149858Y-125596801D01*
X127176629Y-125731388D01*
X127176629Y-125868612D01*
X127149858Y-126003199D01*
X127097345Y-126129978D01*
X127021107Y-126244075D01*
X126924075Y-126341107D01*
X126809978Y-126417345D01*
X126683199Y-126469858D01*
X126548612Y-126496629D01*
X126411388Y-126496629D01*
X126276801Y-126469858D01*
X126150022Y-126417345D01*
X126035925Y-126341107D01*
X125938893Y-126244075D01*
X125862655Y-126129978D01*
X125810142Y-126003199D01*
X125783371Y-125868612D01*
X125783371Y-125731388D01*
X125810142Y-125596801D01*
X125862655Y-125470022D01*
X125938893Y-125355925D01*
X126035925Y-125258893D01*
X126150022Y-125182655D01*
X126276801Y-125130142D01*
X126411388Y-125103371D01*
X126548612Y-125103371D01*
X126683199Y-125130142D01*
G37*
G36*
X134303199Y-125130142D02*
G01*
X134429978Y-125182655D01*
X134544075Y-125258893D01*
X134641107Y-125355925D01*
X134717345Y-125470022D01*
X134769858Y-125596801D01*
X134796629Y-125731388D01*
X134796629Y-125868612D01*
X134769858Y-126003199D01*
X134717345Y-126129978D01*
X134641107Y-126244075D01*
X134544075Y-126341107D01*
X134429978Y-126417345D01*
X134303199Y-126469858D01*
X134168612Y-126496629D01*
X134031388Y-126496629D01*
X133896801Y-126469858D01*
X133770022Y-126417345D01*
X133655925Y-126341107D01*
X133558893Y-126244075D01*
X133482655Y-126129978D01*
X133430142Y-126003199D01*
X133403371Y-125868612D01*
X133403371Y-125731388D01*
X133430142Y-125596801D01*
X133482655Y-125470022D01*
X133558893Y-125355925D01*
X133655925Y-125258893D01*
X133770022Y-125182655D01*
X133896801Y-125130142D01*
X134031388Y-125103371D01*
X134168612Y-125103371D01*
X134303199Y-125130142D01*
G37*
G36*
X110032228Y-124216948D02*
G01*
X110177117Y-124276963D01*
X110307515Y-124364092D01*
X110418408Y-124474985D01*
X110505537Y-124605383D01*
X110565552Y-124750272D01*
X110596148Y-124904086D01*
X110596148Y-125060914D01*
X110565552Y-125214728D01*
X110505537Y-125359617D01*
X110418408Y-125490015D01*
X110307515Y-125600908D01*
X110177117Y-125688037D01*
X110032228Y-125748052D01*
X109878414Y-125778648D01*
X109721586Y-125778648D01*
X109567772Y-125748052D01*
X109422883Y-125688037D01*
X109292485Y-125600908D01*
X109181592Y-125490015D01*
X109094463Y-125359617D01*
X109034448Y-125214728D01*
X109003852Y-125060914D01*
X109003852Y-124904086D01*
X109034448Y-124750272D01*
X109094463Y-124605383D01*
X109181592Y-124474985D01*
X109292485Y-124364092D01*
X109422883Y-124276963D01*
X109567772Y-124216948D01*
X109721586Y-124186352D01*
X109878414Y-124186352D01*
X110032228Y-124216948D01*
G37*
G36*
X122732228Y-124216948D02*
G01*
X122877117Y-124276963D01*
X123007515Y-124364092D01*
X123118408Y-124474985D01*
X123205537Y-124605383D01*
X123265552Y-124750272D01*
X123296148Y-124904086D01*
X123296148Y-125060914D01*
X123265552Y-125214728D01*
X123205537Y-125359617D01*
X123118408Y-125490015D01*
X123007515Y-125600908D01*
X122877117Y-125688037D01*
X122732228Y-125748052D01*
X122578414Y-125778648D01*
X122421586Y-125778648D01*
X122267772Y-125748052D01*
X122122883Y-125688037D01*
X121992485Y-125600908D01*
X121881592Y-125490015D01*
X121794463Y-125359617D01*
X121734448Y-125214728D01*
X121703852Y-125060914D01*
X121703852Y-124904086D01*
X121734448Y-124750272D01*
X121794463Y-124605383D01*
X121881592Y-124474985D01*
X121992485Y-124364092D01*
X122122883Y-124276963D01*
X122267772Y-124216948D01*
X122421586Y-124186352D01*
X122578414Y-124186352D01*
X122732228Y-124216948D01*
G37*
G36*
X141914848Y-121383464D02*
G01*
X141965040Y-121389287D01*
X141982189Y-121396859D01*
X142005670Y-121401530D01*
X142030807Y-121418326D01*
X142050695Y-121427108D01*
X142064278Y-121440691D01*
X142086776Y-121455724D01*
X142101808Y-121478221D01*
X142115391Y-121491804D01*
X142124171Y-121511689D01*
X142140970Y-121536830D01*
X142145640Y-121560311D01*
X142153212Y-121577459D01*
X142159036Y-121627663D01*
X142159999Y-121632502D01*
X142159999Y-121635958D01*
X142160000Y-121635967D01*
X142160000Y-122797342D01*
X142160000Y-123932499D01*
X142159034Y-123937351D01*
X142153212Y-123987540D01*
X142145641Y-124004685D01*
X142140970Y-124028170D01*
X142124170Y-124053312D01*
X142115391Y-124073195D01*
X142101810Y-124086775D01*
X142086776Y-124109276D01*
X142064275Y-124124310D01*
X142050695Y-124137891D01*
X142030812Y-124146670D01*
X142005670Y-124163470D01*
X141982187Y-124168140D01*
X141965040Y-124175712D01*
X141914836Y-124181536D01*
X141909998Y-124182499D01*
X141906541Y-124182499D01*
X141906533Y-124182500D01*
X139613467Y-124182500D01*
X139613466Y-124182499D01*
X139610001Y-124182500D01*
X139605149Y-124181535D01*
X139554959Y-124175712D01*
X139537812Y-124168140D01*
X139514330Y-124163470D01*
X139489189Y-124146671D01*
X139469304Y-124137891D01*
X139455721Y-124124308D01*
X139433224Y-124109276D01*
X139418191Y-124086778D01*
X139404608Y-124073195D01*
X139395826Y-124053307D01*
X139379030Y-124028170D01*
X139374360Y-124004691D01*
X139366787Y-123987540D01*
X139360963Y-123937336D01*
X139360001Y-123932498D01*
X139360000Y-123929040D01*
X139360000Y-123929032D01*
X139360000Y-121635967D01*
X139360000Y-121635966D01*
X139360000Y-121632501D01*
X139360964Y-121627651D01*
X139366787Y-121577459D01*
X139374359Y-121560308D01*
X139379030Y-121536830D01*
X139395825Y-121511693D01*
X139404608Y-121491804D01*
X139418193Y-121478218D01*
X139433224Y-121455724D01*
X139455718Y-121440693D01*
X139469304Y-121427108D01*
X139489193Y-121418325D01*
X139514330Y-121401530D01*
X139537807Y-121396860D01*
X139554959Y-121389287D01*
X139605165Y-121383463D01*
X139610002Y-121382501D01*
X139613458Y-121382500D01*
X139613467Y-121382500D01*
X141906533Y-121382500D01*
X141909999Y-121382500D01*
X141914848Y-121383464D01*
G37*
G36*
X146086824Y-121421182D02*
G01*
X146295757Y-121489069D01*
X146491498Y-121588804D01*
X146669227Y-121717932D01*
X146824568Y-121873273D01*
X146953696Y-122051002D01*
X147053431Y-122246743D01*
X147121318Y-122455676D01*
X147155684Y-122672657D01*
X147155684Y-122892343D01*
X147121318Y-123109324D01*
X147053431Y-123318257D01*
X146953696Y-123513998D01*
X146824568Y-123691727D01*
X146669227Y-123847068D01*
X146491498Y-123976196D01*
X146295757Y-124075931D01*
X146086824Y-124143818D01*
X145869843Y-124178184D01*
X145650157Y-124178184D01*
X145433176Y-124143818D01*
X145224243Y-124075931D01*
X145028502Y-123976196D01*
X144850773Y-123847068D01*
X144695432Y-123691727D01*
X144566304Y-123513998D01*
X144466569Y-123318257D01*
X144398682Y-123109324D01*
X144364316Y-122892343D01*
X144364316Y-122672657D01*
X144398682Y-122455676D01*
X144466569Y-122246743D01*
X144566304Y-122051002D01*
X144695432Y-121873273D01*
X144850773Y-121717932D01*
X145028502Y-121588804D01*
X145224243Y-121489069D01*
X145433176Y-121421182D01*
X145650157Y-121386816D01*
X145869843Y-121386816D01*
X146086824Y-121421182D01*
G37*
G36*
X126643199Y-121797642D02*
G01*
X126769978Y-121850155D01*
X126884075Y-121926393D01*
X126981107Y-122023425D01*
X127057345Y-122137522D01*
X127109858Y-122264301D01*
X127136629Y-122398888D01*
X127136629Y-122536112D01*
X127109858Y-122670699D01*
X127057345Y-122797478D01*
X126981107Y-122911575D01*
X126884075Y-123008607D01*
X126769978Y-123084845D01*
X126643199Y-123137358D01*
X126508612Y-123164129D01*
X126371388Y-123164129D01*
X126236801Y-123137358D01*
X126110022Y-123084845D01*
X125995925Y-123008607D01*
X125898893Y-122911575D01*
X125822655Y-122797478D01*
X125770142Y-122670699D01*
X125743371Y-122536112D01*
X125743371Y-122398888D01*
X125770142Y-122264301D01*
X125822655Y-122137522D01*
X125898893Y-122023425D01*
X125995925Y-121926393D01*
X126110022Y-121850155D01*
X126236801Y-121797642D01*
X126371388Y-121770871D01*
X126508612Y-121770871D01*
X126643199Y-121797642D01*
G37*
G36*
X134263199Y-121797642D02*
G01*
X134389978Y-121850155D01*
X134504075Y-121926393D01*
X134601107Y-122023425D01*
X134677345Y-122137522D01*
X134729858Y-122264301D01*
X134756629Y-122398888D01*
X134756629Y-122536112D01*
X134729858Y-122670699D01*
X134677345Y-122797478D01*
X134601107Y-122911575D01*
X134504075Y-123008607D01*
X134389978Y-123084845D01*
X134263199Y-123137358D01*
X134128612Y-123164129D01*
X133991388Y-123164129D01*
X133856801Y-123137358D01*
X133730022Y-123084845D01*
X133615925Y-123008607D01*
X133518893Y-122911575D01*
X133442655Y-122797478D01*
X133390142Y-122670699D01*
X133363371Y-122536112D01*
X133363371Y-122398888D01*
X133390142Y-122264301D01*
X133442655Y-122137522D01*
X133518893Y-122023425D01*
X133615925Y-121926393D01*
X133730022Y-121850155D01*
X133856801Y-121797642D01*
X133991388Y-121770871D01*
X134128612Y-121770871D01*
X134263199Y-121797642D01*
G37*
G36*
X152700861Y-119664587D02*
G01*
X152883996Y-119701014D01*
X153056505Y-119772470D01*
X153211760Y-119876208D01*
X153343792Y-120008240D01*
X153447530Y-120163495D01*
X153518986Y-120336004D01*
X153555413Y-120519139D01*
X153555413Y-120705861D01*
X153518986Y-120888996D01*
X153447530Y-121061505D01*
X153343792Y-121216760D01*
X153211760Y-121348792D01*
X153056505Y-121452530D01*
X152883996Y-121523986D01*
X152700861Y-121560413D01*
X152607500Y-121565000D01*
X152606022Y-121565000D01*
X152513978Y-121565000D01*
X152512500Y-121565000D01*
X152419139Y-121560413D01*
X152236004Y-121523986D01*
X152063495Y-121452530D01*
X151908240Y-121348792D01*
X151776208Y-121216760D01*
X151672470Y-121061505D01*
X151601014Y-120888996D01*
X151564587Y-120705861D01*
X151564587Y-120519139D01*
X151601014Y-120336004D01*
X151672470Y-120163495D01*
X151776208Y-120008240D01*
X151908240Y-119876208D01*
X152063495Y-119772470D01*
X152236004Y-119701014D01*
X152419139Y-119664587D01*
X152512500Y-119660000D01*
X152607500Y-119660000D01*
X152700861Y-119664587D01*
G37*
G36*
X110092228Y-119716948D02*
G01*
X110237117Y-119776963D01*
X110367515Y-119864092D01*
X110478408Y-119974985D01*
X110565537Y-120105383D01*
X110625552Y-120250272D01*
X110656148Y-120404086D01*
X110656148Y-120560914D01*
X110625552Y-120714728D01*
X110565537Y-120859617D01*
X110478408Y-120990015D01*
X110367515Y-121100908D01*
X110237117Y-121188037D01*
X110092228Y-121248052D01*
X109938414Y-121278648D01*
X109781586Y-121278648D01*
X109627772Y-121248052D01*
X109482883Y-121188037D01*
X109352485Y-121100908D01*
X109241592Y-120990015D01*
X109154463Y-120859617D01*
X109094448Y-120714728D01*
X109063852Y-120560914D01*
X109063852Y-120404086D01*
X109094448Y-120250272D01*
X109154463Y-120105383D01*
X109241592Y-119974985D01*
X109352485Y-119864092D01*
X109482883Y-119776963D01*
X109627772Y-119716948D01*
X109781586Y-119686352D01*
X109938414Y-119686352D01*
X110092228Y-119716948D01*
G37*
G36*
X122792228Y-119716948D02*
G01*
X122937117Y-119776963D01*
X123067515Y-119864092D01*
X123178408Y-119974985D01*
X123265537Y-120105383D01*
X123325552Y-120250272D01*
X123356148Y-120404086D01*
X123356148Y-120560914D01*
X123325552Y-120714728D01*
X123265537Y-120859617D01*
X123178408Y-120990015D01*
X123067515Y-121100908D01*
X122937117Y-121188037D01*
X122792228Y-121248052D01*
X122638414Y-121278648D01*
X122481586Y-121278648D01*
X122327772Y-121248052D01*
X122182883Y-121188037D01*
X122052485Y-121100908D01*
X121941592Y-120990015D01*
X121854463Y-120859617D01*
X121794448Y-120714728D01*
X121763852Y-120560914D01*
X121763852Y-120404086D01*
X121794448Y-120250272D01*
X121854463Y-120105383D01*
X121941592Y-119974985D01*
X122052485Y-119864092D01*
X122182883Y-119776963D01*
X122327772Y-119716948D01*
X122481586Y-119686352D01*
X122638414Y-119686352D01*
X122792228Y-119716948D01*
G37*
G36*
X126643199Y-118797642D02*
G01*
X126769978Y-118850155D01*
X126884075Y-118926393D01*
X126981107Y-119023425D01*
X127057345Y-119137522D01*
X127109858Y-119264301D01*
X127136629Y-119398888D01*
X127136629Y-119536112D01*
X127109858Y-119670699D01*
X127057345Y-119797478D01*
X126981107Y-119911575D01*
X126884075Y-120008607D01*
X126769978Y-120084845D01*
X126643199Y-120137358D01*
X126508612Y-120164129D01*
X126371388Y-120164129D01*
X126236801Y-120137358D01*
X126110022Y-120084845D01*
X125995925Y-120008607D01*
X125898893Y-119911575D01*
X125822655Y-119797478D01*
X125770142Y-119670699D01*
X125743371Y-119536112D01*
X125743371Y-119398888D01*
X125770142Y-119264301D01*
X125822655Y-119137522D01*
X125898893Y-119023425D01*
X125995925Y-118926393D01*
X126110022Y-118850155D01*
X126236801Y-118797642D01*
X126371388Y-118770871D01*
X126508612Y-118770871D01*
X126643199Y-118797642D01*
G37*
G36*
X134263199Y-118797642D02*
G01*
X134389978Y-118850155D01*
X134504075Y-118926393D01*
X134601107Y-119023425D01*
X134677345Y-119137522D01*
X134729858Y-119264301D01*
X134756629Y-119398888D01*
X134756629Y-119536112D01*
X134729858Y-119670699D01*
X134677345Y-119797478D01*
X134601107Y-119911575D01*
X134504075Y-120008607D01*
X134389978Y-120084845D01*
X134263199Y-120137358D01*
X134128612Y-120164129D01*
X133991388Y-120164129D01*
X133856801Y-120137358D01*
X133730022Y-120084845D01*
X133615925Y-120008607D01*
X133518893Y-119911575D01*
X133442655Y-119797478D01*
X133390142Y-119670699D01*
X133363371Y-119536112D01*
X133363371Y-119398888D01*
X133390142Y-119264301D01*
X133442655Y-119137522D01*
X133518893Y-119023425D01*
X133615925Y-118926393D01*
X133730022Y-118850155D01*
X133856801Y-118797642D01*
X133991388Y-118770871D01*
X134128612Y-118770871D01*
X134263199Y-118797642D01*
G37*
G36*
X152700861Y-117124587D02*
G01*
X152883996Y-117161014D01*
X153056505Y-117232470D01*
X153211760Y-117336208D01*
X153343792Y-117468240D01*
X153447530Y-117623495D01*
X153518986Y-117796004D01*
X153555413Y-117979139D01*
X153555413Y-118165861D01*
X153518986Y-118348996D01*
X153447530Y-118521505D01*
X153343792Y-118676760D01*
X153211760Y-118808792D01*
X153056505Y-118912530D01*
X152883996Y-118983986D01*
X152700861Y-119020413D01*
X152607500Y-119025000D01*
X152606022Y-119025000D01*
X152513978Y-119025000D01*
X152512500Y-119025000D01*
X152419139Y-119020413D01*
X152236004Y-118983986D01*
X152063495Y-118912530D01*
X151908240Y-118808792D01*
X151776208Y-118676760D01*
X151672470Y-118521505D01*
X151601014Y-118348996D01*
X151564587Y-118165861D01*
X151564587Y-117979139D01*
X151601014Y-117796004D01*
X151672470Y-117623495D01*
X151776208Y-117468240D01*
X151908240Y-117336208D01*
X152063495Y-117232470D01*
X152236004Y-117161014D01*
X152419139Y-117124587D01*
X152512500Y-117120000D01*
X152607500Y-117120000D01*
X152700861Y-117124587D01*
G37*
G36*
X153560000Y-116485000D02*
G01*
X151560000Y-116485000D01*
X151560000Y-114580000D01*
X153560000Y-114580000D01*
X153560000Y-116485000D01*
G37*
G36*
X140821256Y-113578754D02*
G01*
X140984257Y-113646271D01*
X141130954Y-113744291D01*
X141255709Y-113869046D01*
X141353729Y-114015743D01*
X141421246Y-114178744D01*
X141455666Y-114351785D01*
X141455666Y-114528215D01*
X141421246Y-114701256D01*
X141353729Y-114864257D01*
X141255709Y-115010954D01*
X141130954Y-115135709D01*
X140984257Y-115233729D01*
X140821256Y-115301246D01*
X140648215Y-115335666D01*
X140471785Y-115335666D01*
X140298744Y-115301246D01*
X140135743Y-115233729D01*
X139989046Y-115135709D01*
X139864291Y-115010954D01*
X139766271Y-114864257D01*
X139698754Y-114701256D01*
X139664334Y-114528215D01*
X139664334Y-114351785D01*
X139698754Y-114178744D01*
X139766271Y-114015743D01*
X139864291Y-113869046D01*
X139989046Y-113744291D01*
X140135743Y-113646271D01*
X140298744Y-113578754D01*
X140471785Y-113544334D01*
X140648215Y-113544334D01*
X140821256Y-113578754D01*
G37*
G36*
X126345000Y-114132500D02*
G01*
X125295000Y-114132500D01*
X125295000Y-112632500D01*
X126345000Y-112632500D01*
X126345000Y-114132500D01*
G37*
G36*
X127290909Y-112672463D02*
G01*
X127409600Y-112740989D01*
X127506511Y-112837900D01*
X127575037Y-112956591D01*
X127610509Y-113088974D01*
X127615000Y-113157500D01*
X127615000Y-113607500D01*
X127610509Y-113676026D01*
X127575037Y-113808409D01*
X127506511Y-113927100D01*
X127409600Y-114024011D01*
X127290909Y-114092537D01*
X127158526Y-114128009D01*
X127021474Y-114128009D01*
X126889091Y-114092537D01*
X126770400Y-114024011D01*
X126673489Y-113927100D01*
X126604963Y-113808409D01*
X126569491Y-113676026D01*
X126565000Y-113607500D01*
X126565000Y-113157500D01*
X126569491Y-113088974D01*
X126604963Y-112956591D01*
X126673489Y-112837900D01*
X126770400Y-112740989D01*
X126889091Y-112672463D01*
X127021474Y-112636991D01*
X127158526Y-112636991D01*
X127290909Y-112672463D01*
G37*
G36*
X128560909Y-112672463D02*
G01*
X128679600Y-112740989D01*
X128776511Y-112837900D01*
X128845037Y-112956591D01*
X128880509Y-113088974D01*
X128885000Y-113157500D01*
X128885000Y-113607500D01*
X128880509Y-113676026D01*
X128845037Y-113808409D01*
X128776511Y-113927100D01*
X128679600Y-114024011D01*
X128560909Y-114092537D01*
X128428526Y-114128009D01*
X128291474Y-114128009D01*
X128159091Y-114092537D01*
X128040400Y-114024011D01*
X127943489Y-113927100D01*
X127874963Y-113808409D01*
X127839491Y-113676026D01*
X127835000Y-113607500D01*
X127835000Y-113157500D01*
X127839491Y-113088974D01*
X127874963Y-112956591D01*
X127943489Y-112837900D01*
X128040400Y-112740989D01*
X128159091Y-112672463D01*
X128291474Y-112636991D01*
X128428526Y-112636991D01*
X128560909Y-112672463D01*
G37*
G36*
X141460000Y-112800000D02*
G01*
X139660000Y-112800000D01*
X139660000Y-111000000D01*
X141460000Y-111000000D01*
X141460000Y-112800000D01*
G37*
G36*
X153869005Y-105993503D02*
G01*
X153999406Y-106047517D01*
X154116763Y-106125932D01*
X154216568Y-106225737D01*
X154294983Y-106343094D01*
X154348997Y-106473495D01*
X154376533Y-106611928D01*
X154376533Y-106753072D01*
X154348997Y-106891505D01*
X154294983Y-107021906D01*
X154216568Y-107139263D01*
X154116763Y-107239068D01*
X153999406Y-107317483D01*
X153869005Y-107371497D01*
X153730572Y-107399033D01*
X153589428Y-107399033D01*
X153450995Y-107371497D01*
X153320594Y-107317483D01*
X153203237Y-107239068D01*
X153103432Y-107139263D01*
X153025017Y-107021906D01*
X152971003Y-106891505D01*
X152943467Y-106753072D01*
X152943467Y-106611928D01*
X152971003Y-106473495D01*
X153025017Y-106343094D01*
X153103432Y-106225737D01*
X153203237Y-106125932D01*
X153320594Y-106047517D01*
X153450995Y-105993503D01*
X153589428Y-105965967D01*
X153730572Y-105965967D01*
X153869005Y-105993503D01*
G37*
G36*
X138546476Y-104482590D02*
G01*
X138736008Y-104544173D01*
X138913573Y-104634647D01*
X139074799Y-104751784D01*
X139215716Y-104892701D01*
X139332853Y-105053927D01*
X139423327Y-105231492D01*
X139484910Y-105421024D01*
X139516085Y-105617857D01*
X139516085Y-105817143D01*
X139484910Y-106013976D01*
X139423327Y-106203508D01*
X139332853Y-106381073D01*
X139215716Y-106542299D01*
X139074799Y-106683216D01*
X138913573Y-106800353D01*
X138736008Y-106890827D01*
X138546476Y-106952410D01*
X138349643Y-106983585D01*
X138150357Y-106983585D01*
X137953524Y-106952410D01*
X137763992Y-106890827D01*
X137586427Y-106800353D01*
X137425201Y-106683216D01*
X137284284Y-106542299D01*
X137167147Y-106381073D01*
X137076673Y-106203508D01*
X137015090Y-106013976D01*
X136983915Y-105817143D01*
X136983915Y-105617857D01*
X137015090Y-105421024D01*
X137076673Y-105231492D01*
X137167147Y-105053927D01*
X137284284Y-104892701D01*
X137425201Y-104751784D01*
X137586427Y-104634647D01*
X137763992Y-104544173D01*
X137953524Y-104482590D01*
X138150357Y-104451415D01*
X138349643Y-104451415D01*
X138546476Y-104482590D01*
G37*
G36*
X153869005Y-103453503D02*
G01*
X153999406Y-103507517D01*
X154116763Y-103585932D01*
X154216568Y-103685737D01*
X154294983Y-103803094D01*
X154348997Y-103933495D01*
X154376533Y-104071928D01*
X154376533Y-104213072D01*
X154348997Y-104351505D01*
X154294983Y-104481906D01*
X154216568Y-104599263D01*
X154116763Y-104699068D01*
X153999406Y-104777483D01*
X153869005Y-104831497D01*
X153730572Y-104859033D01*
X153589428Y-104859033D01*
X153450995Y-104831497D01*
X153320594Y-104777483D01*
X153203237Y-104699068D01*
X153103432Y-104599263D01*
X153025017Y-104481906D01*
X152971003Y-104351505D01*
X152943467Y-104213072D01*
X152943467Y-104071928D01*
X152971003Y-103933495D01*
X153025017Y-103803094D01*
X153103432Y-103685737D01*
X153203237Y-103585932D01*
X153320594Y-103507517D01*
X153450995Y-103453503D01*
X153589428Y-103425967D01*
X153730572Y-103425967D01*
X153869005Y-103453503D01*
G37*
G36*
X118907228Y-102059448D02*
G01*
X119052117Y-102119463D01*
X119182515Y-102206592D01*
X119293408Y-102317485D01*
X119380537Y-102447883D01*
X119440552Y-102592772D01*
X119471148Y-102746586D01*
X119471148Y-102903414D01*
X119440552Y-103057228D01*
X119380537Y-103202117D01*
X119293408Y-103332515D01*
X119182515Y-103443408D01*
X119052117Y-103530537D01*
X118907228Y-103590552D01*
X118753414Y-103621148D01*
X118596586Y-103621148D01*
X118442772Y-103590552D01*
X118297883Y-103530537D01*
X118167485Y-103443408D01*
X118056592Y-103332515D01*
X117969463Y-103202117D01*
X117909448Y-103057228D01*
X117878852Y-102903414D01*
X117878852Y-102746586D01*
X117909448Y-102592772D01*
X117969463Y-102447883D01*
X118056592Y-102317485D01*
X118167485Y-102206592D01*
X118297883Y-102119463D01*
X118442772Y-102059448D01*
X118596586Y-102028852D01*
X118753414Y-102028852D01*
X118907228Y-102059448D01*
G37*
G36*
X123907228Y-102059448D02*
G01*
X124052117Y-102119463D01*
X124182515Y-102206592D01*
X124293408Y-102317485D01*
X124380537Y-102447883D01*
X124440552Y-102592772D01*
X124471148Y-102746586D01*
X124471148Y-102903414D01*
X124440552Y-103057228D01*
X124380537Y-103202117D01*
X124293408Y-103332515D01*
X124182515Y-103443408D01*
X124052117Y-103530537D01*
X123907228Y-103590552D01*
X123753414Y-103621148D01*
X123596586Y-103621148D01*
X123442772Y-103590552D01*
X123297883Y-103530537D01*
X123167485Y-103443408D01*
X123056592Y-103332515D01*
X122969463Y-103202117D01*
X122909448Y-103057228D01*
X122878852Y-102903414D01*
X122878852Y-102746586D01*
X122909448Y-102592772D01*
X122969463Y-102447883D01*
X123056592Y-102317485D01*
X123167485Y-102206592D01*
X123297883Y-102119463D01*
X123442772Y-102059448D01*
X123596586Y-102028852D01*
X123753414Y-102028852D01*
X123907228Y-102059448D01*
G37*
G36*
X153869005Y-100913503D02*
G01*
X153999406Y-100967517D01*
X154116763Y-101045932D01*
X154216568Y-101145737D01*
X154294983Y-101263094D01*
X154348997Y-101393495D01*
X154376533Y-101531928D01*
X154376533Y-101673072D01*
X154348997Y-101811505D01*
X154294983Y-101941906D01*
X154216568Y-102059263D01*
X154116763Y-102159068D01*
X153999406Y-102237483D01*
X153869005Y-102291497D01*
X153730572Y-102319033D01*
X153589428Y-102319033D01*
X153450995Y-102291497D01*
X153320594Y-102237483D01*
X153203237Y-102159068D01*
X153103432Y-102059263D01*
X153025017Y-101941906D01*
X152971003Y-101811505D01*
X152943467Y-101673072D01*
X152943467Y-101531928D01*
X152971003Y-101393495D01*
X153025017Y-101263094D01*
X153103432Y-101145737D01*
X153203237Y-101045932D01*
X153320594Y-100967517D01*
X153450995Y-100913503D01*
X153589428Y-100885967D01*
X153730572Y-100885967D01*
X153869005Y-100913503D01*
G37*
G36*
X112819963Y-98483464D02*
G01*
X112870153Y-98489287D01*
X112887302Y-98496859D01*
X112910784Y-98501530D01*
X112935923Y-98518327D01*
X112955809Y-98527108D01*
X112969390Y-98540689D01*
X112991890Y-98555723D01*
X113006923Y-98578222D01*
X113020504Y-98591803D01*
X113029283Y-98611686D01*
X113046083Y-98636829D01*
X113050754Y-98660312D01*
X113058325Y-98677459D01*
X113064146Y-98727639D01*
X113065113Y-98732500D01*
X113065113Y-99832500D01*
X113064145Y-99837363D01*
X113058325Y-99887540D01*
X113050754Y-99904685D01*
X113046083Y-99928171D01*
X113029282Y-99953315D01*
X113020504Y-99973196D01*
X113006925Y-99986774D01*
X112991890Y-100009277D01*
X112969387Y-100024312D01*
X112955809Y-100037891D01*
X112935928Y-100046669D01*
X112910784Y-100063470D01*
X112887298Y-100068141D01*
X112870153Y-100075712D01*
X112819974Y-100081532D01*
X112815113Y-100082500D01*
X111715113Y-100082500D01*
X111710251Y-100081532D01*
X111660072Y-100075712D01*
X111642925Y-100068141D01*
X111619442Y-100063470D01*
X111594299Y-100046670D01*
X111574416Y-100037891D01*
X111560835Y-100024310D01*
X111538336Y-100009277D01*
X111523302Y-99986777D01*
X111509721Y-99973196D01*
X111500940Y-99953310D01*
X111484143Y-99928171D01*
X111479472Y-99904689D01*
X111471900Y-99887540D01*
X111466077Y-99837349D01*
X111465113Y-99832500D01*
X111465113Y-98732500D01*
X111466077Y-98727650D01*
X111471900Y-98677459D01*
X111479472Y-98660308D01*
X111484143Y-98636829D01*
X111500939Y-98611691D01*
X111509721Y-98591803D01*
X111523304Y-98578219D01*
X111538336Y-98555723D01*
X111560832Y-98540691D01*
X111574416Y-98527108D01*
X111594304Y-98518326D01*
X111619442Y-98501530D01*
X111642921Y-98496859D01*
X111660072Y-98489287D01*
X111710264Y-98483464D01*
X111715113Y-98482500D01*
X112815113Y-98482500D01*
X112819963Y-98483464D01*
G37*
G36*
X109997341Y-98516948D02*
G01*
X110142230Y-98576963D01*
X110272628Y-98664092D01*
X110383521Y-98774985D01*
X110470650Y-98905383D01*
X110530665Y-99050272D01*
X110561261Y-99204086D01*
X110561261Y-99360914D01*
X110530665Y-99514728D01*
X110470650Y-99659617D01*
X110383521Y-99790015D01*
X110272628Y-99900908D01*
X110142230Y-99988037D01*
X109997341Y-100048052D01*
X109843527Y-100078648D01*
X109686699Y-100078648D01*
X109532885Y-100048052D01*
X109387996Y-99988037D01*
X109257598Y-99900908D01*
X109146705Y-99790015D01*
X109059576Y-99659617D01*
X108999561Y-99514728D01*
X108968965Y-99360914D01*
X108968965Y-99204086D01*
X108999561Y-99050272D01*
X109059576Y-98905383D01*
X109146705Y-98774985D01*
X109257598Y-98664092D01*
X109387996Y-98576963D01*
X109532885Y-98516948D01*
X109686699Y-98486352D01*
X109843527Y-98486352D01*
X109997341Y-98516948D01*
G37*
G36*
X153982228Y-96201948D02*
G01*
X154127117Y-96261963D01*
X154257515Y-96349092D01*
X154368408Y-96459985D01*
X154455537Y-96590383D01*
X154515552Y-96735272D01*
X154546148Y-96889086D01*
X154546148Y-97045914D01*
X154515552Y-97199728D01*
X154455537Y-97344617D01*
X154368408Y-97475015D01*
X154257515Y-97585908D01*
X154127117Y-97673037D01*
X153982228Y-97733052D01*
X153828414Y-97763648D01*
X153671586Y-97763648D01*
X153517772Y-97733052D01*
X153372883Y-97673037D01*
X153242485Y-97585908D01*
X153131592Y-97475015D01*
X153044463Y-97344617D01*
X152984448Y-97199728D01*
X152953852Y-97045914D01*
X152953852Y-96889086D01*
X152984448Y-96735272D01*
X153044463Y-96590383D01*
X153131592Y-96459985D01*
X153242485Y-96349092D01*
X153372883Y-96261963D01*
X153517772Y-96201948D01*
X153671586Y-96171352D01*
X153828414Y-96171352D01*
X153982228Y-96201948D01*
G37*
G36*
X138546476Y-91982590D02*
G01*
X138736008Y-92044173D01*
X138913573Y-92134647D01*
X139074799Y-92251784D01*
X139215716Y-92392701D01*
X139332853Y-92553927D01*
X139423327Y-92731492D01*
X139484910Y-92921024D01*
X139516085Y-93117857D01*
X139516085Y-93317143D01*
X139484910Y-93513976D01*
X139423327Y-93703508D01*
X139332853Y-93881073D01*
X139215716Y-94042299D01*
X139074799Y-94183216D01*
X138913573Y-94300353D01*
X138736008Y-94390827D01*
X138546476Y-94452410D01*
X138349643Y-94483585D01*
X138150357Y-94483585D01*
X137953524Y-94452410D01*
X137763992Y-94390827D01*
X137586427Y-94300353D01*
X137425201Y-94183216D01*
X137284284Y-94042299D01*
X137167147Y-93881073D01*
X137076673Y-93703508D01*
X137015090Y-93513976D01*
X136983915Y-93317143D01*
X136983915Y-93117857D01*
X137015090Y-92921024D01*
X137076673Y-92731492D01*
X137167147Y-92553927D01*
X137284284Y-92392701D01*
X137425201Y-92251784D01*
X137586427Y-92134647D01*
X137763992Y-92044173D01*
X137953524Y-91982590D01*
X138150357Y-91951415D01*
X138349643Y-91951415D01*
X138546476Y-91982590D01*
G37*
G36*
X107643199Y-92297642D02*
G01*
X107769978Y-92350155D01*
X107884075Y-92426393D01*
X107981107Y-92523425D01*
X108057345Y-92637522D01*
X108109858Y-92764301D01*
X108136629Y-92898888D01*
X108136629Y-93036112D01*
X108109858Y-93170699D01*
X108057345Y-93297478D01*
X107981107Y-93411575D01*
X107884075Y-93508607D01*
X107769978Y-93584845D01*
X107643199Y-93637358D01*
X107508612Y-93664129D01*
X107371388Y-93664129D01*
X107236801Y-93637358D01*
X107110022Y-93584845D01*
X106995925Y-93508607D01*
X106898893Y-93411575D01*
X106822655Y-93297478D01*
X106770142Y-93170699D01*
X106743371Y-93036112D01*
X106743371Y-92898888D01*
X106770142Y-92764301D01*
X106822655Y-92637522D01*
X106898893Y-92523425D01*
X106995925Y-92426393D01*
X107110022Y-92350155D01*
X107236801Y-92297642D01*
X107371388Y-92270871D01*
X107508612Y-92270871D01*
X107643199Y-92297642D01*
G37*
G36*
X115263199Y-92297642D02*
G01*
X115389978Y-92350155D01*
X115504075Y-92426393D01*
X115601107Y-92523425D01*
X115677345Y-92637522D01*
X115729858Y-92764301D01*
X115756629Y-92898888D01*
X115756629Y-93036112D01*
X115729858Y-93170699D01*
X115677345Y-93297478D01*
X115601107Y-93411575D01*
X115504075Y-93508607D01*
X115389978Y-93584845D01*
X115263199Y-93637358D01*
X115128612Y-93664129D01*
X114991388Y-93664129D01*
X114856801Y-93637358D01*
X114730022Y-93584845D01*
X114615925Y-93508607D01*
X114518893Y-93411575D01*
X114442655Y-93297478D01*
X114390142Y-93170699D01*
X114363371Y-93036112D01*
X114363371Y-92898888D01*
X114390142Y-92764301D01*
X114442655Y-92637522D01*
X114518893Y-92523425D01*
X114615925Y-92426393D01*
X114730022Y-92350155D01*
X114856801Y-92297642D01*
X114991388Y-92270871D01*
X115128612Y-92270871D01*
X115263199Y-92297642D01*
G37*
G36*
X153982228Y-91201948D02*
G01*
X154127117Y-91261963D01*
X154257515Y-91349092D01*
X154368408Y-91459985D01*
X154455537Y-91590383D01*
X154515552Y-91735272D01*
X154546148Y-91889086D01*
X154546148Y-92045914D01*
X154515552Y-92199728D01*
X154455537Y-92344617D01*
X154368408Y-92475015D01*
X154257515Y-92585908D01*
X154127117Y-92673037D01*
X153982228Y-92733052D01*
X153828414Y-92763648D01*
X153671586Y-92763648D01*
X153517772Y-92733052D01*
X153372883Y-92673037D01*
X153242485Y-92585908D01*
X153131592Y-92475015D01*
X153044463Y-92344617D01*
X152984448Y-92199728D01*
X152953852Y-92045914D01*
X152953852Y-91889086D01*
X152984448Y-91735272D01*
X153044463Y-91590383D01*
X153131592Y-91459985D01*
X153242485Y-91349092D01*
X153372883Y-91261963D01*
X153517772Y-91201948D01*
X153671586Y-91171352D01*
X153828414Y-91171352D01*
X153982228Y-91201948D01*
G37*
G36*
X154654850Y-85668464D02*
G01*
X154705040Y-85674287D01*
X154722189Y-85681859D01*
X154745671Y-85686530D01*
X154770810Y-85703327D01*
X154790696Y-85712108D01*
X154804277Y-85725689D01*
X154826777Y-85740723D01*
X154841810Y-85763222D01*
X154855391Y-85776803D01*
X154864170Y-85796686D01*
X154880970Y-85821829D01*
X154885641Y-85845312D01*
X154893212Y-85862459D01*
X154899033Y-85912639D01*
X154900000Y-85917500D01*
X154900000Y-88017500D01*
X154899032Y-88022363D01*
X154893212Y-88072540D01*
X154885641Y-88089685D01*
X154880970Y-88113171D01*
X154864169Y-88138315D01*
X154855391Y-88158196D01*
X154841812Y-88171774D01*
X154826777Y-88194277D01*
X154804274Y-88209312D01*
X154790696Y-88222891D01*
X154770815Y-88231669D01*
X154745671Y-88248470D01*
X154722185Y-88253141D01*
X154705040Y-88260712D01*
X154654861Y-88266532D01*
X154650000Y-88267500D01*
X152550000Y-88267500D01*
X152545138Y-88266532D01*
X152494959Y-88260712D01*
X152477812Y-88253141D01*
X152454329Y-88248470D01*
X152429186Y-88231670D01*
X152409303Y-88222891D01*
X152395722Y-88209310D01*
X152373223Y-88194277D01*
X152358189Y-88171777D01*
X152344608Y-88158196D01*
X152335827Y-88138310D01*
X152319030Y-88113171D01*
X152314359Y-88089689D01*
X152306787Y-88072540D01*
X152300964Y-88022349D01*
X152300000Y-88017500D01*
X152300000Y-85917500D01*
X152300964Y-85912650D01*
X152306787Y-85862459D01*
X152314359Y-85845308D01*
X152319030Y-85821829D01*
X152335826Y-85796691D01*
X152344608Y-85776803D01*
X152358191Y-85763219D01*
X152373223Y-85740723D01*
X152395719Y-85725691D01*
X152409303Y-85712108D01*
X152429191Y-85703326D01*
X152454329Y-85686530D01*
X152477808Y-85681859D01*
X152494959Y-85674287D01*
X152545151Y-85668464D01*
X152550000Y-85667500D01*
X154650000Y-85667500D01*
X154654850Y-85668464D01*
G37*
G36*
X141203479Y-85703419D02*
G01*
X141397488Y-85766457D01*
X141579248Y-85859068D01*
X141744282Y-85978972D01*
X141888528Y-86123218D01*
X142008432Y-86288252D01*
X142101043Y-86470012D01*
X142164081Y-86664021D01*
X142195993Y-86865503D01*
X142195993Y-87069497D01*
X142164081Y-87270979D01*
X142101043Y-87464988D01*
X142008432Y-87646748D01*
X141888528Y-87811782D01*
X141744282Y-87956028D01*
X141579248Y-88075932D01*
X141397488Y-88168543D01*
X141203479Y-88231581D01*
X141001997Y-88263493D01*
X140798003Y-88263493D01*
X140596521Y-88231581D01*
X140402512Y-88168543D01*
X140220752Y-88075932D01*
X140055718Y-87956028D01*
X139911472Y-87811782D01*
X139791568Y-87646748D01*
X139698957Y-87464988D01*
X139635919Y-87270979D01*
X139604007Y-87069497D01*
X139604007Y-86865503D01*
X139635919Y-86664021D01*
X139698957Y-86470012D01*
X139791568Y-86288252D01*
X139911472Y-86123218D01*
X140055718Y-85978972D01*
X140220752Y-85859068D01*
X140402512Y-85766457D01*
X140596521Y-85703419D01*
X140798003Y-85671507D01*
X141001997Y-85671507D01*
X141203479Y-85703419D01*
G37*
G36*
X123632228Y-86201948D02*
G01*
X123777117Y-86261963D01*
X123907515Y-86349092D01*
X124018408Y-86459985D01*
X124105537Y-86590383D01*
X124165552Y-86735272D01*
X124196148Y-86889086D01*
X124196148Y-87045914D01*
X124165552Y-87199728D01*
X124105537Y-87344617D01*
X124018408Y-87475015D01*
X123907515Y-87585908D01*
X123777117Y-87673037D01*
X123632228Y-87733052D01*
X123478414Y-87763648D01*
X123321586Y-87763648D01*
X123167772Y-87733052D01*
X123022883Y-87673037D01*
X122892485Y-87585908D01*
X122781592Y-87475015D01*
X122694463Y-87344617D01*
X122634448Y-87199728D01*
X122603852Y-87045914D01*
X122603852Y-86889086D01*
X122634448Y-86735272D01*
X122694463Y-86590383D01*
X122781592Y-86459985D01*
X122892485Y-86349092D01*
X123022883Y-86261963D01*
X123167772Y-86201948D01*
X123321586Y-86171352D01*
X123478414Y-86171352D01*
X123632228Y-86201948D01*
G37*
G36*
X136332228Y-86201948D02*
G01*
X136477117Y-86261963D01*
X136607515Y-86349092D01*
X136718408Y-86459985D01*
X136805537Y-86590383D01*
X136865552Y-86735272D01*
X136896148Y-86889086D01*
X136896148Y-87045914D01*
X136865552Y-87199728D01*
X136805537Y-87344617D01*
X136718408Y-87475015D01*
X136607515Y-87585908D01*
X136477117Y-87673037D01*
X136332228Y-87733052D01*
X136178414Y-87763648D01*
X136021586Y-87763648D01*
X135867772Y-87733052D01*
X135722883Y-87673037D01*
X135592485Y-87585908D01*
X135481592Y-87475015D01*
X135394463Y-87344617D01*
X135334448Y-87199728D01*
X135303852Y-87045914D01*
X135303852Y-86889086D01*
X135334448Y-86735272D01*
X135394463Y-86590383D01*
X135481592Y-86459985D01*
X135592485Y-86349092D01*
X135722883Y-86261963D01*
X135867772Y-86201948D01*
X136021586Y-86171352D01*
X136178414Y-86171352D01*
X136332228Y-86201948D01*
G37*
G36*
X108967714Y-85749795D02*
G01*
X109103548Y-85806059D01*
X109225795Y-85887742D01*
X109329758Y-85991705D01*
X109411441Y-86113952D01*
X109467705Y-86249786D01*
X109496389Y-86393987D01*
X109496389Y-86541013D01*
X109467705Y-86685214D01*
X109411441Y-86821048D01*
X109329758Y-86943295D01*
X109225795Y-87047258D01*
X109103548Y-87128941D01*
X108967714Y-87185205D01*
X108823513Y-87213889D01*
X108676487Y-87213889D01*
X108532286Y-87185205D01*
X108396452Y-87128941D01*
X108274205Y-87047258D01*
X108170242Y-86943295D01*
X108088559Y-86821048D01*
X108032295Y-86685214D01*
X108003611Y-86541013D01*
X108003611Y-86393987D01*
X108032295Y-86249786D01*
X108088559Y-86113952D01*
X108170242Y-85991705D01*
X108274205Y-85887742D01*
X108396452Y-85806059D01*
X108532286Y-85749795D01*
X108676487Y-85721111D01*
X108823513Y-85721111D01*
X108967714Y-85749795D01*
G37*
G36*
X110967714Y-85749795D02*
G01*
X111103548Y-85806059D01*
X111225795Y-85887742D01*
X111329758Y-85991705D01*
X111411441Y-86113952D01*
X111467705Y-86249786D01*
X111496389Y-86393987D01*
X111496389Y-86541013D01*
X111467705Y-86685214D01*
X111411441Y-86821048D01*
X111329758Y-86943295D01*
X111225795Y-87047258D01*
X111103548Y-87128941D01*
X110967714Y-87185205D01*
X110823513Y-87213889D01*
X110676487Y-87213889D01*
X110532286Y-87185205D01*
X110396452Y-87128941D01*
X110274205Y-87047258D01*
X110170242Y-86943295D01*
X110088559Y-86821048D01*
X110032295Y-86685214D01*
X110003611Y-86541013D01*
X110003611Y-86393987D01*
X110032295Y-86249786D01*
X110088559Y-86113952D01*
X110170242Y-85991705D01*
X110274205Y-85887742D01*
X110396452Y-85806059D01*
X110532286Y-85749795D01*
X110676487Y-85721111D01*
X110823513Y-85721111D01*
X110967714Y-85749795D01*
G37*
G36*
X112967714Y-85749795D02*
G01*
X113103548Y-85806059D01*
X113225795Y-85887742D01*
X113329758Y-85991705D01*
X113411441Y-86113952D01*
X113467705Y-86249786D01*
X113496389Y-86393987D01*
X113496389Y-86541013D01*
X113467705Y-86685214D01*
X113411441Y-86821048D01*
X113329758Y-86943295D01*
X113225795Y-87047258D01*
X113103548Y-87128941D01*
X112967714Y-87185205D01*
X112823513Y-87213889D01*
X112676487Y-87213889D01*
X112532286Y-87185205D01*
X112396452Y-87128941D01*
X112274205Y-87047258D01*
X112170242Y-86943295D01*
X112088559Y-86821048D01*
X112032295Y-86685214D01*
X112003611Y-86541013D01*
X112003611Y-86393987D01*
X112032295Y-86249786D01*
X112088559Y-86113952D01*
X112170242Y-85991705D01*
X112274205Y-85887742D01*
X112396452Y-85806059D01*
X112532286Y-85749795D01*
X112676487Y-85721111D01*
X112823513Y-85721111D01*
X112967714Y-85749795D01*
G37*
G36*
X116967714Y-85749795D02*
G01*
X117103548Y-85806059D01*
X117225795Y-85887742D01*
X117329758Y-85991705D01*
X117411441Y-86113952D01*
X117467705Y-86249786D01*
X117496389Y-86393987D01*
X117496389Y-86541013D01*
X117467705Y-86685214D01*
X117411441Y-86821048D01*
X117329758Y-86943295D01*
X117225795Y-87047258D01*
X117103548Y-87128941D01*
X116967714Y-87185205D01*
X116823513Y-87213889D01*
X116676487Y-87213889D01*
X116532286Y-87185205D01*
X116396452Y-87128941D01*
X116274205Y-87047258D01*
X116170242Y-86943295D01*
X116088559Y-86821048D01*
X116032295Y-86685214D01*
X116003611Y-86541013D01*
X116003611Y-86393987D01*
X116032295Y-86249786D01*
X116088559Y-86113952D01*
X116170242Y-85991705D01*
X116274205Y-85887742D01*
X116396452Y-85806059D01*
X116532286Y-85749795D01*
X116676487Y-85721111D01*
X116823513Y-85721111D01*
X116967714Y-85749795D01*
G37*
G36*
X123143199Y-82297642D02*
G01*
X123269978Y-82350155D01*
X123384075Y-82426393D01*
X123481107Y-82523425D01*
X123557345Y-82637522D01*
X123609858Y-82764301D01*
X123636629Y-82898888D01*
X123636629Y-83036112D01*
X123609858Y-83170699D01*
X123557345Y-83297478D01*
X123481107Y-83411575D01*
X123384075Y-83508607D01*
X123269978Y-83584845D01*
X123143199Y-83637358D01*
X123008612Y-83664129D01*
X122871388Y-83664129D01*
X122736801Y-83637358D01*
X122610022Y-83584845D01*
X122495925Y-83508607D01*
X122398893Y-83411575D01*
X122322655Y-83297478D01*
X122270142Y-83170699D01*
X122243371Y-83036112D01*
X122243371Y-82898888D01*
X122270142Y-82764301D01*
X122322655Y-82637522D01*
X122398893Y-82523425D01*
X122495925Y-82426393D01*
X122610022Y-82350155D01*
X122736801Y-82297642D01*
X122871388Y-82270871D01*
X123008612Y-82270871D01*
X123143199Y-82297642D01*
G37*
G36*
X130763199Y-82297642D02*
G01*
X130889978Y-82350155D01*
X131004075Y-82426393D01*
X131101107Y-82523425D01*
X131177345Y-82637522D01*
X131229858Y-82764301D01*
X131256629Y-82898888D01*
X131256629Y-83036112D01*
X131229858Y-83170699D01*
X131177345Y-83297478D01*
X131101107Y-83411575D01*
X131004075Y-83508607D01*
X130889978Y-83584845D01*
X130763199Y-83637358D01*
X130628612Y-83664129D01*
X130491388Y-83664129D01*
X130356801Y-83637358D01*
X130230022Y-83584845D01*
X130115925Y-83508607D01*
X130018893Y-83411575D01*
X129942655Y-83297478D01*
X129890142Y-83170699D01*
X129863371Y-83036112D01*
X129863371Y-82898888D01*
X129890142Y-82764301D01*
X129942655Y-82637522D01*
X130018893Y-82523425D01*
X130115925Y-82426393D01*
X130230022Y-82350155D01*
X130356801Y-82297642D01*
X130491388Y-82270871D01*
X130628612Y-82270871D01*
X130763199Y-82297642D01*
G37*
G36*
X150576824Y-79106182D02*
G01*
X150785757Y-79174069D01*
X150981498Y-79273804D01*
X151159227Y-79402932D01*
X151314568Y-79558273D01*
X151443696Y-79736002D01*
X151543431Y-79931743D01*
X151611318Y-80140676D01*
X151645684Y-80357657D01*
X151645684Y-80577343D01*
X151611318Y-80794324D01*
X151543431Y-81003257D01*
X151443696Y-81198998D01*
X151314568Y-81376727D01*
X151159227Y-81532068D01*
X150981498Y-81661196D01*
X150785757Y-81760931D01*
X150576824Y-81828818D01*
X150359843Y-81863184D01*
X150140157Y-81863184D01*
X149923176Y-81828818D01*
X149714243Y-81760931D01*
X149518502Y-81661196D01*
X149340773Y-81532068D01*
X149185432Y-81376727D01*
X149056304Y-81198998D01*
X148956569Y-81003257D01*
X148888682Y-80794324D01*
X148854316Y-80577343D01*
X148854316Y-80357657D01*
X148888682Y-80140676D01*
X148956569Y-79931743D01*
X149056304Y-79736002D01*
X149185432Y-79558273D01*
X149340773Y-79402932D01*
X149518502Y-79273804D01*
X149714243Y-79174069D01*
X149923176Y-79106182D01*
X150140157Y-79071816D01*
X150359843Y-79071816D01*
X150576824Y-79106182D01*
G37*
G36*
X135444850Y-80005964D02*
G01*
X135495040Y-80011787D01*
X135512189Y-80019359D01*
X135535671Y-80024030D01*
X135560810Y-80040827D01*
X135580696Y-80049608D01*
X135594277Y-80063189D01*
X135616777Y-80078223D01*
X135631810Y-80100722D01*
X135645391Y-80114303D01*
X135654170Y-80134186D01*
X135670970Y-80159329D01*
X135675641Y-80182812D01*
X135683212Y-80199959D01*
X135689033Y-80250139D01*
X135690000Y-80255000D01*
X135690000Y-81355000D01*
X135689032Y-81359863D01*
X135683212Y-81410040D01*
X135675641Y-81427185D01*
X135670970Y-81450671D01*
X135654169Y-81475815D01*
X135645391Y-81495696D01*
X135631812Y-81509274D01*
X135616777Y-81531777D01*
X135594274Y-81546812D01*
X135580696Y-81560391D01*
X135560815Y-81569169D01*
X135535671Y-81585970D01*
X135512185Y-81590641D01*
X135495040Y-81598212D01*
X135444861Y-81604032D01*
X135440000Y-81605000D01*
X134340000Y-81605000D01*
X134335138Y-81604032D01*
X134284959Y-81598212D01*
X134267812Y-81590641D01*
X134244329Y-81585970D01*
X134219186Y-81569170D01*
X134199303Y-81560391D01*
X134185722Y-81546810D01*
X134163223Y-81531777D01*
X134148189Y-81509277D01*
X134134608Y-81495696D01*
X134125827Y-81475810D01*
X134109030Y-81450671D01*
X134104359Y-81427189D01*
X134096787Y-81410040D01*
X134090964Y-81359849D01*
X134090000Y-81355000D01*
X134090000Y-80255000D01*
X134090964Y-80250150D01*
X134096787Y-80199959D01*
X134104359Y-80182808D01*
X134109030Y-80159329D01*
X134125826Y-80134191D01*
X134134608Y-80114303D01*
X134148191Y-80100719D01*
X134163223Y-80078223D01*
X134185719Y-80063191D01*
X134199303Y-80049608D01*
X134219191Y-80040826D01*
X134244329Y-80024030D01*
X134267808Y-80019359D01*
X134284959Y-80011787D01*
X134335151Y-80005964D01*
X134340000Y-80005000D01*
X135440000Y-80005000D01*
X135444850Y-80005964D01*
G37*
G36*
X137662228Y-80039448D02*
G01*
X137807117Y-80099463D01*
X137937515Y-80186592D01*
X138048408Y-80297485D01*
X138135537Y-80427883D01*
X138195552Y-80572772D01*
X138226148Y-80726586D01*
X138226148Y-80883414D01*
X138195552Y-81037228D01*
X138135537Y-81182117D01*
X138048408Y-81312515D01*
X137937515Y-81423408D01*
X137807117Y-81510537D01*
X137662228Y-81570552D01*
X137508414Y-81601148D01*
X137351586Y-81601148D01*
X137197772Y-81570552D01*
X137052883Y-81510537D01*
X136922485Y-81423408D01*
X136811592Y-81312515D01*
X136724463Y-81182117D01*
X136664448Y-81037228D01*
X136633852Y-80883414D01*
X136633852Y-80726586D01*
X136664448Y-80572772D01*
X136724463Y-80427883D01*
X136811592Y-80297485D01*
X136922485Y-80186592D01*
X137052883Y-80099463D01*
X137197772Y-80039448D01*
X137351586Y-80008852D01*
X137508414Y-80008852D01*
X137662228Y-80039448D01*
G37*
G36*
X140202228Y-80039448D02*
G01*
X140347117Y-80099463D01*
X140477515Y-80186592D01*
X140588408Y-80297485D01*
X140675537Y-80427883D01*
X140735552Y-80572772D01*
X140766148Y-80726586D01*
X140766148Y-80883414D01*
X140735552Y-81037228D01*
X140675537Y-81182117D01*
X140588408Y-81312515D01*
X140477515Y-81423408D01*
X140347117Y-81510537D01*
X140202228Y-81570552D01*
X140048414Y-81601148D01*
X139891586Y-81601148D01*
X139737772Y-81570552D01*
X139592883Y-81510537D01*
X139462485Y-81423408D01*
X139351592Y-81312515D01*
X139264463Y-81182117D01*
X139204448Y-81037228D01*
X139173852Y-80883414D01*
X139173852Y-80726586D01*
X139204448Y-80572772D01*
X139264463Y-80427883D01*
X139351592Y-80297485D01*
X139462485Y-80186592D01*
X139592883Y-80099463D01*
X139737772Y-80039448D01*
X139891586Y-80008852D01*
X140048414Y-80008852D01*
X140202228Y-80039448D01*
G37*
G36*
X142742228Y-80039448D02*
G01*
X142887117Y-80099463D01*
X143017515Y-80186592D01*
X143128408Y-80297485D01*
X143215537Y-80427883D01*
X143275552Y-80572772D01*
X143306148Y-80726586D01*
X143306148Y-80883414D01*
X143275552Y-81037228D01*
X143215537Y-81182117D01*
X143128408Y-81312515D01*
X143017515Y-81423408D01*
X142887117Y-81510537D01*
X142742228Y-81570552D01*
X142588414Y-81601148D01*
X142431586Y-81601148D01*
X142277772Y-81570552D01*
X142132883Y-81510537D01*
X142002485Y-81423408D01*
X141891592Y-81312515D01*
X141804463Y-81182117D01*
X141744448Y-81037228D01*
X141713852Y-80883414D01*
X141713852Y-80726586D01*
X141744448Y-80572772D01*
X141804463Y-80427883D01*
X141891592Y-80297485D01*
X142002485Y-80186592D01*
X142132883Y-80099463D01*
X142277772Y-80039448D01*
X142431586Y-80008852D01*
X142588414Y-80008852D01*
X142742228Y-80039448D01*
G37*
G36*
X123143199Y-78797642D02*
G01*
X123269978Y-78850155D01*
X123384075Y-78926393D01*
X123481107Y-79023425D01*
X123557345Y-79137522D01*
X123609858Y-79264301D01*
X123636629Y-79398888D01*
X123636629Y-79536112D01*
X123609858Y-79670699D01*
X123557345Y-79797478D01*
X123481107Y-79911575D01*
X123384075Y-80008607D01*
X123269978Y-80084845D01*
X123143199Y-80137358D01*
X123008612Y-80164129D01*
X122871388Y-80164129D01*
X122736801Y-80137358D01*
X122610022Y-80084845D01*
X122495925Y-80008607D01*
X122398893Y-79911575D01*
X122322655Y-79797478D01*
X122270142Y-79670699D01*
X122243371Y-79536112D01*
X122243371Y-79398888D01*
X122270142Y-79264301D01*
X122322655Y-79137522D01*
X122398893Y-79023425D01*
X122495925Y-78926393D01*
X122610022Y-78850155D01*
X122736801Y-78797642D01*
X122871388Y-78770871D01*
X123008612Y-78770871D01*
X123143199Y-78797642D01*
G37*
G36*
X130763199Y-78797642D02*
G01*
X130889978Y-78850155D01*
X131004075Y-78926393D01*
X131101107Y-79023425D01*
X131177345Y-79137522D01*
X131229858Y-79264301D01*
X131256629Y-79398888D01*
X131256629Y-79536112D01*
X131229858Y-79670699D01*
X131177345Y-79797478D01*
X131101107Y-79911575D01*
X131004075Y-80008607D01*
X130889978Y-80084845D01*
X130763199Y-80137358D01*
X130628612Y-80164129D01*
X130491388Y-80164129D01*
X130356801Y-80137358D01*
X130230022Y-80084845D01*
X130115925Y-80008607D01*
X130018893Y-79911575D01*
X129942655Y-79797478D01*
X129890142Y-79670699D01*
X129863371Y-79536112D01*
X129863371Y-79398888D01*
X129890142Y-79264301D01*
X129942655Y-79137522D01*
X130018893Y-79023425D01*
X130115925Y-78926393D01*
X130230022Y-78850155D01*
X130356801Y-78797642D01*
X130491388Y-78770871D01*
X130628612Y-78770871D01*
X130763199Y-78797642D01*
G37*
G36*
X110904848Y-75568464D02*
G01*
X110955040Y-75574287D01*
X110972189Y-75581859D01*
X110995670Y-75586530D01*
X111020807Y-75603326D01*
X111040695Y-75612108D01*
X111054278Y-75625691D01*
X111076776Y-75640724D01*
X111091808Y-75663221D01*
X111105391Y-75676804D01*
X111114171Y-75696689D01*
X111130970Y-75721830D01*
X111135640Y-75745311D01*
X111143212Y-75762459D01*
X111149036Y-75812663D01*
X111149999Y-75817502D01*
X111149999Y-75820958D01*
X111150000Y-75820967D01*
X111150000Y-77077329D01*
X111150000Y-78117499D01*
X111149034Y-78122351D01*
X111143212Y-78172540D01*
X111135641Y-78189685D01*
X111130970Y-78213170D01*
X111114170Y-78238312D01*
X111105391Y-78258195D01*
X111091810Y-78271775D01*
X111076776Y-78294276D01*
X111054275Y-78309310D01*
X111040695Y-78322891D01*
X111020812Y-78331670D01*
X110995670Y-78348470D01*
X110972187Y-78353140D01*
X110955040Y-78360712D01*
X110904836Y-78366536D01*
X110899998Y-78367499D01*
X110896541Y-78367499D01*
X110896533Y-78367500D01*
X108603467Y-78367500D01*
X108603466Y-78367499D01*
X108600001Y-78367500D01*
X108595149Y-78366535D01*
X108544959Y-78360712D01*
X108527812Y-78353140D01*
X108504330Y-78348470D01*
X108479189Y-78331671D01*
X108459304Y-78322891D01*
X108445721Y-78309308D01*
X108423224Y-78294276D01*
X108408191Y-78271778D01*
X108394608Y-78258195D01*
X108385826Y-78238307D01*
X108369030Y-78213170D01*
X108364360Y-78189691D01*
X108356787Y-78172540D01*
X108350963Y-78122336D01*
X108350001Y-78117498D01*
X108350000Y-78114040D01*
X108350000Y-78114032D01*
X108350000Y-75820967D01*
X108350000Y-75820966D01*
X108350000Y-75817501D01*
X108350964Y-75812651D01*
X108356787Y-75762459D01*
X108364359Y-75745308D01*
X108369030Y-75721830D01*
X108385825Y-75696693D01*
X108394608Y-75676804D01*
X108408193Y-75663218D01*
X108423224Y-75640724D01*
X108445718Y-75625693D01*
X108459304Y-75612108D01*
X108479193Y-75603325D01*
X108504330Y-75586530D01*
X108527807Y-75581860D01*
X108544959Y-75574287D01*
X108595165Y-75568463D01*
X108600002Y-75567501D01*
X108603458Y-75567500D01*
X108603467Y-75567500D01*
X110896533Y-75567500D01*
X110899999Y-75567500D01*
X110904848Y-75568464D01*
G37*
G36*
X115076824Y-75606182D02*
G01*
X115285757Y-75674069D01*
X115481498Y-75773804D01*
X115659227Y-75902932D01*
X115814568Y-76058273D01*
X115943696Y-76236002D01*
X116043431Y-76431743D01*
X116111318Y-76640676D01*
X116145684Y-76857657D01*
X116145684Y-77077343D01*
X116111318Y-77294324D01*
X116043431Y-77503257D01*
X115943696Y-77698998D01*
X115814568Y-77876727D01*
X115659227Y-78032068D01*
X115481498Y-78161196D01*
X115285757Y-78260931D01*
X115076824Y-78328818D01*
X114859843Y-78363184D01*
X114640157Y-78363184D01*
X114423176Y-78328818D01*
X114214243Y-78260931D01*
X114018502Y-78161196D01*
X113840773Y-78032068D01*
X113685432Y-77876727D01*
X113556304Y-77698998D01*
X113456569Y-77503257D01*
X113388682Y-77294324D01*
X113354316Y-77077343D01*
X113354316Y-76857657D01*
X113388682Y-76640676D01*
X113456569Y-76431743D01*
X113556304Y-76236002D01*
X113685432Y-76058273D01*
X113840773Y-75902932D01*
X114018502Y-75773804D01*
X114214243Y-75674069D01*
X114423176Y-75606182D01*
X114640157Y-75571816D01*
X114859843Y-75571816D01*
X115076824Y-75606182D01*
G37*
G36*
X151404848Y-74068464D02*
G01*
X151455040Y-74074287D01*
X151472189Y-74081859D01*
X151495670Y-74086530D01*
X151520807Y-74103326D01*
X151540695Y-74112108D01*
X151554278Y-74125691D01*
X151576776Y-74140724D01*
X151591808Y-74163221D01*
X151605391Y-74176804D01*
X151614171Y-74196689D01*
X151630970Y-74221830D01*
X151635640Y-74245311D01*
X151643212Y-74262459D01*
X151649036Y-74312663D01*
X151649999Y-74317502D01*
X151649999Y-74320958D01*
X151650000Y-74320967D01*
X151650000Y-75523425D01*
X151650000Y-76617499D01*
X151649034Y-76622351D01*
X151643212Y-76672540D01*
X151635641Y-76689685D01*
X151630970Y-76713170D01*
X151614170Y-76738312D01*
X151605391Y-76758195D01*
X151591810Y-76771775D01*
X151576776Y-76794276D01*
X151554275Y-76809310D01*
X151540695Y-76822891D01*
X151520812Y-76831670D01*
X151495670Y-76848470D01*
X151472187Y-76853140D01*
X151455040Y-76860712D01*
X151404836Y-76866536D01*
X151399998Y-76867499D01*
X151396541Y-76867499D01*
X151396533Y-76867500D01*
X149103467Y-76867500D01*
X149103466Y-76867499D01*
X149100001Y-76867500D01*
X149095149Y-76866535D01*
X149044959Y-76860712D01*
X149027812Y-76853140D01*
X149004330Y-76848470D01*
X148979189Y-76831671D01*
X148959304Y-76822891D01*
X148945721Y-76809308D01*
X148923224Y-76794276D01*
X148908191Y-76771778D01*
X148894608Y-76758195D01*
X148885826Y-76738307D01*
X148869030Y-76713170D01*
X148864360Y-76689691D01*
X148856787Y-76672540D01*
X148850963Y-76622336D01*
X148850001Y-76617498D01*
X148850000Y-76614040D01*
X148850000Y-76614032D01*
X148850000Y-74320967D01*
X148850000Y-74320966D01*
X148850000Y-74317501D01*
X148850964Y-74312651D01*
X148856787Y-74262459D01*
X148864359Y-74245308D01*
X148869030Y-74221830D01*
X148885825Y-74196693D01*
X148894608Y-74176804D01*
X148908193Y-74163218D01*
X148923224Y-74140724D01*
X148945718Y-74125693D01*
X148959304Y-74112108D01*
X148979193Y-74103325D01*
X149004330Y-74086530D01*
X149027807Y-74081860D01*
X149044959Y-74074287D01*
X149095165Y-74068463D01*
X149100002Y-74067501D01*
X149103458Y-74067500D01*
X149103467Y-74067500D01*
X151396533Y-74067500D01*
X151399999Y-74067500D01*
X151404848Y-74068464D01*
G37*
G36*
X123143199Y-75297642D02*
G01*
X123269978Y-75350155D01*
X123384075Y-75426393D01*
X123481107Y-75523425D01*
X123557345Y-75637522D01*
X123609858Y-75764301D01*
X123636629Y-75898888D01*
X123636629Y-76036112D01*
X123609858Y-76170699D01*
X123557345Y-76297478D01*
X123481107Y-76411575D01*
X123384075Y-76508607D01*
X123269978Y-76584845D01*
X123143199Y-76637358D01*
X123008612Y-76664129D01*
X122871388Y-76664129D01*
X122736801Y-76637358D01*
X122610022Y-76584845D01*
X122495925Y-76508607D01*
X122398893Y-76411575D01*
X122322655Y-76297478D01*
X122270142Y-76170699D01*
X122243371Y-76036112D01*
X122243371Y-75898888D01*
X122270142Y-75764301D01*
X122322655Y-75637522D01*
X122398893Y-75523425D01*
X122495925Y-75426393D01*
X122610022Y-75350155D01*
X122736801Y-75297642D01*
X122871388Y-75270871D01*
X123008612Y-75270871D01*
X123143199Y-75297642D01*
G37*
G36*
X130763199Y-75297642D02*
G01*
X130889978Y-75350155D01*
X131004075Y-75426393D01*
X131101107Y-75523425D01*
X131177345Y-75637522D01*
X131229858Y-75764301D01*
X131256629Y-75898888D01*
X131256629Y-76036112D01*
X131229858Y-76170699D01*
X131177345Y-76297478D01*
X131101107Y-76411575D01*
X131004075Y-76508607D01*
X130889978Y-76584845D01*
X130763199Y-76637358D01*
X130628612Y-76664129D01*
X130491388Y-76664129D01*
X130356801Y-76637358D01*
X130230022Y-76584845D01*
X130115925Y-76508607D01*
X130018893Y-76411575D01*
X129942655Y-76297478D01*
X129890142Y-76170699D01*
X129863371Y-76036112D01*
X129863371Y-75898888D01*
X129890142Y-75764301D01*
X129942655Y-75637522D01*
X130018893Y-75523425D01*
X130115925Y-75426393D01*
X130230022Y-75350155D01*
X130356801Y-75297642D01*
X130491388Y-75270871D01*
X130628612Y-75270871D01*
X130763199Y-75297642D01*
G37*
G36*
X135122228Y-72419448D02*
G01*
X135267117Y-72479463D01*
X135397515Y-72566592D01*
X135508408Y-72677485D01*
X135595537Y-72807883D01*
X135655552Y-72952772D01*
X135686148Y-73106586D01*
X135686148Y-73263414D01*
X135655552Y-73417228D01*
X135595537Y-73562117D01*
X135508408Y-73692515D01*
X135397515Y-73803408D01*
X135267117Y-73890537D01*
X135122228Y-73950552D01*
X134968414Y-73981148D01*
X134811586Y-73981148D01*
X134657772Y-73950552D01*
X134512883Y-73890537D01*
X134382485Y-73803408D01*
X134271592Y-73692515D01*
X134184463Y-73562117D01*
X134124448Y-73417228D01*
X134093852Y-73263414D01*
X134093852Y-73106586D01*
X134124448Y-72952772D01*
X134184463Y-72807883D01*
X134271592Y-72677485D01*
X134382485Y-72566592D01*
X134512883Y-72479463D01*
X134657772Y-72419448D01*
X134811586Y-72388852D01*
X134968414Y-72388852D01*
X135122228Y-72419448D01*
G37*
G36*
X137662228Y-72419448D02*
G01*
X137807117Y-72479463D01*
X137937515Y-72566592D01*
X138048408Y-72677485D01*
X138135537Y-72807883D01*
X138195552Y-72952772D01*
X138226148Y-73106586D01*
X138226148Y-73263414D01*
X138195552Y-73417228D01*
X138135537Y-73562117D01*
X138048408Y-73692515D01*
X137937515Y-73803408D01*
X137807117Y-73890537D01*
X137662228Y-73950552D01*
X137508414Y-73981148D01*
X137351586Y-73981148D01*
X137197772Y-73950552D01*
X137052883Y-73890537D01*
X136922485Y-73803408D01*
X136811592Y-73692515D01*
X136724463Y-73562117D01*
X136664448Y-73417228D01*
X136633852Y-73263414D01*
X136633852Y-73106586D01*
X136664448Y-72952772D01*
X136724463Y-72807883D01*
X136811592Y-72677485D01*
X136922485Y-72566592D01*
X137052883Y-72479463D01*
X137197772Y-72419448D01*
X137351586Y-72388852D01*
X137508414Y-72388852D01*
X137662228Y-72419448D01*
G37*
G36*
X140202228Y-72419448D02*
G01*
X140347117Y-72479463D01*
X140477515Y-72566592D01*
X140588408Y-72677485D01*
X140675537Y-72807883D01*
X140735552Y-72952772D01*
X140766148Y-73106586D01*
X140766148Y-73263414D01*
X140735552Y-73417228D01*
X140675537Y-73562117D01*
X140588408Y-73692515D01*
X140477515Y-73803408D01*
X140347117Y-73890537D01*
X140202228Y-73950552D01*
X140048414Y-73981148D01*
X139891586Y-73981148D01*
X139737772Y-73950552D01*
X139592883Y-73890537D01*
X139462485Y-73803408D01*
X139351592Y-73692515D01*
X139264463Y-73562117D01*
X139204448Y-73417228D01*
X139173852Y-73263414D01*
X139173852Y-73106586D01*
X139204448Y-72952772D01*
X139264463Y-72807883D01*
X139351592Y-72677485D01*
X139462485Y-72566592D01*
X139592883Y-72479463D01*
X139737772Y-72419448D01*
X139891586Y-72388852D01*
X140048414Y-72388852D01*
X140202228Y-72419448D01*
G37*
G36*
X142742228Y-72419448D02*
G01*
X142887117Y-72479463D01*
X143017515Y-72566592D01*
X143128408Y-72677485D01*
X143215537Y-72807883D01*
X143275552Y-72952772D01*
X143306148Y-73106586D01*
X143306148Y-73263414D01*
X143275552Y-73417228D01*
X143215537Y-73562117D01*
X143128408Y-73692515D01*
X143017515Y-73803408D01*
X142887117Y-73890537D01*
X142742228Y-73950552D01*
X142588414Y-73981148D01*
X142431586Y-73981148D01*
X142277772Y-73950552D01*
X142132883Y-73890537D01*
X142002485Y-73803408D01*
X141891592Y-73692515D01*
X141804463Y-73562117D01*
X141744448Y-73417228D01*
X141713852Y-73263414D01*
X141713852Y-73106586D01*
X141744448Y-72952772D01*
X141804463Y-72807883D01*
X141891592Y-72677485D01*
X142002485Y-72566592D01*
X142132883Y-72479463D01*
X142277772Y-72419448D01*
X142431586Y-72388852D01*
X142588414Y-72388852D01*
X142742228Y-72419448D01*
G37*
G36*
X123143199Y-72297642D02*
G01*
X123269978Y-72350155D01*
X123384075Y-72426393D01*
X123481107Y-72523425D01*
X123557345Y-72637522D01*
X123609858Y-72764301D01*
X123636629Y-72898888D01*
X123636629Y-73036112D01*
X123609858Y-73170699D01*
X123557345Y-73297478D01*
X123481107Y-73411575D01*
X123384075Y-73508607D01*
X123269978Y-73584845D01*
X123143199Y-73637358D01*
X123008612Y-73664129D01*
X122871388Y-73664129D01*
X122736801Y-73637358D01*
X122610022Y-73584845D01*
X122495925Y-73508607D01*
X122398893Y-73411575D01*
X122322655Y-73297478D01*
X122270142Y-73170699D01*
X122243371Y-73036112D01*
X122243371Y-72898888D01*
X122270142Y-72764301D01*
X122322655Y-72637522D01*
X122398893Y-72523425D01*
X122495925Y-72426393D01*
X122610022Y-72350155D01*
X122736801Y-72297642D01*
X122871388Y-72270871D01*
X123008612Y-72270871D01*
X123143199Y-72297642D01*
G37*
G36*
X130763199Y-72297642D02*
G01*
X130889978Y-72350155D01*
X131004075Y-72426393D01*
X131101107Y-72523425D01*
X131177345Y-72637522D01*
X131229858Y-72764301D01*
X131256629Y-72898888D01*
X131256629Y-73036112D01*
X131229858Y-73170699D01*
X131177345Y-73297478D01*
X131101107Y-73411575D01*
X131004075Y-73508607D01*
X130889978Y-73584845D01*
X130763199Y-73637358D01*
X130628612Y-73664129D01*
X130491388Y-73664129D01*
X130356801Y-73637358D01*
X130230022Y-73584845D01*
X130115925Y-73508607D01*
X130018893Y-73411575D01*
X129942655Y-73297478D01*
X129890142Y-73170699D01*
X129863371Y-73036112D01*
X129863371Y-72898888D01*
X129890142Y-72764301D01*
X129942655Y-72637522D01*
X130018893Y-72523425D01*
X130115925Y-72426393D01*
X130230022Y-72350155D01*
X130356801Y-72297642D01*
X130491388Y-72270871D01*
X130628612Y-72270871D01*
X130763199Y-72297642D01*
G37*
M02*
