M48
; DRILL file KiCad 10.0.1 date 2026-05-06T13:51:21
; FORMAT={-:-/ absolute / metric / decimal}
; #@! TF.CreationDate,2026-05-06T13:51:21+02:00
; #@! TF.GenerationSoftware,Kicad,Pcbnew,10.0.1
; #@! TF.FileFunction,Plated,1,4,PTH
FMAT,2
METRIC
; #@! TA.AperFunction,Plated,PTH,ViaDrill
T1C0.300
; #@! TA.AperFunction,Plated,PTH,ComponentDrill
T2C0.700
; #@! TA.AperFunction,Plated,PTH,ComponentDrill
T3C0.750
; #@! TA.AperFunction,Plated,PTH,ComponentDrill
T4C0.800
; #@! TA.AperFunction,Plated,PTH,ComponentDrill
T5C0.900
; #@! TA.AperFunction,Plated,PTH,ComponentDrill
T6C1.000
; #@! TA.AperFunction,Plated,PTH,ComponentDrill
T7C1.100
; #@! TA.AperFunction,Plated,PTH,ComponentDrill
T8C1.300
%
G90
G05
T1
X138.2Y-116.7
T2
X107.44Y-92.968
X108.75Y-86.468
X110.75Y-86.468
X112.75Y-86.468
X115.06Y-92.968
X116.75Y-86.468
X122.94Y-72.968
X122.94Y-75.968
X122.94Y-79.468
X122.94Y-82.968
X126.44Y-119.468
X126.44Y-122.468
X126.48Y-125.8
X130.56Y-72.968
X130.56Y-75.968
X130.56Y-79.468
X130.56Y-82.968
X134.06Y-119.468
X134.06Y-122.468
X134.1Y-125.8
T3
X125.82Y-113.382
X127.09Y-113.382
X128.36Y-113.382
T4
X109.765Y-99.282
X109.8Y-124.982
X109.86Y-120.482
X112.265Y-99.282
X118.675Y-102.825
X122.5Y-124.982
X122.56Y-120.482
X123.4Y-86.968
X123.675Y-102.825
X134.89Y-73.185
X134.89Y-80.805
X136.1Y-86.968
X137.43Y-73.185
X137.43Y-80.805
X139.97Y-73.185
X139.97Y-80.805
X142.51Y-73.185
X142.51Y-80.805
X153.66Y-101.602
X153.66Y-104.142
X153.66Y-106.682
X153.75Y-91.968
X153.75Y-96.968
T5
X140.56Y-111.9
X140.56Y-114.44
T6
X138.25Y-93.218
X138.25Y-105.718
T7
X152.56Y-115.532
X152.56Y-118.072
X152.56Y-120.612
T8
X109.75Y-76.968
X114.75Y-76.968
X140.76Y-122.782
X140.9Y-86.968
X145.76Y-122.782
X150.25Y-75.468
X150.25Y-80.468
X153.6Y-86.968
M30
